<?xml version="1.0" encoding="utf-8"?>
<!-- Generator: Adobe Illustrator 23.0.4, SVG Export Plug-In . SVG Version: 6.00 Build 0)  -->
<svg version="1.1" xmlns="http://www.w3.org/2000/svg" xmlns:xlink="http://www.w3.org/1999/xlink" x="0px" y="0px"
	 viewBox="0 0 1920 1080" style="enable-background:new 0 0 1920 1080;" xml:space="preserve">
<style type="text/css">
	.st0{display:none;}
	.st1{display:inline;fill:#CFCAC5;}
	.st2{display:inline;fill:#EBE8E4;}
	.st3{display:inline;}
	.st4{fill:#343437;}
	.st5{fill:#FFFFFF;}
	.st6{fill:#3A3A3A;}
	.st7{fill:#666666;}
	.st8{fill:#4C4C4C;}
	.st9{fill:none;stroke:#3A4451;stroke-miterlimit:10;}
	.st10{fill:#C9C9C9;}
	.st11{fill:#3A4451;}
	.st12{fill:#373E4A;}
	.st13{fill:#D6D6D6;}
	.st14{fill:#EED1CE;}
	.st15{fill:#F0F4F6;}
	.st16{fill:#ABC1D0;}
	.st17{fill:#D8DBC6;}
	.st18{fill:#F3F3F2;}
	.st19{fill:#F4E5E4;}
	.st20{fill:#D1B8B8;}
	.st21{fill:#889FB4;}
	.st22{fill:#2B333C;}
	.st23{fill:#E08D7D;}
	.st24{fill:none;stroke:#E08D7D;stroke-miterlimit:10;}
	.st25{fill:none;stroke:#9DB0B7;stroke-width:0.25;stroke-miterlimit:10;}
	.st26{fill:none;stroke:#F3F3F2;stroke-miterlimit:10;}
	.st27{fill:#C8C8C8;}
	.st28{fill:#2D353F;}
	.st29{fill:#E4E4E8;}
	.st30{fill:#F3F3F3;}
	.st31{fill:none;stroke:#222222;stroke-miterlimit:10;}
	.st32{fill:#CD817A;}
	.st33{fill:#E2A49B;}
	.st34{fill:#E1EDFD;}
	.st35{fill:#E8D89C;}
	.st36{fill:#AAAEB7;}
	.st37{fill:#959A9F;}
	.st38{fill:#686F7D;}
	.st39{fill:#A3A39C;}
	.st40{fill:#BBBDB5;}
	.st41{fill:#8E9092;}
	.st42{fill:#6D6E6F;}
	.st43{fill:#F7F7F7;}
</style>
<g id="isla_x28_3_x29_" class="st0">
	<path class="st1" d="M1687.2,802.1c15.7-23.8,40.8-53.8,80.9-87.3c37-30.9,63.9-72.2,77-118.6c26.2-92.8,30.5-233.2-159.3-277.4
		c-151-35.2-234.3-61.3-279.6-78.4c-44.3-16.7-92.5-19.9-138.7-9.3c-107.6,24.7-300.6,87.3-339,248.4
		c-68.5,286.8,69.9,232.7,228,317.8c91.8,49.4,200.7,99.6,302.9,111.2C1549.2,918.6,1637.5,877.6,1687.2,802.1z"/>
	<path class="st2" d="M1690.8,791.2c15.7-23.8,40.8-53.8,80.9-87.3c37-30.9,63.9-72.2,77-118.6c26.2-92.8,30.5-233.2-159.3-277.4
		c-151-35.2-234.3-61.3-279.6-78.4c-44.3-16.7-92.5-19.9-138.7-9.3c-107.6,24.7-300.6,87.3-339,248.4
		c-68.5,286.8,69.9,232.7,228,317.8c91.8,49.4,200.7,99.6,302.9,111.2C1552.8,907.7,1641.1,866.7,1690.8,791.2z"/>
</g>
<g id="carretera_x28_3_x29_" class="st0">
	<g class="st3">
		<polygon class="st4" points="1554.5,-0.6 1774.7,126.5 1774.7,126.7 1775.8,127.3 1777.7,126.2 1558.1,-0.6 		"/>
		<polygon class="st4" points="1826.6,98.4 1828.3,97.5 1658.7,-0.6 1655.3,-0.6 		"/>
		<path class="st4" d="M1563.1-0.6l217.2,125.4l43.8-24.9L1650.3-0.6H1563.1z M1632.2,14.6l-11.3-6.5l1.9-1.1l11.3,6.5L1632.2,14.6z
			 M1659,30.2l-11.3-6.5l1.9-1.1l11.3,6.5L1659,30.2z M1783.2,99.6l11.3,6.5l-1.9,1.1l-11.3-6.5L1783.2,99.6z M1758.2,85.1l11.3,6.5
			l-1.9,1.1l-11.3-6.5L1758.2,85.1z M1729.1,68.5l11.3,6.5l-1.9,1.1l-11.3-6.5L1729.1,68.5z M1700.3,51.8l11.3,6.5l-1.9,1.1
			l-11.3-6.5L1700.3,51.8z M1673,35.8l11.3,6.5l-1.9,1.1l-11.3-6.5L1673,35.8z"/>
		<polygon class="st5" points="1824.1,99.8 1824.9,100.3 1827.4,98.9 1826.6,98.4 		"/>
		<polygon class="st5" points="1655.3,-0.6 1650.3,-0.6 1824.1,99.8 1826.6,98.4 		"/>
		<polygon class="st5" points="1778.8,126.8 1781.3,125.4 1780.3,124.8 1777.7,126.2 		"/>
		<polygon class="st5" points="1558.1,-0.6 1777.7,126.2 1780.3,124.8 1563.1,-0.6 		"/>
		<polygon class="st6" points="1541.3,-0.6 1774.7,134.1 1774.7,126.7 1554.3,-0.6 		"/>
		<polygon class="st6" points="1554.5,-0.6 1554.3,-0.6 1774.7,126.7 1774.7,126.5 		"/>
		<polygon class="st5" points="1684.3,42.4 1673,35.8 1671.1,36.9 1682.4,43.4 		"/>
		<polygon class="st5" points="1711.6,58.3 1700.3,51.8 1698.4,52.9 1709.7,59.4 		"/>
		<polygon class="st5" points="1740.4,75.1 1729.1,68.5 1727.2,69.6 1738.6,76.1 		"/>
		<polygon class="st5" points="1769.5,91.7 1758.2,85.1 1756.3,86.2 1767.6,92.8 		"/>
		<polygon class="st5" points="1794.5,106.1 1783.2,99.6 1781.3,100.7 1792.6,107.2 		"/>
		<g id="XMLID_1766_">
			<polygon id="XMLID_1782_" class="st6" points="1154.4,604.2 1102.1,634.2 1102.2,626.7 1154.4,596.5 			"/>
			<g id="XMLID_1767_">
				<path id="XMLID_1781_" class="st7" d="M1145.7,576.9c2.6-4.7,7.9-6.9,7.9-6.9l0,7.6c-4.3,2.7-7.1,6-8.2,9.3
					C1145.4,586.9,1143.1,581.6,1145.7,576.9z"/>
				<path id="XMLID_1780_" class="st4" d="M1102.1,634.2c-20.8-12-31.2-27.5-31.3-43.2l0-7.7l31.3,43.4L1102.1,634.2z"/>
				<path id="XMLID_1779_" class="st8" d="M1151.7,568.9l1.9,1.1c-12.1,7.5-11.9,19.2,0.7,26.5l-1.9,1.1
					C1139,589.8,1138.7,576.9,1151.7,568.9z"/>
				<path id="XMLID_1778_" class="st8" d="M1104,625.6l-1.9,1.1c-41.5-24-41.8-62.6-0.8-86.8l1.9,1.1
					C1063.2,564.5,1063.5,602.2,1104,625.6z"/>
				<path id="XMLID_1774_" class="st4" d="M1106.2,624.4l44.4-25.6c-14.7-8.5-15-22.3-0.7-31l-44-25.4
					C1067.1,565.2,1066.9,601.7,1106.2,624.4z M1113,567.2l8.8-8.7l2.4,0.8l-8.8,8.7L1113,567.2z M1107.9,588l0.2-10.1l2.8,0
					l-0.2,10.1L1107.9,588z"/>
				<path id="XMLID_1773_" class="st5" d="M1149.3,567.5l2.5,1.4c-13,8-12.8,20.9,0.7,28.7l-2.5,1.4
					C1135.3,590.5,1135.1,576.2,1149.3,567.5z"/>
				<g id="XMLID_1769_">
					<polygon id="XMLID_1772_" class="st5" points="1116.1,597 1125,605.5 1122.6,606.4 1113.7,597.9 					"/>
					<polygon id="XMLID_1771_" class="st5" points="1110.8,577.9 1110.7,588.1 1107.9,588 1108,577.9 					"/>
					<polygon id="XMLID_1770_" class="st5" points="1124.2,559.2 1115.4,568 1113,567.2 1121.8,558.4 					"/>
				</g>
				<path id="XMLID_1768_" class="st5" d="M1106.5,624.2l-2.5,1.4c-40.5-23.4-40.8-61.1-0.8-84.6l2.6,1.4
					C1067.1,565.2,1067.3,601.5,1106.5,624.2z"/>
			</g>
		</g>
		<g id="XMLID_1749_">
			<polygon id="XMLID_1765_" class="st6" points="1773.9,160.7 1826.2,190.7 1826.2,183.2 1773.9,153 			"/>
			<g id="XMLID_1750_">
				<path id="XMLID_1764_" class="st6" d="M1782.6,133.4c-2.6-4.7-7.9-6.9-7.9-6.9l0,7.6c4.3,2.7,7.1,6,8.2,9.3
					C1782.9,143.4,1785.2,138.1,1782.6,133.4z"/>
				<path id="XMLID_1763_" class="st7" d="M1826.2,190.7c20.8-12,31.2-27.5,31.3-43.2l0-7.7l-31.3,43.4L1826.2,190.7z"/>
				<path id="XMLID_1762_" class="st8" d="M1776.6,125.4l-1.9,1.1c12.1,7.5,11.9,19.2-0.7,26.5l1.9,1.1
					C1789.3,146.3,1789.6,133.4,1776.6,125.4z"/>
				<path id="XMLID_1761_" class="st8" d="M1824.3,182.1l1.9,1.1c41.5-24,41.6-62.5,0.6-86.7l-1.7,1
					C1865.1,121,1864.8,158.7,1824.3,182.1z"/>
				<path id="XMLID_1757_" class="st4" d="M1822.5,98.9l-44,25.4c14.2,8.7,14,22.4-0.7,31l44.4,25.6
					C1861.4,158.2,1861.2,121.7,1822.5,98.9z M1812.9,124.5l-8.8-8.7l2.4-0.8l8.8,8.7L1812.9,124.5z M1817.7,144.5l-0.2-10.1l2.8,0
					l0.2,10.1L1817.7,144.5z"/>
				<path id="XMLID_1756_" class="st5" d="M1779,124l-2.5,1.4c13,8,12.8,20.9-0.7,28.7l2.5,1.4C1793,147,1793.2,132.7,1779,124z"/>
				<g id="XMLID_1752_">
					<polygon id="XMLID_1755_" class="st5" points="1812.3,153.5 1803.3,162 1805.7,162.9 1814.7,154.3 					"/>
					<polygon id="XMLID_1754_" class="st5" points="1817.5,134.4 1817.7,144.5 1820.4,144.5 1820.3,134.4 					"/>
					<polygon id="XMLID_1753_" class="st5" points="1804.1,115.7 1812.9,124.5 1815.3,123.7 1806.5,114.9 					"/>
				</g>
				<path id="XMLID_1751_" class="st5" d="M1821.8,180.7l2.5,1.4c40.5-23.4,40.8-61.1,0.8-84.6l-2.6,1.4
					C1861.2,121.7,1861,158,1821.8,180.7z"/>
			</g>
		</g>
		<g id="XMLID_78_">
			<polygon id="XMLID_102_" class="st6" points="1636.7,973.9 1688.9,1003.9 1688.9,996.3 1636.7,966.2 			"/>
			<g id="XMLID_87_">
				<path id="XMLID_101_" class="st6" d="M1645.3,946.6c-2.6-4.7-7.9-6.9-7.9-6.9l0,7.6c4.3,2.7,7.1,6,8.2,9.3
					C1645.7,956.6,1648,951.3,1645.3,946.6z"/>
				<path id="XMLID_100_" class="st7" d="M1688.9,1003.9c20.8-12,31.2-27.5,31.3-43.2l0-7.7l-31.3,43.4L1688.9,1003.9z"/>
				<path id="XMLID_99_" class="st8" d="M1639.4,938.5l-1.9,1.1c12.1,7.5,11.9,19.2-0.7,26.5l1.9,1.1
					C1652.1,959.5,1652.4,946.5,1639.4,938.5z"/>
				<path id="XMLID_98_" class="st8" d="M1687.1,995.3l1.9,1.1c41.5-24,41.6-62.5,0.6-86.7l-1.7,1
					C1727.8,934.2,1727.5,971.9,1687.1,995.3z"/>
				<path id="XMLID_94_" class="st4" d="M1685.3,912l-44,25.4c14.2,8.7,14,22.4-0.7,31l44.4,25.6
					C1724.1,971.4,1724,934.9,1685.3,912z M1675.7,937.6l-8.8-8.7l2.4-0.8l8.8,8.7L1675.7,937.6z M1680.4,957.7l-0.2-10.1l2.8,0
					l0.2,10.1L1680.4,957.7z"/>
				<path id="XMLID_93_" class="st5" d="M1641.8,937.2l-2.5,1.4c13,8,12.8,20.9-0.7,28.7l2.5,1.4
					C1655.8,960.2,1656,945.9,1641.8,937.2z"/>
				<g id="XMLID_89_">
					<polygon id="XMLID_92_" class="st5" points="1675,966.6 1666.1,975.2 1668.5,976 1677.4,967.5 					"/>
					<polygon id="XMLID_91_" class="st5" points="1680.3,947.6 1680.4,957.7 1683.2,957.7 1683,947.6 					"/>
					<polygon id="XMLID_90_" class="st5" points="1666.9,928.9 1675.7,937.6 1678.1,936.8 1669.3,928.1 					"/>
				</g>
				<path id="XMLID_88_" class="st5" d="M1684.6,993.8l2.5,1.4c40.5-23.4,40.8-61.1,0.8-84.6l-2.6,1.4
					C1724,934.9,1723.8,971.2,1684.6,993.8z"/>
			</g>
		</g>
		<g id="XMLID_1742_">
			<g id="XMLID_1744_">
				<g id="XMLID_1745_">
					<polygon id="XMLID_1748_" class="st4" points="1639.5,940.9 1100.6,625.8 1152.8,595.7 1691.7,910.8 					"/>
					<polygon id="XMLID_1747_" class="st5" points="1688,913.7 1148.4,598.2 1150.9,596.7 1690.5,912.3 					"/>
					<polygon id="XMLID_1746_" class="st5" points="1642,940.3 1102.5,624.7 1105,623.3 1644.5,938.9 					"/>
				</g>
			</g>
			<polygon id="XMLID_1743_" class="st4" points="1100.6,633.3 1639.5,948.5 1639.5,940.9 1100.6,625.8 			"/>
		</g>
		<g>
			<g id="XMLID_992_">
				<g id="XMLID_994_">
					<g id="XMLID_995_">
						<polygon id="XMLID_1741_" class="st4" points="1153.5,570.5 1640.9,289.6 1588.4,259.3 1101,540.1 						"/>
						<polygon id="XMLID_1740_" class="st5" points="1105.1,542.8 1592.8,261.8 1590.2,260.4 1102.6,541.4 						"/>
						<polygon id="XMLID_996_" class="st5" points="1151.4,569.5 1639,288.5 1636.5,287.1 1148.8,568.1 						"/>
					</g>
				</g>
				<polygon id="XMLID_993_" class="st7" points="1640.9,297.2 1153.5,578.1 1153.5,570.5 1640.9,289.6 				"/>
			</g>
			<polygon id="XMLID_991_" class="st5" points="1576,295.2 1564.7,301.7 1566.5,302.8 1577.8,296.3 			"/>
			<polygon id="XMLID_990_" class="st5" points="1599,281.9 1587.7,288.5 1589.5,289.5 1600.9,283 			"/>
			<polygon id="XMLID_989_" class="st5" points="1524.7,324.8 1513.4,331.4 1515.3,332.5 1526.6,325.9 			"/>
			<polygon id="XMLID_988_" class="st5" points="1547.7,311.6 1536.4,318.1 1538.3,319.2 1549.6,312.6 			"/>
			<polygon id="XMLID_987_" class="st5" points="1474.1,354.5 1462.8,361 1464.7,362.1 1476,355.5 			"/>
			<polygon id="XMLID_986_" class="st5" points="1497.2,341.2 1485.8,347.7 1487.7,348.8 1499,342.3 			"/>
			<polygon id="XMLID_985_" class="st5" points="1422.9,384.1 1411.6,390.6 1413.5,391.7 1424.8,385.2 			"/>
			<polygon id="XMLID_984_" class="st5" points="1445.9,370.8 1434.6,377.4 1436.5,378.4 1447.8,371.9 			"/>
			<polygon id="XMLID_983_" class="st5" points="1320,443.1 1308.7,449.6 1310.5,450.7 1321.9,444.2 			"/>
			<polygon id="XMLID_982_" class="st5" points="1343,429.8 1331.7,436.4 1333.5,437.5 1344.9,430.9 			"/>
			<polygon id="XMLID_981_" class="st5" points="1267.3,473.5 1256,480.1 1257.8,481.2 1269.2,474.6 			"/>
			<polygon id="XMLID_980_" class="st5" points="1291.6,459.5 1280.3,466 1282.1,467.1 1293.5,460.5 			"/>
			<polygon id="XMLID_979_" class="st5" points="1217.1,502.4 1205.7,508.9 1207.6,510 1218.9,503.5 			"/>
			<polygon id="XMLID_978_" class="st5" points="1240.4,489.1 1229.1,495.6 1231,496.7 1242.3,490.2 			"/>
			<polygon id="XMLID_977_" class="st5" points="1189.1,518.6 1177.8,525.1 1179.7,526.2 1191,519.7 			"/>
			<polygon id="XMLID_976_" class="st5" points="1138.9,547.4 1127.6,554 1129.4,555.1 1140.8,548.5 			"/>
			<polygon id="XMLID_975_" class="st5" points="1162.2,534.2 1150.9,540.7 1152.8,541.8 1164.1,535.2 			"/>
		</g>
		<g>
			<g id="XMLID_968_">
				<g id="XMLID_970_">
					<g id="XMLID_971_">
						<polygon id="XMLID_974_" class="st4" points="1343.6,460.9 1831,180.1 1778.4,149.7 1291.1,430.6 						"/>
						<polygon id="XMLID_973_" class="st5" points="1295.2,433.3 1782.8,152.3 1780.3,150.8 1292.6,431.8 						"/>
						<polygon id="XMLID_972_" class="st5" points="1341.4,460 1829.1,179 1826.6,177.5 1338.9,458.5 						"/>
					</g>
				</g>
				<polygon id="XMLID_969_" class="st7" points="1831,187.7 1343.6,468.5 1343.6,460.9 1831,180.1 				"/>
			</g>
			<polygon id="XMLID_967_" class="st5" points="1766,185.7 1754.7,192.2 1756.6,193.3 1767.9,186.8 			"/>
			<polygon id="XMLID_966_" class="st5" points="1789.1,172.4 1777.7,178.9 1779.6,180 1790.9,173.5 			"/>
			<polygon id="XMLID_965_" class="st5" points="1714.8,215.3 1703.5,221.8 1705.4,222.9 1716.7,216.4 			"/>
			<polygon id="XMLID_964_" class="st5" points="1737.8,202 1726.5,208.6 1728.4,209.6 1739.7,203.1 			"/>
			<polygon id="XMLID_963_" class="st5" points="1664.2,244.9 1652.9,251.5 1654.8,252.5 1666.1,246 			"/>
			<polygon id="XMLID_962_" class="st5" points="1687.2,231.6 1675.9,238.2 1677.8,239.3 1689.1,232.7 			"/>
			<polygon id="XMLID_961_" class="st5" points="1613,274.6 1601.7,281.1 1603.6,282.2 1614.9,275.7 			"/>
			<polygon id="XMLID_960_" class="st5" points="1636,261.3 1624.7,267.8 1626.6,268.9 1637.9,262.4 			"/>
			<polygon id="XMLID_959_" class="st5" points="1510,333.6 1498.7,340.1 1500.6,341.2 1511.9,334.7 			"/>
			<polygon id="XMLID_958_" class="st5" points="1533.1,320.3 1521.7,326.8 1523.6,327.9 1534.9,321.4 			"/>
			<polygon id="XMLID_957_" class="st5" points="1457.4,364 1446,370.5 1447.9,371.6 1459.2,365.1 			"/>
			<polygon id="XMLID_956_" class="st5" points="1481.7,349.9 1470.3,356.5 1472.2,357.5 1483.5,351 			"/>
			<polygon id="XMLID_955_" class="st5" points="1407.1,392.8 1395.8,399.4 1397.7,400.5 1409,393.9 			"/>
			<polygon id="XMLID_954_" class="st5" points="1430.5,379.6 1419.2,386.1 1421.1,387.2 1432.4,380.6 			"/>
			<polygon id="XMLID_953_" class="st5" points="1379.2,409.1 1367.9,415.6 1369.8,416.7 1381.1,410.2 			"/>
			<polygon id="XMLID_952_" class="st5" points="1329,437.9 1317.6,444.4 1319.5,445.5 1330.8,439 			"/>
			<polygon id="XMLID_951_" class="st5" points="1352.3,424.6 1341,431.2 1342.9,432.2 1354.2,425.7 			"/>
		</g>
		<polygon id="XMLID_950_" class="st5" points="1211.4,659 1222.7,665.5 1220.8,666.6 1209.5,660.1 		"/>
		<polygon id="XMLID_949_" class="st5" points="1136,614 1147.4,620.6 1145.5,621.7 1134.2,615.1 		"/>
		<polygon id="XMLID_948_" class="st5" points="1261.6,687.8 1272.9,694.4 1271.1,695.5 1259.8,688.9 		"/>
		<polygon id="XMLID_947_" class="st5" points="1238.3,674.6 1249.6,681.1 1247.7,682.2 1236.4,675.6 		"/>
		<polygon id="XMLID_946_" class="st5" points="1289.6,704.1 1300.9,710.6 1299,711.7 1287.7,705.2 		"/>
		<polygon id="XMLID_945_" class="st5" points="1316.4,719.6 1327.8,726.2 1325.9,727.2 1314.6,720.7 		"/>
		<polygon id="XMLID_944_" class="st5" points="1367.7,748.7 1379,755.2 1377.1,756.3 1365.8,749.8 		"/>
		<polygon id="XMLID_943_" class="st5" points="1344.7,735.4 1356,742 1354.1,743 1342.8,736.5 		"/>
		<polygon id="XMLID_942_" class="st5" points="1420.4,779.1 1431.7,785.7 1429.8,786.8 1418.5,780.2 		"/>
		<polygon id="XMLID_941_" class="st5" points="1396.1,765.1 1407.4,771.6 1405.5,772.7 1394.2,766.1 		"/>
		<polygon id="XMLID_940_" class="st5" points="1470.6,808 1481.9,814.5 1480,815.6 1468.7,809.1 		"/>
		<polygon id="XMLID_939_" class="st5" points="1447.2,794.7 1458.6,801.2 1456.7,802.3 1445.4,795.8 		"/>
		<polygon id="XMLID_938_" class="st5" points="1498.5,824.2 1509.9,830.7 1508,831.8 1496.7,825.3 		"/>
		<polygon id="XMLID_937_" class="st5" points="1525.4,839.8 1536.7,846.3 1534.8,847.4 1523.5,840.8 		"/>
		<polygon id="XMLID_936_" class="st5" points="1573.4,868.8 1584.7,875.3 1582.9,876.4 1571.6,869.8 		"/>
		<polygon id="XMLID_935_" class="st5" points="1550.4,855.5 1561.7,862 1559.9,863.1 1548.5,856.6 		"/>
		<polygon id="XMLID_934_" class="st5" points="1626.1,899.2 1637.4,905.7 1635.6,906.8 1624.2,900.3 		"/>
		<polygon id="XMLID_933_" class="st5" points="1601.8,885.1 1613.1,891.6 1611.3,892.7 1599.9,886.2 		"/>
		<polygon id="XMLID_932_" class="st5" points="1653,914.7 1664.3,921.3 1662.4,922.4 1651.1,915.8 		"/>
		<g>
			<g>
				<polygon class="st5" points="1165,630.4 1195,647.8 1198.7,645.6 1168.7,628.3 				"/>
				<polygon class="st5" points="1158.1,634.4 1188.1,651.7 1191.9,649.6 1161.8,632.2 				"/>
				<polygon class="st5" points="1151.2,638.4 1181.3,655.7 1185,653.5 1155,636.2 				"/>
				<polygon class="st5" points="1144.4,642.3 1174.4,659.7 1178.1,657.5 1148.1,640.2 				"/>
			</g>
			<g>
				<polygon class="st5" points="1179.1,622.9 1209.1,640.3 1212.9,638.1 1182.8,620.8 				"/>
				<polygon class="st5" points="1172.2,626.9 1202.3,644.2 1206,642.1 1176,624.7 				"/>
			</g>
		</g>
		<g>
			<g>
				<polygon class="st5" points="1584.9,289.7 1554.9,307 1551.1,304.8 1581.2,287.5 				"/>
				<polygon class="st5" points="1591.8,293.6 1561.7,311 1558,308.8 1588,291.5 				"/>
				<polygon class="st5" points="1598.6,297.6 1568.6,314.9 1564.9,312.8 1594.9,295.4 				"/>
				<polygon class="st5" points="1605.5,301.6 1575.5,318.9 1571.7,316.7 1601.8,299.4 				"/>
			</g>
			<g>
				<polygon class="st5" points="1570.8,282.2 1540.7,299.5 1537,297.3 1567,280 				"/>
				<polygon class="st5" points="1577.6,286.1 1547.6,303.5 1543.9,301.3 1573.9,284 				"/>
			</g>
		</g>
		<path class="st8" d="M1469.5,1065.8l-1.9-1.1c-7.7,4.6-14,9.8-18.7,15.3h3C1456.4,1074.9,1462.3,1070.1,1469.5,1065.8z"/>
		<path class="st8" d="M1468.3,1064.3c-0.1,0.1-0.2,0.1-0.3,0.2L1468.3,1064.3L1468.3,1064.3z"/>
		<path class="st4" d="M1471.6,1067.5L1471.6,1067.5c-6.4,3.8-11.6,8-15.7,12.5h38.5l-22.4-12.7L1471.6,1067.5z"/>
		<path class="st5" d="M1471.6,1067.5l-2.5-1.4l0.4-0.2l0,0c-7.2,4.3-13.1,9.1-17.6,14.2h4C1460,1075.6,1465.3,1071.3,1471.6,1067.5
			z"/>
		<path class="st5" d="M1471.6,1067.5L1471.6,1067.5c-6.3,3.8-11.5,8-15.7,12.5h0C1460,1075.6,1465.3,1071.4,1471.6,1067.5z"/>
		<path class="st4" d="M1467.6,1064.7L1467.6,1064.7c0.1-0.1,0.2-0.1,0.3-0.2L1467.6,1064.7z"/>
		<path class="st4" d="M1470.2,1065.5l175-102.4l2.5,1.4l-174.9,102.4l22.8,13.1h41.3l154.6-90.3l2.5,1.4l-152.1,88.8h3.4
			l150.5-87.7l-52.5-30.3l-175,102.4L1470.2,1065.5L1470.2,1065.5z M1496,1078.5l-1.9-1.1l11.3-6.5l1.9,1.1L1496,1078.5z
			 M1519.6,1064.7l-1.9-1.1l11.3-6.5l1.9,1.1L1519.6,1064.7z M1542.6,1051.5l-1.9-1.1l11.3-6.5l1.9,1.1L1542.6,1051.5z
			 M1570.2,1035.1l-1.9-1.1l11.3-6.5l1.9,1.1L1570.2,1035.1z M1593.2,1021.8l-1.9-1.1l11.3-6.5l1.9,1.1L1593.2,1021.8z
			 M1621.5,1005.5l-1.9-1.1l11.3-6.5l1.9,1.1L1621.5,1005.5z M1655.8,985.7l-11.3,6.5l-1.9-1.1l11.3-6.5L1655.8,985.7z"/>
		<path class="st4" d="M1470.1,1065.4l-1.9-1.1l-0.3,0.2c-0.1,0.1-0.2,0.1-0.3,0.2l1.9,1.1
			C1469.7,1065.7,1469.9,1065.6,1470.1,1065.4z"/>
		<polygon class="st4" points="1494.4,1080 1495.5,1080 1472.8,1066.9 1472.1,1067.3 		"/>
		<path class="st4" d="M1470.2,1065.5L1470.2,1065.5c-0.3,0.1-0.5,0.2-0.7,0.4l0,0L1470.2,1065.5z"/>
		<path class="st5" d="M1471.6,1067.5l0.4-0.3l-0.1,0C1471.9,1067.3,1471.7,1067.4,1471.6,1067.5L1471.6,1067.5z"/>
		<path class="st5" d="M1469.5,1065.8l-0.4,0.2l2.5,1.4c0.1-0.1,0.3-0.2,0.4-0.3L1469.5,1065.8z"/>
		<path class="st5" d="M1472,1067.2L1472,1067.2c-0.1,0.1-0.3,0.2-0.4,0.3l0,0C1471.7,1067.4,1471.9,1067.3,1472,1067.2z"/>
		<polygon class="st5" points="1472.8,1066.9 1647.7,964.5 1645.2,963 1470.2,1065.5 1472.7,1066.8 		"/>
		<path class="st5" d="M1472,1067.2L1472,1067.2l0.8-0.4l-0.1,0C1472.5,1067,1472.2,1067.1,1472,1067.2z"/>
		<path class="st5" d="M1472,1067.2c0.2-0.1,0.5-0.3,0.7-0.4l-2.5-1.4l-0.7,0.4L1472,1067.2z"/>
		<path class="st5" d="M1472.7,1066.8c-0.2,0.1-0.5,0.3-0.7,0.4l0,0C1472.2,1067.1,1472.5,1067,1472.7,1066.8z"/>
		<polygon class="st5" points="1693.9,991.2 1691.4,989.7 1536.8,1080 1541.8,1080 		"/>
		<polygon class="st7" points="1695.8,992.3 1545.4,1080 1558.3,1080 1695.8,999.9 		"/>
		<polygon class="st7" points="1545.4,1080 1695.8,992.3 1545.3,1080 		"/>
		<polygon class="st5" points="1619.6,1004.4 1621.5,1005.5 1632.8,998.9 1630.9,997.9 		"/>
		<polygon class="st5" points="1644.5,992.2 1655.8,985.7 1653.9,984.6 1642.6,991.1 		"/>
		<polygon class="st5" points="1568.3,1034 1570.2,1035.1 1581.5,1028.6 1579.7,1027.5 		"/>
		<polygon class="st5" points="1591.3,1020.8 1593.2,1021.8 1604.5,1015.3 1602.7,1014.2 		"/>
		<polygon class="st5" points="1517.7,1063.7 1519.6,1064.7 1530.9,1058.2 1529.1,1057.1 		"/>
		<polygon class="st5" points="1540.8,1050.4 1542.6,1051.5 1553.9,1044.9 1552.1,1043.8 		"/>
		<polygon class="st5" points="1494.1,1077.4 1496,1078.5 1507.3,1072 1505.4,1070.9 		"/>
	</g>
</g>
<g id="capa3_x28_3_x29_">
	<polygon class="st10" points="1407.5,686 1379.2,684.9 1318.5,649.7 1369.7,620.1 1407.2,606.8 1407.5,686 	"/>
	<polygon class="st10" points="1510.6,705.5 1482.3,704.5 1421.6,669.2 1472.8,639.6 1510.4,626.4 1510.6,705.5 	"/>
	<g>
		<g id="XMLID_869_">
			<polygon id="XMLID_872_" class="st11" points="1395.7,605.8 1395.6,640.4 1508.8,705.8 1508.8,671.1 			"/>
			<polygon id="XMLID_871_" class="st12" points="1449,575 1395.6,605.8 1508.8,671.1 1562.2,640.3 			"/>
			<polygon id="XMLID_870_" class="st13" points="1508.8,671.1 1508.8,705.8 1562.2,675 1562.2,640.3 			"/>
		</g>
		<g id="XMLID_861_">
			<g id="XMLID_862_">
				<g id="XMLID_866_">
					<polygon id="XMLID_868_" class="st5" points="1477.1,651 1477.1,672.8 1483.8,676.7 1483.8,654.9 					"/>
					<polygon id="XMLID_867_" class="st14" points="1478.1,672.2 1478.1,651.6 1477.1,651 1477.1,672.8 1483.8,676.7 1483.8,675.5 
											"/>
				</g>
				<g id="XMLID_863_">
					<polygon id="XMLID_865_" class="st5" points="1490.3,658.4 1490.3,680.2 1496.9,684.1 1496.9,662.2 					"/>
					<polygon id="XMLID_864_" class="st14" points="1491.3,679.6 1491.3,659 1490.3,658.4 1490.3,680.2 1496.9,684.1 1496.9,682.9 
											"/>
				</g>
			</g>
		</g>
		<g id="XMLID_859_">
			<polygon id="XMLID_860_" class="st15" points="1448.8,631 1448.8,671.1 1468,682.2 1468,642.1 			"/>
		</g>
		<g id="XMLID_855_">
			<polygon id="XMLID_858_" class="st16" points="1387.7,569.1 1387.7,610.4 1500.9,675.7 1500.9,634.4 			"/>
			<polygon id="XMLID_857_" class="st17" points="1449,521.6 1387.7,569.1 1500.9,634.4 1562.2,587 			"/>
			<polygon id="XMLID_856_" class="st18" points="1500.9,634.4 1500.9,675.7 1562.2,640.3 1562.2,587 			"/>
		</g>
		<g id="XMLID_851_">
			<polygon id="XMLID_854_" class="st19" points="1496.9,637.5 1496.9,634.9 1383.8,569.5 1383.8,572.1 			"/>
			<polygon id="XMLID_853_" class="st14" points="1496.9,634.9 1562.2,584.3 1449,519 1383.8,569.5 			"/>
			<polygon id="XMLID_852_" class="st20" points="1562.2,584.3 1562.2,587 1496.9,637.5 1496.9,634.9 			"/>
		</g>
		<g id="XMLID_846_">
			<polygon id="XMLID_850_" class="st11" points="1362.8,615.6 1362.8,624.8 1362.8,624.8 1362.8,659.4 1407.5,685.2 1407.5,653.7 
				1407.5,650.6 1407.5,641.3 			"/>
			<polygon id="XMLID_849_" class="st21" points="1387.7,601.2 1362.8,615.6 1407.5,641.3 1432.3,627 			"/>
			<polygon id="XMLID_848_" class="st22" points="1426.3,627.2 1387.7,604.9 1368.8,615.8 1370.9,617 1387.7,607.3 1424.2,628.4 			
				"/>
			<polygon id="XMLID_847_" class="st4" points="1432.3,636.2 1432.3,627 1407.5,641.3 1407.5,650.6 1407.5,685.2 1440.4,666.2 
				1440.4,640.8 			"/>
		</g>
		<polygon class="st5" points="1399.8,588.5 1399.8,588.5 1396.9,586.9 1396.9,596.4 1432.3,616.6 1432.3,609.2 1432.3,608.2 
			1432.3,607.1 		"/>
		<polygon id="XMLID_845_" class="st11" points="1432.3,615.2 1398.1,595.6 1398.1,587.5 1396.9,586.9 1396.9,596.4 1432.3,616.6 		
			"/>
		<polygon class="st23" points="1529.8,648.9 1516.8,656.4 1516.8,633.9 1529.8,626.3 		"/>
		<polyline class="st9" points="1529.8,626.3 1529.8,648.9 1516.8,656.4 		"/>
		<polygon class="st23" points="1552,636.4 1538.9,643.9 1538.9,621.3 1552,613.8 		"/>
		<polyline class="st9" points="1552,613.8 1552,636.4 1538.9,643.9 		"/>
		<polyline class="st9" points="1398.5,673 1385.8,665.7 1385.8,643.7 		"/>
		<polyline class="st9" points="1380.6,662.1 1367.9,654.8 1367.9,632.8 		"/>
		<g>
			<polygon class="st14" points="1386.3,665.5 1399,672.8 1399,650.8 1386.3,643.5 			"/>
			<polyline class="st24" points="1399,672.8 1386.3,665.5 1386.3,643.5 			"/>
		</g>
		<g>
			<polygon class="st14" points="1450.4,638.3 1463.1,645.6 1463.1,623.6 1450.4,616.3 			"/>
			<polyline class="st24" points="1463.1,645.6 1450.4,638.3 1450.4,616.3 			"/>
		</g>
		<g>
			<polygon class="st14" points="1473.2,651.4 1485.9,658.7 1485.9,636.7 1473.2,629.4 			"/>
			<polyline class="st24" points="1485.9,658.7 1473.2,651.4 1473.2,629.4 			"/>
		</g>
		<g>
			<polygon class="st14" points="1368.3,655.4 1381,662.8 1381,640.8 1368.3,633.5 			"/>
			<polyline class="st24" points="1381,662.8 1368.3,655.4 1368.3,633.5 			"/>
		</g>
	</g>
	<g>
		<path class="st11" d="M1266,586.3v17.2c0,1-0.8,1.8-1.8,1.8c-1,0-1.8-0.8-1.8-1.8v-17.2H1266z"/>
		<path class="st21" d="M1266,586.3v6.9c-0.6,0-1.2,0.1-1.8,0.1c-0.6,0-1.2,0-1.8-0.1v-6.9H1266z"/>
		
			<ellipse transform="matrix(0.9144 -0.4049 0.4049 0.9144 -121.8685 560.5454)" class="st16" cx="1264.2" cy="568.4" rx="21.5" ry="21.5"/>
		<path class="st21" d="M1266,583.7c-11.9,0-21.5-9.6-21.5-21.5c0-0.9,0.1-1.8,0.2-2.7c-1.2,2.7-1.9,5.7-1.9,8.9
			c0,11.9,9.6,21.5,21.5,21.5c10.9,0,19.9-8.2,21.3-18.7C1282.1,578.5,1274.6,583.7,1266,583.7z"/>
	</g>
	<g>
		<path class="st11" d="M1295.2,600.7v17.2c0,1-0.8,1.8-1.8,1.8c-1,0-1.8-0.8-1.8-1.8v-17.2H1295.2z"/>
		<path class="st21" d="M1295.2,600.7v6.9c-0.6,0-1.2,0.1-1.8,0.1c-0.6,0-1.2,0-1.8-0.1v-6.9H1295.2z"/>
		
			<ellipse transform="matrix(0.9144 -0.4049 0.4049 0.9144 -125.2007 573.6297)" class="st16" cx="1293.5" cy="582.8" rx="21.5" ry="21.5"/>
		<path class="st21" d="M1295.2,598.1c-11.9,0-21.5-9.6-21.5-21.5c0-0.9,0.1-1.8,0.2-2.7c-1.2,2.7-1.9,5.7-1.9,8.9
			c0,11.9,9.6,21.5,21.5,21.5c10.9,0,19.9-8.2,21.3-18.7C1311.4,592.9,1303.9,598.1,1295.2,598.1z"/>
	</g>
	<g>
		<path class="st11" d="M1571.6,760.7v17.2c0,1-0.8,1.8-1.8,1.8c-1,0-1.8-0.8-1.8-1.8v-17.2H1571.6z"/>
		<path class="st21" d="M1571.6,760.7v6.9c-0.6,0-1.2,0.1-1.8,0.1c-0.6,0-1.2,0-1.8-0.1v-6.9H1571.6z"/>
		
			<ellipse transform="matrix(0.9144 -0.4049 0.4049 0.9144 -166.2948 699.2263)" class="st16" cx="1569.8" cy="742.7" rx="21.5" ry="21.5"/>
		<path class="st21" d="M1571.6,758c-11.9,0-21.5-9.6-21.5-21.5c0-0.9,0.1-1.8,0.2-2.7c-1.2,2.7-1.9,5.7-1.9,8.9
			c0,11.9,9.6,21.5,21.5,21.5c10.9,0,19.9-8.2,21.3-18.7C1587.7,752.9,1580.3,758,1571.6,758z"/>
	</g>
	<g>
		<path class="st11" d="M1596.4,775.3v17.2c0,1-0.8,1.8-1.8,1.8c-1,0-1.8-0.8-1.8-1.8v-17.2H1596.4z"/>
		<path class="st21" d="M1596.4,775.3v6.9c-0.6,0-1.2,0.1-1.8,0.1c-0.6,0-1.2,0-1.8-0.1v-6.9H1596.4z"/>
		
			<ellipse transform="matrix(0.9144 -0.4049 0.4049 0.9144 -170.0799 710.5361)" class="st16" cx="1594.7" cy="757.3" rx="21.5" ry="21.5"/>
		<path class="st21" d="M1596.4,772.6c-11.9,0-21.5-9.6-21.5-21.5c0-0.9,0.1-1.8,0.2-2.7c-1.2,2.7-1.9,5.7-1.9,8.9
			c0,11.9,9.6,21.5,21.5,21.5c10.9,0,19.9-8.2,21.3-18.7C1612.6,767.5,1605.1,772.6,1596.4,772.6z"/>
	</g>
	<g>
		<polygon class="st11" points="1410.4,577.8 1465.4,535.2 1532.9,574.1 1477.9,617.1 		"/>
		<line class="st25" x1="1460.9" y1="607.4" x2="1515.9" y2="564.8"/>
		<line class="st25" x1="1468.8" y1="611.8" x2="1523.8" y2="569.2"/>
		<line class="st25" x1="1436.9" y1="593.2" x2="1491.9" y2="550.6"/>
		<line class="st25" x1="1444.8" y1="597.6" x2="1499.8" y2="555"/>
		<line class="st25" x1="1415.4" y1="581.2" x2="1470.5" y2="538.6"/>
		<line class="st25" x1="1423.3" y1="585.6" x2="1478.3" y2="543"/>
		<line class="st25" x1="1516.3" y1="588.1" x2="1448.4" y2="548.9"/>
		<line class="st25" x1="1524.3" y1="581.7" x2="1456.4" y2="542.5"/>
		<line class="st25" x1="1488.3" y1="609.9" x2="1420.4" y2="570.7"/>
		<line class="st25" x1="1496.3" y1="603.5" x2="1428.4" y2="564.3"/>
		<polygon class="st26" points="1465.4,535.2 1532.9,574.1 1478,616.8 1410.4,577.8 		"/>
		<line class="st26" x1="1452.4" y1="603" x2="1507.4" y2="560.4"/>
		<line class="st26" x1="1430.4" y1="589.2" x2="1485.4" y2="546.6"/>
		<line class="st26" x1="1506.5" y1="595.6" x2="1438.6" y2="556.4"/>
		<polyline class="st27" points="1478.1,618.8 1478.1,617.2 1409.7,577.8 1409.7,579.5 1411,580.2 1478.2,619 1533.7,576.1 
			1533.7,574.1 1478.1,617.2 		"/>
	</g>
</g>
<g id="capa2_x28_3_x29_" class="st0">
	<g class="st3">
		<polygon class="st10" points="1188.4,443.1 1160.1,442 1069.9,390.4 1121.1,360.8 1188.1,363.9 1188.4,443.1 		"/>
		<polygon class="st18" points="1318.1,176.6 1318.1,368.1 1188.4,443.1 1188.4,251.5 1318.1,176.6 		"/>
		<polygon class="st16" points="1110.3,206.5 1110.3,398 1188.4,443.1 1188.4,251.5 1110.3,206.5 		"/>
		<g>
			<polygon class="st16" points="1318.1,176.6 1188.4,251.5 1110.3,206.5 1240,131.5 			"/>
			<polygon class="st5" points="1188.4,249.1 1114.5,206.5 1240,134 1313.9,176.6 			"/>
		</g>
		<g>
			<polygon class="st23" points="1300.9,219.3 1293.8,223.4 1293.8,211.2 1300.9,207.1 			"/>
			<g>
				<polygon class="st23" points="1213.5,269.4 1206.5,273.5 1206.5,261.3 1213.5,257.3 				"/>
				<polygon class="st23" points="1213.5,289.5 1206.5,293.6 1206.5,281.4 1213.5,277.3 				"/>
				<polygon class="st23" points="1213.5,309.6 1206.5,313.6 1206.5,301.4 1213.5,297.4 				"/>
				<polygon class="st23" points="1213.5,329.6 1206.5,333.7 1206.5,321.5 1213.5,317.4 				"/>
				<polygon class="st23" points="1213.5,349.7 1206.5,353.7 1206.5,341.5 1213.5,337.5 				"/>
				<polygon class="st23" points="1213.5,369.7 1206.5,373.8 1206.5,361.6 1213.5,357.5 				"/>
				<polygon class="st23" points="1231,259.4 1223.9,263.5 1223.9,251.3 1231,247.2 				"/>
				<polygon class="st23" points="1231,279.5 1223.9,283.5 1223.9,271.3 1231,267.3 				"/>
				<polygon class="st23" points="1231,299.5 1223.9,303.6 1223.9,291.4 1231,287.3 				"/>
				<polygon class="st23" points="1231,319.6 1223.9,323.6 1223.9,311.5 1231,307.4 				"/>
				<polygon class="st23" points="1231,339.6 1223.9,343.7 1223.9,331.5 1231,327.4 				"/>
				<polygon class="st23" points="1231,359.7 1223.9,363.7 1223.9,351.6 1231,347.5 				"/>
				<polygon class="st23" points="1248.4,249.4 1241.4,253.5 1241.4,241.3 1248.4,237.2 				"/>
				<polygon class="st23" points="1248.4,269.4 1241.4,273.5 1241.4,261.3 1248.4,257.2 				"/>
				<polygon class="st23" points="1248.4,289.5 1241.4,293.6 1241.4,281.4 1248.4,277.3 				"/>
				<polygon class="st23" points="1248.4,309.5 1241.4,313.6 1241.4,301.4 1248.4,297.4 				"/>
				<polygon class="st23" points="1248.4,329.6 1241.4,333.7 1241.4,321.5 1248.4,317.4 				"/>
				<polygon class="st23" points="1248.4,349.6 1241.4,353.7 1241.4,341.5 1248.4,337.5 				"/>
				<polygon class="st23" points="1265.9,239.4 1258.9,243.4 1258.9,231.2 1265.9,227.2 				"/>
				<polygon class="st23" points="1265.9,259.4 1258.9,263.5 1258.9,251.3 1265.9,247.2 				"/>
				<polygon class="st23" points="1265.9,279.5 1258.9,283.5 1258.9,271.3 1265.9,267.3 				"/>
				<polygon class="st23" points="1265.9,299.5 1258.9,303.6 1258.9,291.4 1265.9,287.3 				"/>
				<polygon class="st23" points="1265.9,319.6 1258.9,323.6 1258.9,311.4 1265.9,307.4 				"/>
				<polygon class="st23" points="1265.9,339.6 1258.9,343.7 1258.9,331.5 1265.9,327.4 				"/>
				<polygon class="st23" points="1283.4,229.3 1276.4,233.4 1276.4,221.2 1283.4,217.1 				"/>
				<polygon class="st23" points="1283.4,249.4 1276.4,253.4 1276.4,241.3 1283.4,237.2 				"/>
				<polygon class="st23" points="1283.4,269.4 1276.4,273.5 1276.4,261.3 1283.4,257.2 				"/>
				<polygon class="st23" points="1283.4,289.5 1276.4,293.6 1276.4,281.4 1283.4,277.3 				"/>
				<polygon class="st23" points="1283.4,309.5 1276.4,313.6 1276.4,301.4 1283.4,297.3 				"/>
				<polygon class="st23" points="1283.4,329.6 1276.4,333.7 1276.4,321.5 1283.4,317.4 				"/>
				<polygon class="st23" points="1300.9,239.4 1293.8,243.4 1293.8,231.2 1300.9,227.2 				"/>
				<polygon class="st23" points="1300.9,259.4 1293.8,263.5 1293.8,251.3 1300.9,247.2 				"/>
				<polygon class="st23" points="1300.9,279.5 1293.8,283.5 1293.8,271.3 1300.9,267.3 				"/>
				<polygon class="st23" points="1300.9,299.5 1293.8,303.6 1293.8,291.4 1300.9,287.3 				"/>
				<polygon class="st23" points="1300.9,319.6 1293.8,323.6 1293.8,311.4 1300.9,307.4 				"/>
			</g>
		</g>
		<polygon class="st5" points="1158.8,267.3 1165.8,271.3 1165.8,259.2 1158.8,255.1 		"/>
		<polygon class="st5" points="1158.8,287.3 1165.8,291.4 1165.8,279.2 1158.8,275.1 		"/>
		<polygon class="st5" points="1158.8,307.4 1165.8,311.4 1165.8,299.3 1158.8,295.2 		"/>
		<polygon class="st5" points="1158.8,327.4 1165.8,331.5 1165.8,319.3 1158.8,315.2 		"/>
		<polygon class="st5" points="1158.8,347.5 1165.8,351.6 1165.8,339.4 1158.8,335.3 		"/>
		<polygon class="st5" points="1158.8,367.5 1165.8,371.6 1165.8,359.4 1158.8,355.3 		"/>
		<polygon class="st5" points="1141.3,257.2 1148.4,261.3 1148.4,249.1 1141.3,245.1 		"/>
		<polygon class="st5" points="1141.3,277.3 1148.4,281.4 1148.4,269.2 1141.3,265.1 		"/>
		<polygon class="st5" points="1141.3,297.3 1148.4,301.4 1148.4,289.2 1141.3,285.2 		"/>
		<polygon class="st5" points="1141.3,317.4 1148.4,321.5 1148.4,309.3 1141.3,305.2 		"/>
		<polygon class="st5" points="1141.3,337.5 1148.4,341.5 1148.4,329.3 1141.3,325.3 		"/>
		<polygon class="st5" points="1141.3,357.5 1148.4,361.6 1148.4,349.4 1141.3,345.3 		"/>
		<g>
			<polygon class="st10" points="1250.9,159.2 1226,173.7 1210.6,164.8 1235.6,150.4 			"/>
			<polygon class="st5" points="1219.3,154.2 1229.7,160.2 1251.3,147.7 1240.9,141.7 			"/>
			<polygon class="st14" points="1219.9,154.2 1240.9,142.1 1250.7,147.7 1229.7,159.8 			"/>
			<polygon class="st23" points="1251.3,147.7 1251.3,159 1229.7,171.5 1229.7,160.2 			"/>
			<polygon class="st16" points="1229.7,160.2 1229.7,171.5 1219.3,165.5 1219.3,154.2 			"/>
			<polygon class="st5" points="1243.1,163.8 1240.8,165.1 1240.8,160.3 1243.1,159 			"/>
		</g>
		<g>
			<polygon class="st10" points="1280.5,176.3 1255.5,190.8 1240.2,181.9 1265.1,167.5 			"/>
			<polygon class="st5" points="1248.9,171.3 1259.2,177.3 1280.8,164.8 1270.5,158.8 			"/>
			<polygon class="st14" points="1249.5,171.3 1270.5,159.1 1280.2,164.8 1259.2,176.9 			"/>
			<polygon class="st23" points="1280.8,164.8 1280.8,176.1 1259.2,188.6 1259.2,177.3 			"/>
			<polygon class="st16" points="1259.2,177.3 1259.2,188.6 1248.9,182.6 1248.9,171.3 			"/>
			<polygon class="st5" points="1272.6,180.9 1270.4,182.2 1270.4,177.4 1272.6,176.1 			"/>
		</g>
		<g>
			<polygon class="st10" points="1171.9,201.8 1146.9,216.3 1131.6,207.5 1156.5,193 			"/>
			<polygon class="st5" points="1140.3,196.8 1150.6,202.8 1172.3,190.3 1161.9,184.3 			"/>
			<polygon class="st14" points="1140.9,196.8 1161.9,184.7 1171.6,190.3 1150.6,202.5 			"/>
			<polygon class="st23" points="1172.3,190.3 1172.3,201.6 1150.6,214.1 1150.6,202.8 			"/>
			<polygon class="st16" points="1150.6,202.8 1150.6,214.1 1140.3,208.1 1140.3,196.8 			"/>
			<polygon class="st5" points="1164.1,206.4 1161.8,207.7 1161.8,202.9 1164.1,201.6 			"/>
		</g>
		<g>
			<g>
				<g>
					<path class="st28" d="M1310.2,350.9L1310.2,350.9c0,0.9,0.6,1.2,1.4,0.8c0.7-0.4,1.3-1.3,1.4-2.1c0-0.1,0.1-0.4,0.1-0.4
						c-0.2-0.2-1-0.9-1.4-0.6C1310.8,349,1310.2,350.1,1310.2,350.9z"/>
					<path class="st28" d="M1307.5,352.5c0,0.9,0.6,1.2,1.4,0.8c0.8-0.4,1.4-1.5,1.4-2.4c0-0.9-0.6-1.2-1.4-0.8
						C1308.1,350.6,1307.5,351.7,1307.5,352.5z"/>
					<path class="st28" d="M1304.7,354.1c0,0.9,0.6,1.2,1.4,0.8c0.8-0.4,1.4-1.5,1.4-2.4c0-0.9-0.6-1.2-1.4-0.8
						C1305.3,352.1,1304.7,353.2,1304.7,354.1z"/>
					<path class="st28" d="M1302,355.6c0,0.9,0.6,1.2,1.4,0.8c0.8-0.4,1.4-1.5,1.4-2.4c0-0.9-0.6-1.2-1.4-0.8
						C1302.6,353.7,1302,354.8,1302,355.6z"/>
					<path class="st28" d="M1299.3,357.2c0,0.9,0.6,1.2,1.4,0.8c0.8-0.4,1.4-1.5,1.4-2.4s-0.6-1.2-1.4-0.8
						C1299.9,355.3,1299.3,356.3,1299.3,357.2z"/>
					<path class="st28" d="M1296.5,358.8c0,0.9,0.6,1.2,1.4,0.8c0.8-0.4,1.4-1.5,1.4-2.4c0-0.9-0.6-1.2-1.4-0.8
						C1297.1,356.9,1296.5,357.9,1296.5,358.8z"/>
					<path class="st28" d="M1293.8,360.3c0,0.9,0.6,1.2,1.4,0.8c0.8-0.4,1.4-1.5,1.4-2.4c0-0.9-0.6-1.2-1.4-0.8
						C1294.4,358.4,1293.8,359.5,1293.8,360.3z"/>
					<path class="st28" d="M1291.1,361.9c0,0.9,0.6,1.2,1.4,0.8c0.8-0.4,1.4-1.5,1.4-2.4s-0.6-1.2-1.4-0.8
						C1291.7,360,1291.1,361.1,1291.1,361.9z"/>
					<path class="st28" d="M1288.3,363.5c0,0.9,0.6,1.2,1.4,0.8c0.8-0.4,1.4-1.5,1.4-2.4c0-0.9-0.6-1.2-1.4-0.8
						C1288.9,361.6,1288.3,362.7,1288.3,363.5z"/>
					<path class="st28" d="M1285.6,365.1c0,0.9,0.6,1.2,1.4,0.8c0.8-0.4,1.4-1.5,1.4-2.4c0-0.9-0.6-1.2-1.4-0.8
						C1286.2,363.2,1285.6,364.2,1285.6,365.1z"/>
					<path class="st28" d="M1282.9,366.7c0,0.9,0.6,1.2,1.4,0.8c0.8-0.4,1.4-1.5,1.4-2.4c0-0.9-0.6-1.2-1.4-0.8
						C1283.5,364.7,1282.9,365.8,1282.9,366.7z"/>
				</g>
				<polygon class="st28" points="1301.6,339.1 1303.1,338 1285.9,348.3 				"/>
				<polygon class="st28" points="1272.8,355.6 1280.5,360 1282.9,366.7 1272.8,360.9 				"/>
			</g>
			<polygon class="st11" points="1282.9,366.7 1280.4,360 1283.2,358.3 1285.7,365.1 			"/>
			<polygon class="st29" points="1285.6,365.1 1283.1,358.4 1286,356.7 1288.4,363.5 			"/>
			<polygon class="st11" points="1288.3,363.5 1285.9,356.8 1288.7,355.2 1291.1,361.9 			"/>
			<polygon class="st29" points="1291.1,361.9 1288.6,355.2 1291.4,353.6 1293.9,360.3 			"/>
			<polygon class="st11" points="1293.8,360.3 1291.3,353.6 1294.2,352 1296.6,358.7 			"/>
			<polygon class="st29" points="1296.5,358.8 1294.1,352 1296.9,350.4 1299.3,357.1 			"/>
			<polygon class="st11" points="1299.3,357.2 1296.8,350.4 1299.6,348.8 1302.1,355.5 			"/>
			<polygon class="st29" points="1302,355.6 1299.5,348.8 1302.4,347.2 1304.8,354 			"/>
			<polygon class="st11" points="1304.7,354 1302.3,347.3 1305.1,345.6 1307.5,352.4 			"/>
			<polygon class="st29" points="1307.5,352.4 1305,345.7 1307.8,344 1310.2,350.8 			"/>
			<g>
				<polygon class="st11" points="1283.2,358.3 1280.4,360 1272.8,355.6 1275.6,354 1275.6,353.9 1283.2,358.3 				"/>
				<polygon class="st30" points="1286,356.7 1283.2,358.3 1283.1,358.4 1275.6,354 1275.6,353.9 1278.3,352.4 1278.4,352.3 
					1286,356.7 				"/>
				<polygon class="st11" points="1288.7,355.2 1286,356.7 1285.9,356.8 1278.3,352.4 1278.4,352.3 1281,350.8 1281.1,350.8 
					1288.7,355.1 				"/>
				<polygon class="st30" points="1291.4,353.6 1288.7,355.1 1288.6,355.2 1281,350.8 1281.1,350.8 1283.8,349.2 1283.9,349.2 
					1291.4,353.6 				"/>
				<polygon class="st11" points="1294.2,352 1291.4,353.6 1291.3,353.6 1283.8,349.2 1283.9,349.2 1286.5,347.6 1286.6,347.6 
					1294.2,352 				"/>
				<polygon class="st30" points="1296.9,350.4 1294.2,352 1294.1,352 1286.5,347.6 1286.6,347.6 1289.3,346.1 1289.3,346 
					1296.9,350.4 				"/>
				<polygon class="st11" points="1299.6,348.8 1296.9,350.4 1296.8,350.4 1289.3,346.1 1289.3,346 1292,344.5 1292.1,344.4 
					1299.6,348.8 				"/>
				<polygon class="st30" points="1302.4,347.2 1299.6,348.8 1299.5,348.8 1292,344.5 1292.1,344.4 1294.8,342.9 1294.8,342.8 
					1302.4,347.2 				"/>
				<polygon class="st11" points="1305.1,345.6 1302.4,347.2 1302.3,347.3 1294.8,342.9 1294.8,342.8 1297.5,341.3 1297.6,341.3 
					1305.1,345.6 				"/>
				<polygon class="st30" points="1307.8,344 1305.1,345.6 1305,345.7 1297.5,341.3 1297.6,341.3 1300.2,339.7 1300.3,339.7 
					1307.8,344 				"/>
				<polygon class="st11" points="1310.6,342.4 1307.8,344 1307.7,344.1 1300.2,339.7 1300.3,339.7 1303.1,338.1 				"/>
			</g>
			<polygon class="st11" points="1310.2,350.8 1307.7,344.1 1310.6,342.4 1313,349.2 			"/>
		</g>
		<g>
			<polygon class="st10" points="1201.4,218.9 1176.4,233.4 1161.1,224.5 1186.1,210.1 			"/>
			<polygon class="st5" points="1169.8,213.9 1180.2,219.9 1201.8,207.4 1191.4,201.4 			"/>
			<polygon class="st14" points="1170.4,213.9 1191.4,201.8 1201.2,207.4 1180.2,219.5 			"/>
			<polygon class="st23" points="1201.8,207.4 1201.8,218.7 1180.2,231.2 1180.2,219.9 			"/>
			<polygon class="st16" points="1180.2,219.9 1180.2,231.2 1169.8,225.2 1169.8,213.9 			"/>
			<polygon class="st5" points="1193.6,223.5 1191.3,224.8 1191.3,220 1193.6,218.7 			"/>
		</g>
		<g>
			<g>
				<g>
					<path class="st28" d="M1277.2,370.9L1277.2,370.9c0,0.9,0.6,1.2,1.4,0.8c0.7-0.4,1.3-1.3,1.4-2.1c0-0.1,0.1-0.4,0.1-0.4
						c-0.2-0.2-1-0.9-1.4-0.6C1277.8,369,1277.2,370.1,1277.2,370.9z"/>
					<path class="st28" d="M1274.5,372.5c0,0.9,0.6,1.2,1.4,0.8c0.8-0.4,1.4-1.5,1.4-2.4c0-0.9-0.6-1.2-1.4-0.8
						C1275.1,370.6,1274.5,371.7,1274.5,372.5z"/>
					<path class="st28" d="M1271.7,374.1c0,0.9,0.6,1.2,1.4,0.8c0.8-0.4,1.4-1.5,1.4-2.4c0-0.9-0.6-1.2-1.4-0.8
						C1272.4,372.1,1271.7,373.2,1271.7,374.1z"/>
					<path class="st28" d="M1269,375.6c0,0.9,0.6,1.2,1.4,0.8c0.8-0.4,1.4-1.5,1.4-2.4c0-0.9-0.6-1.2-1.4-0.8
						C1269.6,373.7,1269,374.8,1269,375.6z"/>
					<path class="st28" d="M1266.3,377.2c0,0.9,0.6,1.2,1.4,0.8c0.8-0.4,1.4-1.5,1.4-2.4s-0.6-1.2-1.4-0.8
						C1266.9,375.3,1266.3,376.3,1266.3,377.2z"/>
					<path class="st28" d="M1263.5,378.8c0,0.9,0.6,1.2,1.4,0.8c0.8-0.4,1.4-1.5,1.4-2.4c0-0.9-0.6-1.2-1.4-0.8
						C1264.2,376.9,1263.5,377.9,1263.5,378.8z"/>
					<path class="st28" d="M1260.8,380.4c0,0.9,0.6,1.2,1.4,0.8c0.8-0.4,1.4-1.5,1.4-2.4c0-0.9-0.6-1.2-1.4-0.8
						C1261.4,378.4,1260.8,379.5,1260.8,380.4z"/>
					<path class="st28" d="M1258.1,381.9c0,0.9,0.6,1.2,1.4,0.8c0.8-0.4,1.4-1.5,1.4-2.4s-0.6-1.2-1.4-0.8
						C1258.7,380,1258.1,381.1,1258.1,381.9z"/>
					<path class="st28" d="M1255.3,383.6c0,0.9,0.6,1.2,1.4,0.8c0.8-0.4,1.4-1.5,1.4-2.4c0-0.9-0.6-1.2-1.4-0.8
						C1256,381.6,1255.3,382.7,1255.3,383.6z"/>
					<path class="st28" d="M1252.6,385.1c0,0.9,0.6,1.2,1.4,0.8c0.8-0.4,1.4-1.5,1.4-2.4c0-0.9-0.6-1.2-1.4-0.8
						C1253.2,383.2,1252.6,384.2,1252.6,385.1z"/>
					<path class="st28" d="M1249.9,386.7c0,0.9,0.6,1.2,1.4,0.8c0.8-0.4,1.4-1.5,1.4-2.4c0-0.9-0.6-1.2-1.4-0.8
						C1250.5,384.8,1249.9,385.8,1249.9,386.7z"/>
				</g>
				<polygon class="st28" points="1268.6,359.1 1270.1,358 1252.9,368.3 				"/>
				<polygon class="st28" points="1239.8,375.6 1247.5,380 1249.9,386.7 1239.8,380.9 				"/>
			</g>
			<polygon class="st11" points="1249.9,386.7 1247.4,380 1250.2,378.3 1252.7,385.1 			"/>
			<polygon class="st29" points="1252.6,385.1 1250.2,378.4 1253,376.7 1255.4,383.5 			"/>
			<polygon class="st11" points="1255.3,383.5 1252.9,376.8 1255.7,375.2 1258.1,381.9 			"/>
			<polygon class="st29" points="1258.1,381.9 1255.6,375.2 1258.5,373.6 1260.9,380.3 			"/>
			<polygon class="st11" points="1260.8,380.4 1258.4,373.6 1261.2,372 1263.6,378.7 			"/>
			<polygon class="st29" points="1263.5,378.8 1261.1,372 1263.9,370.4 1266.3,377.1 			"/>
			<polygon class="st11" points="1266.3,377.2 1263.8,370.4 1266.7,368.8 1269.1,375.6 			"/>
			<polygon class="st29" points="1269,375.6 1266.6,368.8 1269.4,367.2 1271.8,374 			"/>
			<polygon class="st11" points="1271.7,374 1269.3,367.3 1272.1,365.6 1274.5,372.4 			"/>
			<polygon class="st29" points="1274.5,372.4 1272,365.7 1274.9,364 1277.3,370.8 			"/>
			<g>
				<polygon class="st11" points="1250.2,378.3 1247.4,380 1239.8,375.6 1242.6,374 1242.6,373.9 1250.2,378.3 				"/>
				<polygon class="st30" points="1253,376.7 1250.2,378.3 1250.2,378.4 1242.6,374 1242.6,373.9 1245.3,372.4 1245.4,372.4 
					1253,376.7 				"/>
				<polygon class="st11" points="1255.7,375.2 1253,376.7 1252.9,376.8 1245.3,372.4 1245.4,372.4 1248.1,370.8 1248.1,370.8 
					1255.7,375.2 				"/>
				<polygon class="st30" points="1258.5,373.6 1255.7,375.2 1255.6,375.2 1248.1,370.8 1248.1,370.8 1250.8,369.2 1250.9,369.2 
					1258.4,373.6 				"/>
				<polygon class="st11" points="1261.2,372 1258.4,373.6 1258.4,373.6 1250.8,369.2 1250.9,369.2 1253.5,367.6 1253.6,367.6 
					1261.2,372 				"/>
				<polygon class="st30" points="1263.9,370.4 1261.2,372 1261.1,372 1253.5,367.6 1253.6,367.6 1256.3,366.1 1256.3,366 
					1263.9,370.4 				"/>
				<polygon class="st11" points="1266.7,368.8 1263.9,370.4 1263.8,370.4 1256.3,366.1 1256.3,366 1259,364.5 1259.1,364.4 
					1266.6,368.8 				"/>
				<polygon class="st30" points="1269.4,367.2 1266.6,368.8 1266.6,368.8 1259,364.5 1259.1,364.4 1261.8,362.9 1261.8,362.9 
					1269.4,367.2 				"/>
				<polygon class="st11" points="1272.1,365.6 1269.4,367.2 1269.3,367.3 1261.8,362.9 1261.8,362.9 1264.5,361.3 1264.6,361.3 
					1272.1,365.6 				"/>
				<polygon class="st30" points="1274.9,364 1272.1,365.6 1272,365.7 1264.5,361.3 1264.6,361.3 1267.3,359.7 1267.3,359.7 
					1274.8,364 				"/>
				<polygon class="st11" points="1277.6,362.4 1274.8,364 1274.8,364.1 1267.3,359.7 1267.3,359.7 1270.1,358.1 				"/>
			</g>
			<polygon class="st11" points="1277.2,370.8 1274.7,364.1 1277.6,362.4 1280,369.2 			"/>
		</g>
		<g>
			<g>
				<g>
					<path class="st28" d="M1242.3,391.1L1242.3,391.1c0,0.9,0.6,1.2,1.4,0.8c0.7-0.4,1.3-1.3,1.4-2.1c0-0.1,0.1-0.4,0.1-0.4
						c-0.2-0.2-1-0.9-1.4-0.6C1243,389.1,1242.3,390.2,1242.3,391.1z"/>
					<path class="st28" d="M1239.6,392.7c0,0.9,0.6,1.2,1.4,0.8c0.8-0.4,1.4-1.5,1.4-2.4c0-0.9-0.6-1.2-1.4-0.8
						C1240.2,390.7,1239.6,391.8,1239.6,392.7z"/>
					<path class="st28" d="M1236.9,394.2c0,0.9,0.6,1.2,1.4,0.8c0.8-0.4,1.4-1.5,1.4-2.4c0-0.9-0.6-1.2-1.4-0.8
						C1237.5,392.3,1236.9,393.3,1236.9,394.2z"/>
					<path class="st28" d="M1234.2,395.7c0,0.9,0.6,1.2,1.4,0.8c0.8-0.4,1.4-1.5,1.4-2.4c0-0.9-0.6-1.2-1.4-0.8
						C1234.8,393.8,1234.2,394.9,1234.2,395.7z"/>
					<path class="st28" d="M1231.4,397.3c0,0.9,0.6,1.2,1.4,0.8c0.8-0.4,1.4-1.5,1.4-2.4s-0.6-1.2-1.4-0.8
						C1232,395.4,1231.4,396.4,1231.4,397.3z"/>
					<path class="st28" d="M1228.7,398.9c0,0.9,0.6,1.2,1.4,0.8c0.8-0.4,1.4-1.5,1.4-2.4c0-0.9-0.6-1.2-1.4-0.8
						C1229.3,397,1228.7,398.1,1228.7,398.9z"/>
					<path class="st28" d="M1226,400.5c0,0.9,0.6,1.2,1.4,0.8c0.8-0.4,1.4-1.5,1.4-2.4c0-0.9-0.6-1.2-1.4-0.8
						C1226.6,398.5,1226,399.6,1226,400.5z"/>
					<path class="st28" d="M1223.2,402c0,0.9,0.6,1.2,1.4,0.8c0.8-0.4,1.4-1.5,1.4-2.4s-0.6-1.2-1.4-0.8
						C1223.8,400.1,1223.2,401.2,1223.2,402z"/>
					<path class="st28" d="M1220.5,403.7c0,0.9,0.6,1.2,1.4,0.8c0.8-0.4,1.4-1.5,1.4-2.4c0-0.9-0.6-1.2-1.4-0.8
						C1221.1,401.7,1220.5,402.8,1220.5,403.7z"/>
					<path class="st28" d="M1217.8,405.2c0,0.9,0.6,1.2,1.4,0.8c0.8-0.4,1.4-1.5,1.4-2.4c0-0.9-0.6-1.2-1.4-0.8
						C1218.4,403.3,1217.8,404.4,1217.8,405.2z"/>
					<path class="st28" d="M1215,406.8c0,0.9,0.6,1.2,1.4,0.8c0.8-0.4,1.4-1.5,1.4-2.4c0-0.9-0.6-1.2-1.4-0.8
						C1215.6,404.9,1215,405.9,1215,406.8z"/>
				</g>
				<polygon class="st28" points="1233.8,379.2 1235.3,378.1 1218,388.4 				"/>
				<polygon class="st28" points="1205,395.7 1212.6,400.1 1215,406.8 1205,401 				"/>
			</g>
			<polygon class="st11" points="1215,406.8 1212.6,400.1 1215.4,398.4 1217.8,405.2 			"/>
			<polygon class="st29" points="1217.8,405.2 1215.3,398.5 1218.1,396.9 1220.5,403.6 			"/>
			<polygon class="st11" points="1220.5,403.6 1218,396.9 1220.9,395.3 1223.3,402 			"/>
			<polygon class="st29" points="1223.2,402.1 1220.8,395.3 1223.6,393.7 1226,400.4 			"/>
			<polygon class="st11" points="1226,400.5 1223.5,393.7 1226.3,392.1 1228.7,398.8 			"/>
			<polygon class="st29" points="1228.7,398.9 1226.2,392.1 1229.1,390.5 1231.5,397.3 			"/>
			<polygon class="st11" points="1231.4,397.3 1229,390.5 1231.8,388.9 1234.2,395.7 			"/>
			<polygon class="st29" points="1234.2,395.7 1231.7,389 1234.5,387.3 1237,394.1 			"/>
			<polygon class="st11" points="1236.9,394.1 1234.4,387.4 1237.3,385.7 1239.7,392.5 			"/>
			<polygon class="st29" points="1239.6,392.5 1237.2,385.8 1240,384.1 1242.4,390.9 			"/>
			<g>
				<polygon class="st11" points="1215.4,398.4 1212.6,400.1 1205,395.7 1207.7,394.1 1207.8,394.1 1215.4,398.4 				"/>
				<polygon class="st30" points="1218.1,396.9 1215.4,398.4 1215.3,398.5 1207.7,394.1 1207.8,394.1 1210.5,392.5 1210.5,392.5 
					1218.1,396.9 				"/>
				<polygon class="st11" points="1220.9,395.3 1218.1,396.9 1218,396.9 1210.5,392.5 1210.5,392.5 1213.2,390.9 1213.3,390.9 
					1220.9,395.3 				"/>
				<polygon class="st30" points="1223.6,393.7 1220.9,395.3 1220.8,395.3 1213.2,390.9 1213.3,390.9 1215.9,389.3 1216,389.3 
					1223.6,393.7 				"/>
				<polygon class="st11" points="1226.3,392.1 1223.6,393.7 1223.5,393.7 1215.9,389.3 1216,389.3 1218.7,387.8 1218.8,387.7 
					1226.3,392.1 				"/>
				<polygon class="st30" points="1229.1,390.5 1226.3,392.1 1226.2,392.1 1218.7,387.8 1218.8,387.7 1221.4,386.2 1221.5,386.1 
					1229.1,390.5 				"/>
				<polygon class="st11" points="1231.8,388.9 1229.1,390.5 1229,390.5 1221.4,386.2 1221.5,386.1 1224.2,384.6 1224.3,384.6 
					1231.8,388.9 				"/>
				<polygon class="st30" points="1234.5,387.3 1231.8,388.9 1231.7,389 1224.2,384.6 1224.3,384.6 1226.9,383 1227,383 
					1234.5,387.3 				"/>
				<polygon class="st11" points="1237.3,385.7 1234.5,387.3 1234.4,387.4 1226.9,383 1227,383 1229.7,381.4 1229.7,381.4 
					1237.3,385.7 				"/>
				<polygon class="st30" points="1240,384.1 1237.3,385.7 1237.2,385.8 1229.7,381.4 1229.7,381.4 1232.4,379.8 1232.5,379.8 
					1240,384.1 				"/>
				<polygon class="st11" points="1242.7,382.6 1240,384.1 1239.9,384.2 1232.4,379.8 1232.5,379.8 1235.2,378.2 				"/>
			</g>
			<polygon class="st11" points="1242.4,390.9 1239.9,384.2 1242.7,382.6 1245.1,389.3 			"/>
		</g>
		<g>
			<polyline class="st9" points="1213.6,257.5 1213.6,269.6 1206.5,273.5 			"/>
			<polyline class="st9" points="1213.5,277.3 1213.5,289.5 1206.5,293.6 			"/>
			<polyline class="st9" points="1213.5,297.4 1213.5,309.6 1206.5,313.6 			"/>
			<polyline class="st9" points="1231,247.2 1231,259.4 1223.9,263.5 			"/>
			<polyline class="st9" points="1231,267.3 1231,279.5 1223.9,283.5 			"/>
			<polyline class="st9" points="1248.4,237.2 1248.4,249.4 1241.4,253.5 			"/>
			<polyline class="st9" points="1248.4,257.2 1248.4,269.4 1241.4,273.5 			"/>
			<polyline class="st9" points="1265.9,227.2 1265.9,239.4 1258.9,243.4 			"/>
			<polyline class="st9" points="1265.9,247.2 1265.9,259.4 1258.9,263.5 			"/>
			<polyline class="st9" points="1283.4,217.1 1283.4,229.3 1276.4,233.4 			"/>
			<polyline class="st9" points="1300.9,207.1 1300.9,219.3 1293.8,223.4 			"/>
			<polyline class="st9" points="1300.9,227.2 1300.9,239.4 1293.8,243.4 			"/>
			<polyline class="st9" points="1283.4,237.2 1283.4,249.4 1276.4,253.4 			"/>
			<polyline class="st9" points="1300.9,247.2 1300.9,259.4 1293.8,263.5 			"/>
			<polyline class="st9" points="1283.4,257.2 1283.4,269.4 1276.4,273.5 			"/>
			<polyline class="st9" points="1265.9,267.3 1265.9,279.5 1258.9,283.5 			"/>
			<polyline class="st9" points="1248.4,277.3 1248.4,289.5 1241.4,293.6 			"/>
			<polyline class="st9" points="1231,287.3 1231,299.5 1223.9,303.6 			"/>
			<polyline class="st9" points="1213.5,317.4 1213.5,329.6 1206.5,333.7 			"/>
			<polyline class="st9" points="1213.5,337.5 1213.5,349.7 1206.5,353.7 			"/>
			<polyline class="st9" points="1213.5,357.5 1213.5,369.7 1206.5,373.8 			"/>
			<polyline class="st9" points="1223.9,363.7 1231,359.7 1231,347.5 			"/>
			<polyline class="st9" points="1223.9,343.7 1231,339.6 1231,327.4 			"/>
			<polyline class="st9" points="1223.9,323.6 1231,319.6 1231,307.4 			"/>
			<polyline class="st9" points="1248.4,297.4 1248.4,309.5 1241.4,313.6 			"/>
			<polyline class="st9" points="1248.4,317.4 1248.4,329.6 1241.4,333.7 			"/>
			<polyline class="st9" points="1248.4,337.5 1248.4,349.6 1241.4,353.7 			"/>
			<polyline class="st9" points="1258.9,343.7 1265.9,339.6 1265.9,327.4 			"/>
			<polyline class="st9" points="1265.9,307.4 1265.9,319.6 1258.9,323.6 			"/>
			<polyline class="st9" points="1265.9,287.3 1265.9,299.5 1258.9,303.6 			"/>
			<polyline class="st9" points="1283.4,277.3 1283.4,289.5 1276.4,293.6 			"/>
			<polyline class="st9" points="1283.4,297.3 1283.4,309.5 1276.4,313.6 			"/>
			<polyline class="st9" points="1283.4,317.4 1283.4,329.6 1276.4,333.7 			"/>
			<polyline class="st9" points="1300.9,307.4 1300.9,319.6 1293.8,323.6 			"/>
			<polyline class="st9" points="1300.9,287.3 1300.9,299.5 1293.8,303.6 			"/>
			<polyline class="st9" points="1300.9,267.3 1300.9,279.5 1293.8,283.5 			"/>
		</g>
		<polyline class="st31" points="1158.8,255.1 1158.8,267.3 1165.8,271.3 		"/>
		<polyline class="st31" points="1158.8,275.1 1158.8,287.3 1165.8,291.4 		"/>
		<polyline class="st31" points="1141.3,265.1 1141.3,277.3 1148.4,281.4 		"/>
		<polyline class="st31" points="1141.3,245.1 1141.3,257.2 1148.4,261.3 		"/>
		<polyline class="st31" points="1141.3,285.2 1141.3,297.3 1148.4,301.4 		"/>
		<polyline class="st31" points="1141.3,305.2 1141.3,317.4 1148.4,321.5 		"/>
		<polyline class="st31" points="1141.3,325.3 1141.3,337.5 1148.4,341.5 		"/>
		<polyline class="st31" points="1165.8,331.5 1158.8,327.4 1158.8,315.2 		"/>
		<polyline class="st31" points="1165.8,311.4 1158.8,307.4 1158.8,295.2 		"/>
		<polyline class="st31" points="1158.8,335.3 1158.8,347.5 1165.8,351.6 		"/>
		<polyline class="st31" points="1158.8,355.3 1158.8,367.5 1165.8,371.6 		"/>
		<polyline class="st31" points="1141.3,345.3 1141.3,357.5 1148.4,361.6 		"/>
		<polygon class="st5" points="1124.5,250.1 1131.6,254.1 1131.6,242 1124.5,237.9 		"/>
		<polygon class="st5" points="1124.5,270.1 1131.6,274.2 1131.6,262 1124.5,257.9 		"/>
		<polygon class="st5" points="1124.5,290.2 1131.6,294.3 1131.6,282.1 1124.5,278 		"/>
		<polygon class="st5" points="1124.5,310.2 1131.6,314.3 1131.6,302.1 1124.5,298 		"/>
		<polygon class="st5" points="1124.5,330.3 1131.6,334.4 1131.6,322.2 1124.5,318.1 		"/>
		<polygon class="st5" points="1124.5,350.3 1131.6,354.4 1131.6,342.2 1124.5,338.2 		"/>
		<polyline class="st31" points="1124.5,257.9 1124.5,270.1 1131.6,274.2 		"/>
		<polyline class="st31" points="1124.5,237.9 1124.5,250.1 1131.6,254.1 		"/>
		<polyline class="st31" points="1124.5,278 1124.5,290.2 1131.6,294.3 		"/>
		<polyline class="st31" points="1124.5,298 1124.5,310.2 1131.6,314.3 		"/>
		<polyline class="st31" points="1124.5,318.1 1124.5,330.3 1131.6,334.4 		"/>
		<polyline class="st31" points="1124.5,338.2 1124.5,350.3 1131.6,354.4 		"/>
	</g>
	<g class="st3">
		<polygon class="st10" points="1086.8,503.8 1058.5,502.7 974.8,454.5 1028.2,425.3 1086.6,424.6 1086.8,503.8 		"/>
		<polygon class="st18" points="1159,462.2 1087,503.3 1087.1,385.6 1125.5,323.1 1159.2,346.5 		"/>
		<g>
			<polygon class="st23" points="1087.1,385.6 1015.1,345.9 1015,462.1 1087,503.3 			"/>
		</g>
		<polygon class="st4" points="1126.4,321.6 1162,348 1159.2,347.5 1125.5,323.1 		"/>
		<g>
			<polygon class="st11" points="1011.9,350.4 1084.5,390.5 1084.5,384.9 1011.9,344.8 			"/>
			<polygon class="st11" points="1084.5,384.9 1011.9,344.8 1050.7,279.1 1125.2,316.1 			"/>
			<polygon class="st11" points="1081.8,383.5 1084.5,384.9 1125,316.5 1122.4,314.7 			"/>
			<polygon class="st11" points="1076.3,380.5 1079,382 1119.7,313.4 1116.8,312 			"/>
			<polygon class="st11" points="1071,377.5 1073.7,379 1114.1,310.6 1111.3,309.2 			"/>
			<polygon class="st11" points="1065.5,374.5 1068.2,376 1108.6,307.8 1105.8,306.4 			"/>
			<polygon class="st11" points="1060.1,371.5 1062.8,373 1103,305.1 1100.2,303.7 			"/>
			<polygon class="st11" points="1054.7,368.5 1057.4,370 1097.4,302.3 1094.6,300.9 			"/>
			<polygon class="st11" points="1049.3,365.5 1052,367 1091.9,299.6 1089.1,298.2 			"/>
			<polygon class="st11" points="1043.9,362.6 1046.6,364 1086.3,296.8 1083.5,295.4 			"/>
			<polygon class="st11" points="1038.4,359.5 1041.1,361 1080.8,294 1078,292.6 			"/>
			<polygon class="st11" points="1033,356.6 1035.7,358.1 1075.2,291.3 1072.4,289.9 			"/>
			<polygon class="st11" points="1027.6,353.5 1030.3,355 1069.7,288.5 1066.9,287.1 			"/>
			<polygon class="st11" points="1022.2,350.6 1024.9,352.1 1064.1,285.8 1061.3,284.4 			"/>
			<polygon class="st11" points="1016.8,347.6 1019.5,349.1 1058.5,283 1055.7,281.6 			"/>
			<polygon class="st11" points="1011.9,344.8 1014.3,346.1 1053.2,280.3 1050.7,279.1 			"/>
		</g>
		<polygon class="st16" points="1047.9,283.9 1122.3,321 1125.3,315.9 1050.8,279 		"/>
		<polygon class="st4" points="1162,343.8 1125.3,315.9 1084.5,384.9 1084.5,390.5 1126.4,321.6 1162,348 		"/>
		<polygon class="st14" points="1108.5,414 1095.5,421.6 1095.5,399 1108.5,391.4 		"/>
		<polyline class="st9" points="1108.5,391.4 1108.5,414 1095.5,421.6 		"/>
		<polygon class="st14" points="1131.7,400.2 1118.7,407.8 1118.7,385.2 1131.7,377.6 		"/>
		<polyline class="st9" points="1131.7,377.6 1131.7,400.2 1118.7,407.8 		"/>
		<polygon class="st14" points="1128.5,365.8 1118.7,371.5 1118.7,354.5 1128.5,348.9 		"/>
		<polyline class="st9" points="1128.5,348.9 1128.5,365.8 1118.7,371.5 		"/>
		<polygon class="st14" points="1155,387.2 1141.9,394.7 1141.9,372.1 1155,364.6 		"/>
		<polyline class="st9" points="1155,364.6 1155,387.2 1141.9,394.7 		"/>
		<polygon class="st14" points="1108.5,442.3 1095.5,449.9 1095.5,427.3 1108.5,419.7 		"/>
		<polyline class="st9" points="1108.5,419.7 1108.5,442.3 1095.5,449.9 		"/>
		<polygon class="st14" points="1131.7,428.5 1118.7,436.1 1118.7,413.5 1131.7,405.9 		"/>
		<polyline class="st9" points="1131.7,405.9 1131.7,428.5 1118.7,436.1 		"/>
		<polygon class="st14" points="1155,415.5 1141.9,423 1141.9,400.4 1155,392.9 		"/>
		<polyline class="st9" points="1155,392.9 1155,415.5 1141.9,423 		"/>
		<polygon class="st14" points="1108.5,471.4 1095.5,478.9 1095.5,456.3 1108.5,448.8 		"/>
		<polyline class="st9" points="1108.5,448.8 1108.5,471.4 1095.5,478.9 		"/>
		<polygon class="st14" points="1131.7,457.6 1118.7,465.1 1118.7,442.5 1131.7,435 		"/>
		<polyline class="st9" points="1131.7,435 1131.7,457.6 1118.7,465.1 		"/>
		<polygon class="st14" points="1155,444.5 1141.9,452 1141.9,429.5 1155,421.9 		"/>
		<polyline class="st9" points="1155,421.9 1155,444.5 1141.9,452 		"/>
		<polygon class="st5" points="1021.8,391.7 1034.5,399.1 1034.5,377.1 1021.8,369.7 		"/>
		<polyline class="st9" points="1034.5,399.1 1021.8,391.7 1021.8,369.7 		"/>
		<polygon class="st5" points="1043.9,404.1 1056.6,411.4 1056.6,389.4 1043.9,382.1 		"/>
		<polyline class="st9" points="1056.6,411.4 1043.9,404.1 1043.9,382.1 		"/>
		<polygon class="st5" points="1021.8,421.9 1034.5,429.2 1034.5,407.2 1021.8,399.9 		"/>
		<polyline class="st9" points="1034.5,429.2 1021.8,421.9 1021.8,399.9 		"/>
		<polygon class="st5" points="1043.9,434.2 1056.6,441.6 1056.6,419.6 1043.9,412.2 		"/>
		<polyline class="st9" points="1056.6,441.6 1043.9,434.2 1043.9,412.2 		"/>
		<polygon class="st5" points="1067.9,417 1080.6,424.3 1080.6,402.3 1067.9,395 		"/>
		<polyline class="st9" points="1080.6,424.3 1067.9,417 1067.9,395 		"/>
		<polygon class="st5" points="1067.9,447.2 1080.6,454.5 1080.6,432.5 1067.9,425.2 		"/>
		<polyline class="st9" points="1080.6,454.5 1067.9,447.2 1067.9,425.2 		"/>
		<polygon class="st5" points="1021.8,450.2 1034.5,457.5 1034.5,435.5 1021.8,428.2 		"/>
		<polyline class="st9" points="1034.5,457.5 1021.8,450.2 1021.8,428.2 		"/>
		<polygon class="st5" points="1043.9,462.6 1056.6,469.9 1056.6,447.9 1043.9,440.6 		"/>
		<polyline class="st9" points="1056.6,469.9 1043.9,462.6 1043.9,440.6 		"/>
		<polygon class="st5" points="1067.9,475.5 1080.6,482.9 1080.6,460.9 1067.9,453.6 		"/>
		<polyline class="st9" points="1080.6,482.9 1067.9,475.5 1067.9,453.6 		"/>
	</g>
	<g class="st3">
		<g id="XMLID_494_">
			<g id="XMLID_832_">
				<polygon id="XMLID_844_" class="st32" points="1574.7,518.8 1485,467 1584.8,409.4 1674.5,461.2 				"/>
				<g id="XMLID_842_">
					<path id="XMLID_843_" class="st33" d="M1585.4,416.7l-30.3,17.5l33.5,19.4l-2.7,1.5c5.6,3.5,5.4,9-0.5,12.4
						c-5.9,3.4-15.4,3.5-21.5,0.3l-2.7,1.5l-33.5-19.4l-30.3,17.5l82.4,47.6l87.8-50.7L1585.4,416.7z"/>
				</g>
				<path id="XMLID_839_" class="st11" d="M1594.9,506l-19.8-11.4l57.4-33.1l19.8,11.4h1.5l-67.3-38.9l-58.9,34l67.3,38.9V506z
					 M1574.4,494.2l-45.3-26.1l57.4-33.1l45.3,26.1L1574.4,494.2z"/>
				<path id="XMLID_833_" class="st18" d="M1585.4,415.8l-31,17.9l-0.7,0.4l33.5,19.4l-1.7,1l-22.5,13l-1.7,1l-33.5-19.4l-0.7,0.4
					l-31,17.9l83.9,48.4l33.4-19.3l0.7-0.4l21-12.1l0.7-0.4l33.4-19.3L1585.4,415.8z M1585.5,455.3c5.4,3.4,5.3,8.6-0.4,11.9
					c-5.7,3.3-14.8,3.3-20.7,0.2L1585.5,455.3z M1497.6,467.4l30.3-17.5l33.5,19.4l2.4-1.4c6.2,3.4,16.1,3.3,22.1-0.2
					c6.1-3.5,6.2-9.2,0.4-12.8l2.4-1.4l-33.5-19.4l30.3-17.5l16,9.2c14.7,14.5,10.6,33-10.1,44.9c-20.6,11.9-52.6,14.3-77.8,5.8
					L1497.6,467.4z M1580,514.9l-63.8-36.8c25,7.4,55.8,4.7,75.9-6.9c20.1-11.6,24.8-29.3,12-43.8l63.8,36.8l-32.7,18.9
					c0,0-0.1,0-0.1-0.1c-0.1-0.1-0.2-0.1-0.3-0.2c-0.1-0.1-0.2-0.1-0.3-0.2c-0.1,0-0.2-0.1-0.3-0.1c-0.1,0-0.2-0.1-0.3-0.1
					c-0.1,0-0.2-0.1-0.3-0.1c-0.1,0-0.2-0.1-0.3-0.1c-0.1,0-0.2-0.1-0.3-0.1c-0.1,0-0.2-0.1-0.3-0.1c-0.1,0-0.2-0.1-0.3-0.1
					c-0.1,0-0.2-0.1-0.3-0.1c-0.1,0-0.2-0.1-0.3-0.1c-0.1,0-0.2-0.1-0.4-0.1c-0.1,0-0.2-0.1-0.3-0.1c-0.1,0-0.2-0.1-0.4-0.1
					c-0.1,0-0.2-0.1-0.4-0.1c-0.1,0-0.2-0.1-0.4-0.1c-0.1,0-0.2,0-0.4-0.1c-0.1,0-0.2,0-0.4-0.1c-0.1,0-0.2,0-0.4-0.1
					c-0.1,0-0.2,0-0.4-0.1c-0.1,0-0.2,0-0.4-0.1c-0.1,0-0.2,0-0.4,0c-0.1,0-0.2,0-0.4,0c-0.1,0-0.2,0-0.4,0c-0.1,0-0.3,0-0.4,0
					c-0.1,0-0.2,0-0.4,0c-0.1,0-0.3,0-0.4,0c-0.1,0-0.3,0-0.4,0c-0.1,0-0.3,0-0.4,0c-0.1,0-0.3,0-0.4,0c-0.1,0-0.3,0-0.4,0
					c-0.1,0-0.3,0-0.4,0c-0.1,0-0.3,0-0.4,0c-0.1,0-0.3,0-0.4,0c-0.1,0-0.3,0-0.4,0c-0.1,0-0.3,0-0.4,0c-0.1,0-0.3,0-0.4,0
					c-0.1,0-0.3,0-0.4,0c-0.1,0-0.2,0-0.4,0c-0.1,0-0.2,0-0.4,0c-0.1,0-0.2,0-0.4,0c-0.1,0-0.2,0-0.4,0.1c-0.1,0-0.2,0-0.4,0.1
					c-0.1,0-0.2,0-0.4,0.1c-0.1,0-0.2,0-0.4,0.1c-0.1,0-0.2,0.1-0.4,0.1c-0.1,0-0.2,0.1-0.3,0.1c-0.1,0-0.2,0.1-0.4,0.1
					c-0.1,0-0.2,0.1-0.3,0.1c-0.1,0-0.2,0.1-0.4,0.1c-0.1,0-0.2,0.1-0.3,0.1c-0.1,0-0.2,0.1-0.4,0.1c-0.1,0-0.2,0.1-0.3,0.1
					c-0.1,0-0.2,0.1-0.4,0.1c-0.1,0-0.2,0.1-0.3,0.1c-0.1,0-0.2,0.1-0.4,0.1c-0.1,0-0.2,0.1-0.3,0.1c-0.1,0.1-0.2,0.1-0.4,0.2
					c-0.1,0-0.2,0.1-0.3,0.1c-0.1,0.1-0.3,0.1-0.4,0.2c-0.1,0-0.1,0.1-0.2,0.1c-0.2,0.1-0.4,0.2-0.6,0.3s-0.4,0.2-0.6,0.3
					c-0.1,0-0.1,0.1-0.2,0.1c-0.1,0.1-0.2,0.2-0.3,0.2c-0.1,0-0.1,0.1-0.2,0.1c-0.1,0.1-0.2,0.1-0.3,0.2c-0.1,0.1-0.1,0.1-0.2,0.2
					c-0.1,0.1-0.2,0.1-0.3,0.2c-0.1,0.1-0.1,0.1-0.2,0.2c-0.1,0.1-0.2,0.1-0.2,0.2c-0.1,0.1-0.1,0.1-0.2,0.2
					c-0.1,0.1-0.1,0.1-0.2,0.2c-0.1,0.1-0.1,0.1-0.2,0.2c-0.1,0.1-0.1,0.1-0.2,0.2c-0.1,0.1-0.1,0.1-0.1,0.2
					c-0.1,0.1-0.1,0.1-0.2,0.2c0,0.1-0.1,0.1-0.1,0.2c0,0.1-0.1,0.1-0.1,0.2c0,0.1-0.1,0.1-0.1,0.2c0,0.1-0.1,0.1-0.1,0.2
					c0,0.1-0.1,0.1-0.1,0.2c0,0.1-0.1,0.1-0.1,0.2c0,0.1-0.1,0.1-0.1,0.2c0,0.1-0.1,0.1-0.1,0.2c0,0.1,0,0.1-0.1,0.2
					c0,0.1,0,0.1-0.1,0.2c0,0.1,0,0.1,0,0.2c0,0.1,0,0.1,0,0.2c0,0.1,0,0.1,0,0.2c0,0.1,0,0.1,0,0.2c0,0.1,0,0.1,0,0.2
					c0,0.1,0,0.1,0,0.2c0,0.1,0,0.1,0,0.2c0,0.1,0,0.1,0,0.2c0,0.1,0,0.1,0,0.2c0,0.1,0,0.1,0,0.2c0,0.1,0,0.1,0,0.2
					c0,0.1,0,0.1,0,0.2c0,0.1,0,0.1,0.1,0.2c0,0.1,0,0.1,0.1,0.2c0,0.1,0,0.1,0.1,0.2c0,0.1,0.1,0.1,0.1,0.2c0,0.1,0.1,0.1,0.1,0.2
					c0,0.1,0.1,0.1,0.1,0.2c0,0.1,0.1,0.1,0.1,0.2c0,0.1,0.1,0.1,0.1,0.2c0,0.1,0.1,0.1,0.1,0.2c0,0.1,0.1,0.1,0.1,0.2
					c0,0.1,0.1,0.1,0.1,0.2c0,0.1,0.1,0.1,0.2,0.2c0.1,0.1,0.1,0.1,0.2,0.2c0.1,0.1,0.1,0.1,0.2,0.2c0.1,0.1,0.1,0.1,0.2,0.2
					c0.1,0.1,0.1,0.1,0.2,0.2c0.1,0.1,0.1,0.1,0.2,0.2c0.1,0.1,0.1,0.1,0.2,0.2c0.1,0.1,0.1,0.1,0.2,0.2c0.1,0.1,0.2,0.1,0.2,0.2
					c0.1,0.1,0.2,0.1,0.2,0.2c0.1,0.1,0.2,0.1,0.2,0.2c0.1,0.1,0.2,0.1,0.2,0.2c0.1,0.1,0.2,0.1,0.3,0.2c0.1,0.1,0.2,0.1,0.3,0.2
					c0,0,0.1,0,0.1,0.1L1580,514.9z M1613.3,495.6c-0.1-0.1-0.2-0.1-0.2-0.2c-0.1-0.1-0.2-0.1-0.3-0.2c-0.1-0.1-0.1-0.1-0.2-0.2
					c-0.1-0.1-0.2-0.1-0.2-0.2c-0.1-0.1-0.1-0.1-0.2-0.2c-0.1-0.1-0.1-0.1-0.2-0.2c-0.1-0.1-0.1-0.1-0.2-0.2
					c-0.1-0.1-0.1-0.1-0.2-0.2c-0.1-0.1-0.1-0.1-0.2-0.2c-0.1-0.1-0.1-0.1-0.2-0.2c-0.1-0.1-0.1-0.1-0.2-0.2
					c-0.1-0.1-0.1-0.1-0.2-0.2c0-0.1-0.1-0.1-0.1-0.2c-0.1-0.1-0.1-0.1-0.1-0.2c0-0.1-0.1-0.1-0.1-0.2c0-0.1-0.1-0.1-0.1-0.2
					c0-0.1-0.1-0.1-0.1-0.2c0-0.1-0.1-0.1-0.1-0.2c0-0.1-0.1-0.1-0.1-0.2c0-0.1-0.1-0.1-0.1-0.2c0-0.1-0.1-0.1-0.1-0.2
					c0-0.1-0.1-0.1-0.1-0.2c0-0.1,0-0.1-0.1-0.2c0-0.1,0-0.1-0.1-0.2c0-0.1,0-0.1,0-0.2c0-0.1,0-0.1,0-0.2c0-0.1,0-0.1,0-0.2
					c0-0.1,0-0.1,0-0.2c0-0.1,0-0.1,0-0.2c0-0.1,0-0.1,0-0.2c0-0.1,0-0.1,0-0.2c0-0.1,0-0.1,0-0.2c0-0.1,0-0.1,0-0.2
					c0-0.1,0-0.1,0-0.2c0-0.1,0-0.1,0-0.2c0-0.1,0-0.1,0-0.2c0-0.1,0-0.1,0-0.2c0-0.1,0-0.1,0.1-0.2c0-0.1,0-0.1,0.1-0.2
					c0-0.1,0.1-0.1,0.1-0.2c0-0.1,0-0.1,0.1-0.2c0-0.1,0.1-0.1,0.1-0.2c0-0.1,0.1-0.1,0.1-0.2c0-0.1,0.1-0.1,0.1-0.2
					c0-0.1,0.1-0.1,0.1-0.2c0-0.1,0.1-0.1,0.1-0.2c0-0.1,0.1-0.1,0.1-0.2c0-0.1,0.1-0.1,0.2-0.2c0-0.1,0.1-0.1,0.1-0.2
					c0.1-0.1,0.1-0.1,0.2-0.2c0-0.1,0.1-0.1,0.1-0.2c0.1-0.1,0.1-0.1,0.2-0.2c0.1-0.1,0.1-0.1,0.2-0.2c0.1-0.1,0.1-0.1,0.2-0.2
					c0.1-0.1,0.1-0.1,0.2-0.2c0.1-0.1,0.2-0.1,0.2-0.2c0.1,0,0.1-0.1,0.2-0.1c0.1-0.1,0.2-0.1,0.3-0.2c0.1,0,0.1-0.1,0.2-0.1
					c0.1-0.1,0.2-0.1,0.3-0.2c0.1,0,0.1-0.1,0.2-0.1c0.2-0.1,0.3-0.2,0.5-0.3c0.2-0.1,0.4-0.2,0.5-0.3c0.1,0,0.1-0.1,0.2-0.1
					c0.1-0.1,0.3-0.1,0.4-0.2c0.1,0,0.2-0.1,0.2-0.1c0.1-0.1,0.2-0.1,0.4-0.2c0.1,0,0.2-0.1,0.3-0.1c0.1,0,0.2-0.1,0.3-0.1
					c0.1,0,0.2-0.1,0.3-0.1c0.1,0,0.2-0.1,0.3-0.1c0.1,0,0.2-0.1,0.3-0.1c0.1,0,0.2-0.1,0.3-0.1c0.1,0,0.2-0.1,0.3-0.1
					c0.1,0,0.2-0.1,0.4-0.1c0.1,0,0.2-0.1,0.3-0.1c0.1,0,0.2-0.1,0.4-0.1c0.1,0,0.2,0,0.3-0.1c0.1,0,0.2-0.1,0.4-0.1
					c0.1,0,0.2,0,0.3-0.1c0.1,0,0.2,0,0.4-0.1c0.1,0,0.2,0,0.3-0.1c0.1,0,0.2,0,0.4-0.1c0.1,0,0.2,0,0.3,0c0.1,0,0.2,0,0.4,0
					c0.1,0,0.2,0,0.3,0c0.1,0,0.2,0,0.4,0c0.1,0,0.2,0,0.3,0c0.1,0,0.2,0,0.4,0c0.1,0,0.2,0,0.3,0c0.1,0,0.2,0,0.4,0
					c0.1,0,0.2,0,0.3,0c0.1,0,0.2,0,0.4,0c0.1,0,0.2,0,0.3,0c0.1,0,0.2,0,0.4,0c0.1,0,0.2,0,0.3,0c0.1,0,0.2,0,0.4,0
					c0.1,0,0.2,0,0.3,0c0.1,0,0.2,0,0.4,0c0.1,0,0.2,0,0.3,0c0.1,0,0.2,0,0.4,0c0.1,0,0.2,0,0.3,0c0.1,0,0.2,0,0.4,0
					c0.1,0,0.2,0,0.3,0c0.1,0,0.2,0,0.4,0.1c0.1,0,0.2,0,0.3,0.1c0.1,0,0.2,0,0.4,0.1c0.1,0,0.2,0,0.3,0.1c0.1,0,0.2,0.1,0.4,0.1
					c0.1,0,0.2,0,0.3,0.1c0.1,0,0.2,0.1,0.3,0.1c0.1,0,0.2,0.1,0.3,0.1c0.1,0,0.2,0.1,0.3,0.1c0.1,0,0.2,0.1,0.3,0.1
					c0.1,0,0.2,0.1,0.3,0.1c0.1,0,0.2,0.1,0.3,0.1c0.1,0,0.2,0.1,0.3,0.1c0.1,0,0.2,0.1,0.3,0.1c0.1,0,0.2,0.1,0.3,0.1
					c0.1,0,0.2,0.1,0.3,0.1c0.1,0,0.2,0.1,0.3,0.1c0.1,0,0.2,0.1,0.3,0.1c0.1,0,0.2,0.1,0.3,0.1c0.1,0,0.2,0.1,0.3,0.1
					c0,0,0.1,0,0.1,0L1613.3,495.6C1613.3,495.6,1613.3,495.6,1613.3,495.6z"/>
			</g>
			<g id="XMLID_495_">
				<polygon id="XMLID_831_" class="st32" points="1574,518.4 1663.7,570.2 1763.4,512.6 1673.8,460.8 				"/>
				<g id="XMLID_829_">
					<path id="XMLID_830_" class="st33" d="M1750.9,512.2l-30.3,17.5l-33.5-19.4l-2.7,1.5c-6.1-3.2-15.6-3.1-21.5,0.3
						c-5.9,3.4-6.1,8.9-0.5,12.4l-2.7,1.5l33.5,19.4l-30.3,17.5l-82.4-47.6l87.8-50.7L1750.9,512.2z"/>
				</g>
				<path id="XMLID_826_" class="st11" d="M1594.7,506.7l67.3,38.9l58.9-34l-67.3-38.9v0.9l19.8,11.4l-57.4,33.1l-19.8-11.4H1594.7z
					 M1674.1,485.4l45.3,26.1l-57.4,33.1l-45.3-26.1L1674.1,485.4z"/>
				<path id="XMLID_496_" class="st18" d="M1668.5,463.8l-33.4,19.3l-0.7,0.4l-21,12.1l-0.7,0.4l-33.4,19.3l83.9,48.4l31-17.9
					l0.7-0.4l-33.5-19.4l1.7-1l22.5-13l1.7-1l33.5,19.4l0.7-0.4l31-17.9L1668.5,463.8z M1663,524.3c-5.4-3.4-5.3-8.6,0.4-11.9
					c5.7-3.3,14.8-3.3,20.7-0.2L1663,524.3z M1647.1,553.7c-14.7-14.5-10.6-33,10.1-44.9c20.6-11.9,52.6-14.3,77.8-5.8l16,9.2
					l-30.3,17.5l-33.5-19.4l-2.4,1.4c-6.2-3.4-16.1-3.3-22.1,0.2c-6.1,3.5-6.2,9.2-0.4,12.8l-2.4,1.4l33.5,19.4l-30.3,17.5
					L1647.1,553.7z M1613.4,496.5c0,0,0.1,0,0.1,0.1c0.1,0.1,0.2,0.1,0.3,0.2c0.1,0.1,0.2,0.1,0.3,0.2c0.1,0,0.2,0.1,0.3,0.1
					c0.1,0,0.2,0.1,0.3,0.1c0.1,0,0.2,0.1,0.3,0.1c0.1,0,0.2,0.1,0.3,0.1c0.1,0,0.2,0.1,0.3,0.1c0.1,0,0.2,0.1,0.3,0.1
					c0.1,0,0.2,0.1,0.3,0.1c0.1,0,0.2,0.1,0.3,0.1c0.1,0,0.2,0.1,0.3,0.1c0.1,0,0.2,0.1,0.4,0.1c0.1,0,0.2,0.1,0.3,0.1
					c0.1,0,0.2,0.1,0.4,0.1c0.1,0,0.2,0.1,0.4,0.1c0.1,0,0.2,0.1,0.4,0.1c0.1,0,0.2,0,0.4,0.1c0.1,0,0.2,0,0.4,0.1
					c0.1,0,0.2,0,0.4,0.1c0.1,0,0.2,0,0.4,0.1c0.1,0,0.2,0,0.4,0.1c0.1,0,0.2,0,0.4,0c0.1,0,0.2,0,0.4,0c0.1,0,0.2,0,0.4,0
					c0.1,0,0.3,0,0.4,0c0.1,0,0.2,0,0.4,0c0.1,0,0.3,0,0.4,0c0.1,0,0.3,0,0.4,0c0.1,0,0.3,0,0.4,0c0.1,0,0.3,0,0.4,0
					c0.1,0,0.3,0,0.4,0c0.1,0,0.3,0,0.4,0c0.1,0,0.3,0,0.4,0c0.1,0,0.3,0,0.4,0c0.1,0,0.3,0,0.4,0c0.1,0,0.3,0,0.4,0
					c0.1,0,0.3,0,0.4,0c0.1,0,0.3,0,0.4,0c0.1,0,0.2,0,0.4,0c0.1,0,0.2,0,0.4,0c0.1,0,0.2,0,0.4,0c0.1,0,0.2,0,0.4-0.1
					c0.1,0,0.2,0,0.4-0.1c0.1,0,0.2,0,0.4-0.1c0.1,0,0.2,0,0.4-0.1c0.1,0,0.2-0.1,0.4-0.1c0.1,0,0.2-0.1,0.3-0.1
					c0.1,0,0.2-0.1,0.4-0.1c0.1,0,0.2-0.1,0.3-0.1c0.1,0,0.2-0.1,0.4-0.1c0.1,0,0.2-0.1,0.3-0.1c0.1,0,0.2-0.1,0.4-0.1
					c0.1,0,0.2-0.1,0.3-0.1c0.1,0,0.2-0.1,0.4-0.1c0.1,0,0.2-0.1,0.3-0.1c0.1,0,0.2-0.1,0.4-0.1c0.1,0,0.2-0.1,0.3-0.1
					c0.1-0.1,0.2-0.1,0.4-0.2c0.1,0,0.2-0.1,0.3-0.1c0.1-0.1,0.3-0.1,0.4-0.2c0.1,0,0.1-0.1,0.2-0.1c0.2-0.1,0.4-0.2,0.6-0.3
					c0.2-0.1,0.4-0.2,0.6-0.3c0.1,0,0.1-0.1,0.2-0.1c0.1-0.1,0.2-0.2,0.3-0.2c0.1,0,0.1-0.1,0.2-0.1c0.1-0.1,0.2-0.1,0.3-0.2
					c0.1-0.1,0.1-0.1,0.2-0.2c0.1-0.1,0.2-0.1,0.3-0.2c0.1-0.1,0.1-0.1,0.2-0.2c0.1-0.1,0.2-0.1,0.2-0.2c0.1-0.1,0.1-0.1,0.2-0.2
					c0.1-0.1,0.1-0.1,0.2-0.2c0.1-0.1,0.1-0.1,0.2-0.2c0.1-0.1,0.1-0.1,0.2-0.2c0.1-0.1,0.1-0.1,0.1-0.2c0.1-0.1,0.1-0.1,0.2-0.2
					c0-0.1,0.1-0.1,0.1-0.2c0-0.1,0.1-0.1,0.1-0.2c0-0.1,0.1-0.1,0.1-0.2c0-0.1,0.1-0.1,0.1-0.2c0-0.1,0.1-0.1,0.1-0.2
					c0-0.1,0.1-0.1,0.1-0.2c0-0.1,0.1-0.1,0.1-0.2c0-0.1,0.1-0.1,0.1-0.2c0-0.1,0-0.1,0.1-0.2c0-0.1,0-0.1,0.1-0.2
					c0-0.1,0-0.1,0-0.2c0-0.1,0-0.1,0-0.2c0-0.1,0-0.1,0-0.2c0-0.1,0-0.1,0-0.2c0-0.1,0-0.1,0-0.2c0-0.1,0-0.1,0-0.2
					c0-0.1,0-0.1,0-0.2c0-0.1,0-0.1,0-0.2c0-0.1,0-0.1,0-0.2c0-0.1,0-0.1,0-0.2c0-0.1,0-0.1,0-0.2c0-0.1,0-0.1,0-0.2
					c0-0.1,0-0.1-0.1-0.2c0-0.1,0-0.1-0.1-0.2c0-0.1,0-0.1-0.1-0.2c0-0.1-0.1-0.1-0.1-0.2c0-0.1-0.1-0.1-0.1-0.2
					c0-0.1-0.1-0.1-0.1-0.2c0-0.1-0.1-0.1-0.1-0.2c0-0.1-0.1-0.1-0.1-0.2c0-0.1-0.1-0.1-0.1-0.2c0-0.1-0.1-0.1-0.1-0.2
					c0-0.1-0.1-0.1-0.1-0.2c-0.1-0.1-0.1-0.1-0.2-0.2c-0.1-0.1-0.1-0.1-0.2-0.2c-0.1-0.1-0.1-0.1-0.2-0.2c-0.1-0.1-0.1-0.1-0.2-0.2
					c-0.1-0.1-0.1-0.1-0.2-0.2c-0.1-0.1-0.1-0.1-0.2-0.2c-0.1-0.1-0.1-0.1-0.2-0.2c-0.1-0.1-0.1-0.1-0.2-0.2
					c-0.1-0.1-0.2-0.1-0.2-0.2c-0.1-0.1-0.2-0.1-0.2-0.2c-0.1-0.1-0.2-0.1-0.2-0.2c-0.1-0.1-0.2-0.1-0.2-0.2
					c-0.1-0.1-0.2-0.1-0.3-0.2c-0.1-0.1-0.2-0.1-0.3-0.2c0,0-0.1,0-0.1-0.1l32.7-18.9l63.8,36.8c-25-7.4-55.8-4.7-75.9,6.9
					c-20.1,11.6-24.8,29.3-12,43.8l-63.8-36.8L1613.4,496.5z M1614.1,496.1l21-12.1c0,0,0.1,0,0.1,0.1c0.1,0.1,0.2,0.1,0.2,0.2
					c0.1,0.1,0.2,0.1,0.3,0.2c0.1,0.1,0.1,0.1,0.2,0.2c0.1,0.1,0.2,0.1,0.2,0.2c0.1,0.1,0.1,0.1,0.2,0.2c0.1,0.1,0.1,0.1,0.2,0.2
					c0.1,0.1,0.1,0.1,0.2,0.2c0.1,0.1,0.1,0.1,0.2,0.2c0.1,0.1,0.1,0.1,0.2,0.2c0.1,0.1,0.1,0.1,0.2,0.2c0.1,0.1,0.1,0.1,0.2,0.2
					c0.1,0.1,0.1,0.1,0.2,0.2c0,0.1,0.1,0.1,0.1,0.2c0.1,0.1,0.1,0.1,0.1,0.2c0,0.1,0.1,0.1,0.1,0.2c0,0.1,0.1,0.1,0.1,0.2
					c0,0.1,0.1,0.1,0.1,0.2c0,0.1,0.1,0.1,0.1,0.2c0,0.1,0.1,0.1,0.1,0.2c0,0.1,0.1,0.1,0.1,0.2c0,0.1,0.1,0.1,0.1,0.2
					c0,0.1,0.1,0.1,0.1,0.2c0,0.1,0,0.1,0.1,0.2c0,0.1,0,0.1,0.1,0.2c0,0.1,0,0.1,0,0.2c0,0.1,0,0.1,0,0.2c0,0.1,0,0.1,0,0.2
					c0,0.1,0,0.1,0,0.2c0,0.1,0,0.1,0,0.2c0,0.1,0,0.1,0,0.2c0,0.1,0,0.1,0,0.2c0,0.1,0,0.1,0,0.2c0,0.1,0,0.1,0,0.2
					c0,0.1,0,0.1,0,0.2c0,0.1,0,0.1,0,0.2c0,0.1,0,0.1,0,0.2c0,0.1,0,0.1,0,0.2c0,0.1,0,0.1-0.1,0.2c0,0.1,0,0.1-0.1,0.2
					c0,0.1-0.1,0.1-0.1,0.2c0,0.1,0,0.1-0.1,0.2c0,0.1-0.1,0.1-0.1,0.2c0,0.1-0.1,0.1-0.1,0.2c0,0.1-0.1,0.1-0.1,0.2
					c0,0.1-0.1,0.1-0.1,0.2c0,0.1-0.1,0.1-0.1,0.2c0,0.1-0.1,0.1-0.1,0.2c0,0.1-0.1,0.1-0.2,0.2c0,0.1-0.1,0.1-0.1,0.2
					c-0.1,0.1-0.1,0.1-0.2,0.2c0,0.1-0.1,0.1-0.1,0.2c-0.1,0.1-0.1,0.1-0.2,0.2c-0.1,0.1-0.1,0.1-0.2,0.2c-0.1,0.1-0.1,0.1-0.2,0.2
					c-0.1,0.1-0.1,0.1-0.2,0.2c-0.1,0.1-0.2,0.1-0.2,0.2c-0.1,0-0.1,0.1-0.2,0.1c-0.1,0.1-0.2,0.1-0.3,0.2c-0.1,0-0.1,0.1-0.2,0.1
					c-0.1,0.1-0.2,0.1-0.3,0.2c-0.1,0-0.1,0.1-0.2,0.1c-0.2,0.1-0.3,0.2-0.5,0.3c-0.2,0.1-0.4,0.2-0.5,0.3c-0.1,0-0.1,0.1-0.2,0.1
					c-0.1,0.1-0.3,0.1-0.4,0.2c-0.1,0-0.2,0.1-0.2,0.1c-0.1,0.1-0.2,0.1-0.4,0.2c-0.1,0-0.2,0.1-0.3,0.1c-0.1,0-0.2,0.1-0.3,0.1
					c-0.1,0-0.2,0.1-0.3,0.1c-0.1,0-0.2,0.1-0.3,0.1c-0.1,0-0.2,0.1-0.3,0.1c-0.1,0-0.2,0.1-0.3,0.1c-0.1,0-0.2,0.1-0.3,0.1
					c-0.1,0-0.2,0.1-0.4,0.1c-0.1,0-0.2,0.1-0.3,0.1c-0.1,0-0.2,0.1-0.4,0.1c-0.1,0-0.2,0-0.3,0.1c-0.1,0-0.2,0.1-0.4,0.1
					c-0.1,0-0.2,0-0.3,0.1c-0.1,0-0.2,0-0.4,0.1c-0.1,0-0.2,0-0.3,0.1c-0.1,0-0.2,0-0.4,0.1c-0.1,0-0.2,0-0.3,0c-0.1,0-0.2,0-0.4,0
					c-0.1,0-0.2,0-0.3,0c-0.1,0-0.2,0-0.4,0c-0.1,0-0.2,0-0.3,0c-0.1,0-0.2,0-0.4,0c-0.1,0-0.2,0-0.3,0c-0.1,0-0.2,0-0.4,0
					c-0.1,0-0.2,0-0.3,0c-0.1,0-0.2,0-0.4,0c-0.1,0-0.2,0-0.3,0c-0.1,0-0.2,0-0.4,0c-0.1,0-0.2,0-0.3,0c-0.1,0-0.2,0-0.4,0
					c-0.1,0-0.2,0-0.3,0c-0.1,0-0.2,0-0.4,0c-0.1,0-0.2,0-0.3,0c-0.1,0-0.2,0-0.4,0c-0.1,0-0.2,0-0.3,0c-0.1,0-0.2,0-0.4,0
					c-0.1,0-0.2,0-0.3,0c-0.1,0-0.2,0-0.4-0.1c-0.1,0-0.2,0-0.3-0.1c-0.1,0-0.2,0-0.4-0.1c-0.1,0-0.2,0-0.3-0.1
					c-0.1,0-0.2-0.1-0.4-0.1c-0.1,0-0.2,0-0.3-0.1c-0.1,0-0.2-0.1-0.3-0.1c-0.1,0-0.2-0.1-0.3-0.1c-0.1,0-0.2-0.1-0.3-0.1
					c-0.1,0-0.2-0.1-0.3-0.1c-0.1,0-0.2-0.1-0.3-0.1c-0.1,0-0.2-0.1-0.3-0.1c-0.1,0-0.2-0.1-0.3-0.1c-0.1,0-0.2-0.1-0.3-0.1
					c-0.1,0-0.2-0.1-0.3-0.1c-0.1,0-0.2-0.1-0.3-0.1c-0.1,0-0.2-0.1-0.3-0.1c-0.1,0-0.2-0.1-0.3-0.1c-0.1,0-0.2-0.1-0.3-0.1
					C1614.4,496.2,1614.3,496.2,1614.1,496.1C1614.2,496.1,1614.1,496.1,1614.1,496.1z"/>
			</g>
		</g>
		<g id="XMLID_382_">
			<g id="XMLID_487_">
				<polygon id="XMLID_493_" class="st18" points="1538.2,442 1541.3,440.3 1541.3,399.8 1538.2,401.5 				"/>
				<polygon id="XMLID_491_" class="st11" points="1553.4,398.3 1556.4,396.5 1539.8,398.9 1536.7,400.7 				"/>
				<polygon id="XMLID_490_" class="st21" points="1549.7,400.4 1553.4,398.3 1536.7,400.6 1538.2,402.1 				"/>
				<polygon id="XMLID_489_" class="st34" points="1538.2,442 1536.7,441.1 1536.7,400.6 1538.2,401.5 				"/>
				<polygon id="XMLID_488_" class="st21" points="1538.2,442 1536.7,441.1 1536.7,400.6 1538.2,401.5 				"/>
			</g>
			<g id="XMLID_394_">
				<polygon id="XMLID_486_" class="st18" points="1545,425.1 1572,409.5 1572,390.5 1545,406.1 				"/>
				<path id="XMLID_395_" class="st11" d="M1544.8,425.5c-0.1-0.1-0.2-0.2-0.2-0.4v-19c0-0.2,0.1-0.3,0.2-0.4l27-15.6
					c0.1-0.1,0.3-0.1,0.5,0c0.1,0.1,0.2,0.2,0.2,0.4v19c0,0.2-0.1,0.3-0.2,0.4l-27,15.6c-0.1,0-0.2,0.1-0.2,0.1
					C1544.9,425.6,1544.8,425.6,1544.8,425.5z M1571.5,391.4l-26,15v17.9l26-15V391.4z"/>
			</g>
			<g id="XMLID_385_">
				<polygon id="XMLID_393_" class="st18" points="1553.1,418.4 1563.9,412.2 1563.9,404.6 1553.1,410.8 				"/>
				<path id="XMLID_386_" class="st11" d="M1552.9,418.8c-0.1-0.1-0.2-0.2-0.2-0.4v-7.6c0-0.2,0.1-0.3,0.2-0.4l10.7-6.2
					c0.1-0.1,0.3-0.1,0.5,0c0.1,0.1,0.2,0.2,0.2,0.4v7.6c0,0.2-0.1,0.3-0.2,0.4l-10.7,6.2c-0.1,0-0.2,0.1-0.2,0.1
					C1553,418.9,1553,418.8,1552.9,418.8z M1563.4,405.4l-9.8,5.7v6.5l9.8-5.7V405.4z"/>
			</g>
			<polygon id="XMLID_384_" class="st21" points="1542.4,424 1544.5,425.2 1544.5,405.8 1542.4,404.6 			"/>
			<polygon id="XMLID_383_" class="st5" points="1569.7,388.9 1571.8,390.1 1544.5,405.8 1542.4,404.6 			"/>
		</g>
		<g id="XMLID_378_">
			<path id="XMLID_381_" class="st18" d="M1687.6,489.3l27-15.6c0.1-0.1,0.3-0.1,0.5,0c0.1,0.1,0.2,0.2,0.2,0.4v19
				c0,0.2-0.1,0.3-0.2,0.4l-27,15.6c-0.1,0-0.2,0.1-0.2,0.1s-0.2,0-0.2-0.1c-0.1-0.1-0.2-0.2-0.2-0.4v-19
				C1687.4,489.6,1687.4,489.4,1687.6,489.3z"/>
			<polygon id="XMLID_380_" class="st21" points="1685.2,507.6 1687.4,508.8 1687.4,489.5 1685.2,488.3 			"/>
			<polygon id="XMLID_379_" class="st5" points="1712.5,472.5 1714.6,473.7 1687.4,489.5 1685.2,488.3 			"/>
		</g>
		<g id="XMLID_372_">
			<polygon id="XMLID_377_" class="st18" points="1709.9,539.9 1712.9,538.2 1712.9,497.7 1709.9,499.4 			"/>
			<polygon id="XMLID_376_" class="st18" points="1698.2,483 1701.3,481.2 1712.9,497.7 1709.9,499.5 			"/>
			<polygon id="XMLID_375_" class="st21" points="1698.4,483.1 1697.1,483.9 1708.4,499.9 1709.9,499.4 			"/>
			<polygon id="XMLID_374_" class="st34" points="1709.9,539.9 1708.4,539 1708.4,498.5 1709.9,499.4 			"/>
			<polygon id="XMLID_373_" class="st21" points="1709.9,539.9 1708.4,539 1708.4,498.5 1709.9,499.4 			"/>
		</g>
	</g>
	<g class="st3">
		<path class="st11" d="M1812.4,525.3v17.2c0,1-0.8,1.8-1.8,1.8s-1.8-0.8-1.8-1.8v-17.2H1812.4z"/>
		<path class="st21" d="M1812.4,525.3v6.9c-0.6,0-1.2,0.1-1.8,0.1c-0.6,0-1.2,0-1.8-0.1v-6.9H1812.4z"/>
		
			<ellipse transform="matrix(0.9144 -0.4049 0.4049 0.9144 -50.3641 776.5684)" class="st16" cx="1810.6" cy="507.3" rx="21.5" ry="21.5"/>
		<path class="st21" d="M1812.4,522.6c-11.9,0-21.5-9.6-21.5-21.5c0-0.9,0.1-1.8,0.2-2.7c-1.2,2.7-1.9,5.7-1.9,8.9
			c0,11.9,9.6,21.5,21.5,21.5c10.9,0,19.9-8.2,21.3-18.7C1828.5,517.5,1821.1,522.6,1812.4,522.6z"/>
	</g>
	<g class="st3">
		<path class="st11" d="M1787.2,539.2v17.2c0,1-0.8,1.8-1.8,1.8s-1.8-0.8-1.8-1.8v-17.2H1787.2z"/>
		<path class="st21" d="M1787.2,539.2v6.9c-0.6,0-1.2,0.1-1.8,0.1s-1.2,0-1.8-0.1v-6.9H1787.2z"/>
		
			<ellipse transform="matrix(0.9144 -0.4049 0.4049 0.9144 -58.1544 767.5701)" class="st16" cx="1785.5" cy="521.3" rx="21.5" ry="21.5"/>
		<path class="st21" d="M1787.2,536.6c-11.9,0-21.5-9.6-21.5-21.5c0-0.9,0.1-1.8,0.2-2.7c-1.2,2.7-1.9,5.7-1.9,8.9
			c0,11.9,9.6,21.5,21.5,21.5c10.9,0,19.9-8.2,21.3-18.7C1803.4,531.4,1795.9,536.6,1787.2,536.6z"/>
	</g>
	<g class="st3">
		<path class="st11" d="M1761.6,551.8V569c0,1-0.8,1.8-1.8,1.8s-1.8-0.8-1.8-1.8v-17.2H1761.6z"/>
		<path class="st21" d="M1761.6,551.8v6.9c-0.6,0-1.2,0.1-1.8,0.1s-1.2,0-1.8-0.1v-6.9H1761.6z"/>
		
			<ellipse transform="matrix(0.9144 -0.4049 0.4049 0.9144 -65.4294 758.2798)" class="st16" cx="1759.9" cy="533.8" rx="21.5" ry="21.5"/>
		<path class="st21" d="M1761.6,549.1c-11.9,0-21.5-9.6-21.5-21.5c0-0.9,0.1-1.8,0.2-2.7c-1.2,2.7-1.9,5.7-1.9,8.9
			c0,11.9,9.6,21.5,21.5,21.5c10.9,0,19.9-8.2,21.3-18.7C1777.8,544,1770.3,549.1,1761.6,549.1z"/>
	</g>
	<g class="st3">
		<path class="st11" d="M1495.9,428.4v17.2c0,1-0.8,1.8-1.8,1.8c-1,0-1.8-0.8-1.8-1.8v-17.2H1495.9z"/>
		<path class="st21" d="M1495.9,428.4v6.9c-0.6,0-1.2,0.1-1.8,0.1c-0.6,0-1.2,0-1.8-0.1v-6.9H1495.9z"/>
		
			<ellipse transform="matrix(0.9144 -0.4049 0.4049 0.9144 -38.2253 640.1109)" class="st16" cx="1494.1" cy="410.4" rx="21.5" ry="21.5"/>
		<path class="st21" d="M1495.9,425.7c-11.9,0-21.5-9.6-21.5-21.5c0-0.9,0.1-1.8,0.2-2.7c-1.2,2.7-1.9,5.7-1.9,8.9
			c0,11.9,9.6,21.5,21.5,21.5c10.9,0,19.9-8.2,21.3-18.7C1512,420.6,1504.6,425.7,1495.9,425.7z"/>
	</g>
	<g class="st3">
		<path class="st11" d="M1470.7,442.3v17.2c0,1-0.8,1.8-1.8,1.8c-1,0-1.8-0.8-1.8-1.8v-17.2H1470.7z"/>
		<path class="st21" d="M1470.7,442.3v6.9c-0.6,0-1.2,0.1-1.8,0.1c-0.6,0-1.2,0-1.8-0.1v-6.9H1470.7z"/>
		
			<ellipse transform="matrix(0.9144 -0.4049 0.4049 0.9144 -46.0157 631.1125)" class="st16" cx="1468.9" cy="424.3" rx="21.5" ry="21.5"/>
		<path class="st21" d="M1470.7,439.6c-11.9,0-21.5-9.6-21.5-21.5c0-0.9,0.1-1.8,0.2-2.7c-1.2,2.7-1.9,5.7-1.9,8.9
			c0,11.9,9.6,21.5,21.5,21.5c10.9,0,19.9-8.2,21.3-18.7C1486.9,434.5,1479.4,439.6,1470.7,439.6z"/>
	</g>
	<g class="st3">
		<path class="st11" d="M1445.1,454.8V472c0,1-0.8,1.8-1.8,1.8c-1,0-1.8-0.8-1.8-1.8v-17.2H1445.1z"/>
		<path class="st21" d="M1445.1,454.8v6.9c-0.6,0-1.2,0.1-1.8,0.1c-0.6,0-1.2,0-1.8-0.1v-6.9H1445.1z"/>
		
			<ellipse transform="matrix(0.9144 -0.4049 0.4049 0.9144 -53.2906 621.8223)" class="st16" cx="1443.3" cy="436.9" rx="21.5" ry="21.5"/>
		<path class="st21" d="M1445.1,452.2c-11.9,0-21.5-9.6-21.5-21.5c0-0.9,0.1-1.8,0.2-2.7c-1.2,2.7-1.9,5.7-1.9,8.9
			c0,11.9,9.6,21.5,21.5,21.5c10.9,0,19.9-8.2,21.3-18.7C1461.3,447,1453.8,452.2,1445.1,452.2z"/>
	</g>
</g>
<g id="capa1_x28_3_x29_" class="st0">
	<g class="st3">
		<path class="st11" d="M1492.7,252.4v17.2c0,1-0.8,1.8-1.8,1.8s-1.8-0.8-1.8-1.8v-17.2H1492.7z"/>
		<path class="st21" d="M1492.7,252.4v6.9c-0.6,0-1.2,0.1-1.8,0.1s-1.2,0-1.8-0.1v-6.9H1492.7z"/>
		
			<ellipse transform="matrix(0.9144 -0.4049 0.4049 0.9144 32.7623 623.7518)" class="st16" cx="1490.9" cy="234.4" rx="21.5" ry="21.5"/>
		<path class="st21" d="M1492.7,249.7c-11.9,0-21.5-9.6-21.5-21.5c0-0.9,0.1-1.8,0.2-2.7c-1.2,2.7-1.9,5.7-1.9,8.9
			c0,11.9,9.6,21.5,21.5,21.5c10.9,0,19.9-8.2,21.3-18.7C1508.8,244.6,1501.4,249.7,1492.7,249.7z"/>
	</g>
	<g class="st3">
		<path class="st11" d="M1467.5,266.6v17.2c0,1-0.8,1.8-1.8,1.8s-1.8-0.8-1.8-1.8v-17.2H1467.5z"/>
		<path class="st21" d="M1467.5,266.6v6.9c-0.6,0-1.2,0.1-1.8,0.1s-1.2,0-1.8-0.1v-6.9H1467.5z"/>
		
			<ellipse transform="matrix(0.9144 -0.4049 0.4049 0.9144 24.8263 614.7839)" class="st16" cx="1465.8" cy="248.7" rx="21.5" ry="21.5"/>
		<path class="st21" d="M1467.5,264c-11.9,0-21.5-9.6-21.5-21.5c0-0.9,0.1-1.8,0.2-2.7c-1.2,2.7-1.9,5.7-1.9,8.9
			c0,11.9,9.6,21.5,21.5,21.5c10.9,0,19.9-8.2,21.3-18.7C1483.7,258.8,1476.2,264,1467.5,264z"/>
	</g>
	<g class="st3">
		<path class="st11" d="M1442.4,281.6v17.2c0,1-0.8,1.8-1.8,1.8s-1.8-0.8-1.8-1.8v-17.2H1442.4z"/>
		<path class="st21" d="M1442.4,281.6v6.9c-0.6,0-1.2,0.1-1.8,0.1c-0.6,0-1.2,0-1.8-0.1v-6.9H1442.4z"/>
		
			<ellipse transform="matrix(0.9144 -0.4049 0.4049 0.9144 16.6302 605.8716)" class="st16" cx="1440.6" cy="263.6" rx="21.5" ry="21.5"/>
		<path class="st21" d="M1442.4,278.9c-11.9,0-21.5-9.6-21.5-21.5c0-0.9,0.1-1.8,0.2-2.7c-1.2,2.7-1.9,5.7-1.9,8.9
			c0,11.9,9.6,21.5,21.5,21.5c10.9,0,19.9-8.2,21.3-18.7C1458.5,273.8,1451,278.9,1442.4,278.9z"/>
	</g>
	<g class="st3">
		<path class="st11" d="M1417.2,296v17.2c0,1-0.8,1.8-1.8,1.8c-1,0-1.8-0.8-1.8-1.8V296H1417.2z"/>
		<path class="st21" d="M1417.2,296v6.9c-0.6,0-1.2,0.1-1.8,0.1c-0.6,0-1.2,0-1.8-0.1V296H1417.2z"/>
		
			<ellipse transform="matrix(0.9144 -0.4049 0.4049 0.9144 8.6497 596.9134)" class="st16" cx="1415.4" cy="278" rx="21.5" ry="21.5"/>
		<path class="st21" d="M1417.2,293.3c-11.9,0-21.5-9.6-21.5-21.5c0-0.9,0.1-1.8,0.2-2.7c-1.2,2.7-1.9,5.7-1.9,8.9
			c0,11.9,9.6,21.5,21.5,21.5c10.9,0,19.9-8.2,21.3-18.7C1433.3,288.2,1425.9,293.3,1417.2,293.3z"/>
	</g>
	<g class="st3">
		<path class="st11" d="M1392.4,309.7v17.2c0,1-0.8,1.8-1.8,1.8s-1.8-0.8-1.8-1.8v-17.2H1392.4z"/>
		<path class="st21" d="M1392.4,309.7v6.9c-0.6,0-1.2,0.1-1.8,0.1c-0.6,0-1.2,0-1.8-0.1v-6.9H1392.4z"/>
		
			<ellipse transform="matrix(0.9144 -0.4049 0.4049 0.9144 0.9556 588.0533)" class="st16" cx="1390.6" cy="291.8" rx="21.5" ry="21.5"/>
		<path class="st21" d="M1392.4,307.1c-11.9,0-21.5-9.6-21.5-21.5c0-0.9,0.1-1.8,0.2-2.7c-1.2,2.7-1.9,5.7-1.9,8.9
			c0,11.9,9.6,21.5,21.5,21.5c10.9,0,19.9-8.2,21.3-18.7C1408.5,301.9,1401.1,307.1,1392.4,307.1z"/>
	</g>
</g>
<g id="senales_x28_3_x29_" class="st0">
	<g class="st3">
		<g id="_x33_4_34_">
			<g>
				<path class="st35" d="M1654.3,14.3c0,0-0.2,1.2,1.2,2s2.2,1.2,3.1,0.9c0.8-0.3,4.3-2.5,4.7-2.8c0.9-0.6,1-2.1,1-2.1l-2.3,0.7
					l-5.2,0.8L1654.3,14.3z"/>
				<path class="st36" d="M1664.6,12.1L1664.6,12.1l0-0.7l-2.6-0.9c-0.5-0.3-0.9-0.5-0.9-0.5s-0.6-0.4-1.3,0c-0.2,0.1-0.5,0.3-1,0.6
					l-2,2.2l-3,0.3l0,0.5l0,0c0,0.6,0,0.6,0.3,0.8l2.9,1.7c0,0,0.5,0.5,1.4,0c0.9-0.5,6-3.5,6-3.5S1664.6,12.4,1664.6,12.1z"/>
				<path class="st36" d="M1654.1,13.6l2.9,1.7c0,0,0.5,0.5,1.4,0c0.9-0.5,6-3.4,6-3.4s0.6-0.4,0-0.9c-0.6-0.4-3.2-1.8-3.2-1.8
					s-0.6-0.4-1.3,0s-5.1,3.1-5.1,3.1S1653.1,13.1,1654.1,13.6z"/>
			</g>
			<path id="XMLID_2961_" class="st36" d="M1634,36.7l0.2,0.1c-0.3-0.3-0.3-0.7,0-0.9l13.2-16.8c0.3-0.3,0.7-0.3,0.9,0l-0.2-0.1
				c0.3,0.3,0.3,0.7,0,0.9L1635,36.7C1634.7,37,1634.3,37,1634,36.7z"/>
			<g>
				<path class="st36" d="M1637.2,74.7l-4-0.1l-0.3,9.9c0,0.8,1.1,1.6,2.4,1.6c1.3,0,2.2-0.7,2.2-1.5L1637.2,74.7z"/>
				<path class="st36" d="M1637.2,74.7c0,0.7-0.8,1.4-2,1.4c-1.1,0-2-0.6-2-1.4c0-0.7,0.9-1.4,2-1.4
					C1636.3,73.3,1637.2,73.9,1637.2,74.7z"/>
				<path id="XMLID_2960_" class="st36" d="M1634.9,26.6L1634.9,26.6c-0.2-0.3-0.1-0.7,0.2-0.9l19.9-11.5c0.3-0.2,0.7-0.1,0.9,0.2
					l0,0c0.2,0.3,0.1,0.7-0.2,0.9l-19.9,11.5C1635.5,27.1,1635,27,1634.9,26.6z"/>
				<path id="XMLID_2959_" class="st36" d="M1635.2,75L1635.2,75c-0.5,0-1.1-0.5-1.1-1l0.2-47.4c0-0.5,0.4-1,1-1l0,0
					c0.5,0,1,0.4,1,1l0.2,47.3C1636.4,74.5,1635.9,75,1635.2,75z"/>
			</g>
			<g>
				<path id="XMLID_2958_" class="st36" d="M1634.8,51.1L1634.8,51.1c-0.2,0.1-0.5,0.1-0.7-0.1l-2.9-4.3c-0.1-0.2-0.1-0.5,0.1-0.7
					l0,0c0.2-0.1,0.5-0.1,0.7,0.1l2.9,4.3C1635.1,50.6,1635,50.9,1634.8,51.1z"/>
				<polygon class="st37" points="1639.2,40 1639.2,40.8 1633.3,47.9 1623.3,42.1 1623.2,41.4 				"/>
				<polygon class="st36" points="1629.3,34.6 1639.2,40 1633.2,47.2 1623.2,41.4 				"/>
				<polygon class="st11" points="1624.2,41.1 1629.3,35.5 1638.1,40.2 1633.1,46.2 				"/>
				<line class="st16" x1="1637" y1="39.5" x2="1631.8" y2="45.4"/>
				<line class="st16" x1="1635.2" y1="38.7" x2="1630.1" y2="44.6"/>
			</g>
		</g>
		<line class="st16" x1="1633.6" y1="37.7" x2="1628.5" y2="43.6"/>
		<line class="st16" x1="1630.5" y1="36.1" x2="1625.5" y2="41.9"/>
		<line class="st16" x1="1632" y1="36.9" x2="1627" y2="42.7"/>
		<line class="st16" x1="1627.6" y1="37.3" x2="1636.4" y2="42.1"/>
		<line class="st16" x1="1634.6" y1="44.3" x2="1625.7" y2="39.4"/>
	</g>
	<g id="XMLID_885_" class="st3">
		<g id="XMLID_888_">
			<g id="XMLID_924_">
				<polygon id="XMLID_931_" class="st38" points="1226.9,630.3 1226.9,629.8 1225.7,629.1 1225.7,629.7 				"/>
				<polygon id="XMLID_930_" class="st39" points="1226.9,630.3 1226.9,629.8 1229.8,628.1 1229.8,628.7 				"/>
				<polygon id="XMLID_929_" class="st40" points="1226.9,629.8 1229.8,628.1 1228.6,627.5 1225.7,629.1 				"/>
				<polygon id="XMLID_928_" class="st39" points="1227.5,629.1 1228.7,628.5 1228.7,603.8 1227.5,604.5 				"/>
				<polygon id="XMLID_927_" class="st38" points="1227.5,629.1 1226.9,628.8 1226.9,604.1 1227.5,604.5 				"/>
			</g>
			<g id="XMLID_890_">
				<g id="XMLID_919_">
					<path id="XMLID_923_" class="st41" d="M1224,606.4l8.4-14.6c0,0-1-0.6-1-0.6c-0.1,0-0.1,0-0.2,0l-8,4.6
						c-0.2,0.1-0.3,0.4-0.3,0.6v9.1c0,0.1,0,0.2,0.1,0.3C1223,605.9,1224,606.4,1224,606.4z"/>
					<path id="XMLID_921_" class="st42" d="M1224,606.4l-0.1-9.3l-1-0.6v9.1c0,0.1,0,0.2,0.1,0.3C1223,605.9,1224,606.4,1224,606.4z
						"/>
				</g>
				<path id="XMLID_918_" class="st43" d="M1224.2,606.4l8-4.6c0.2-0.1,0.3-0.4,0.3-0.6v-9.1c0-0.2-0.1-0.3-0.3-0.2l-8,4.6
					c-0.2,0.1-0.3,0.4-0.3,0.6v9.1C1223.9,606.4,1224,606.5,1224.2,606.4z"/>
				<g id="XMLID_891_">
					<path id="XMLID_912_" class="st5" d="M1231.6,601.7c0.3-0.1,0.5-0.5,0.5-0.8c0-1.7,0-3.3,0-5c0-1,0-2,0-3
						c0-0.2-0.1-0.3-0.2-0.3c-0.1,0-0.1,0-0.2,0.1c-2.3,1.4-4.7,2.7-7,4.1c-0.2,0.1-0.4,0.4-0.4,0.7c0,0,0,0.1,0,0.1
						c0,2.7,0,5.3,0,8c0,0.1,0,0.2,0,0.3c0.1,0.1,0.2,0.1,0.4,0c1.2-0.7,2.3-1.3,3.5-2C1229.3,603,1230.5,602.3,1231.6,601.7z"/>
					<path id="XMLID_908_" class="st11" d="M1224.7,605.7c-0.2,0.1-0.3,0.1-0.4,0c0-0.1,0-0.2,0-0.3c0-2.7,0-5.3,0-8
						c0,0,0-0.1,0-0.1c0-0.3,0.2-0.6,0.4-0.7c2.3-1.4,4.7-2.7,7-4.1c0.1,0,0.1-0.1,0.2-0.1c0.2,0,0.2,0.1,0.2,0.3c0,1,0,2,0,3
						c0,1.7,0,3.3,0,5c0,0.4-0.2,0.7-0.5,0.8c-1.2,0.7-2.3,1.3-3.5,2C1227,604.3,1225.8,605,1224.7,605.7z M1231.7,599.8
						C1231.7,599.8,1231.7,599.8,1231.7,599.8c0.2-0.1,0.2-0.3,0.2-0.3c-0.1-0.1-0.2-0.2-0.3-0.3c-1.1-1.4-2.2-2.8-3.3-4.2
						c-0.1-0.1-0.2,0-0.3,0.2c-1.2,2.9-2.3,5.7-3.5,8.6c0,0.1-0.1,0.2,0,0.2c0,0,0.1,0,0.2,0c1.2-0.7,2.3-1.3,3.5-2
						C1229.4,601.1,1230.5,600.5,1231.7,599.8z"/>
					<path id="XMLID_899_" class="st5" d="M1224.7,603.8c-0.1,0-0.1,0.1-0.2,0c0,0,0-0.1,0-0.2c1.2-2.9,2.3-5.7,3.5-8.6
						c0.1-0.2,0.2-0.3,0.3-0.2c1.1,1.4,2.2,2.8,3.3,4.2c0.1,0.1,0.2,0.2,0.3,0.3c0.1,0.1,0,0.2-0.1,0.3c0,0,0,0-0.1,0
						c-1.2,0.7-2.3,1.3-3.5,2C1227,602.5,1225.9,603.2,1224.7,603.8z M1228.9,597.6c0,0,0,0.1,0,0.1c0,0.2,0,0.4,0,0.6
						c0,0.1,0.1,0.1,0.2,0c0.1-0.1,0.1-0.1,0.1-0.2c0-0.3,0-0.5,0-0.8c0-0.1,0-0.2-0.1-0.2c-0.2-0.1-0.5-0.2-0.7-0.2
						c-0.1,0-0.1,0-0.2,0.1c-0.1,0.1-0.3,0.3-0.4,0.5c0,0.1,0,0.1,0,0.2c0,0.4,0,0.8,0,1.2c0,0.1,0,0.1-0.1,0.2
						c-0.2,0.3-0.4,0.6-0.6,0.9c-0.1,0.1-0.1,0.2-0.1,0.3c-0.1,0.4-0.2,0.8-0.3,1.2c0,0.1,0,0.1,0,0.2c0,0.2,0.1,0.2,0.2,0.2
						c0.1,0,0.2-0.2,0.2-0.3c0.1-0.3,0.2-0.7,0.3-1c0.1-0.3,0.2-0.5,0.4-0.8c0.2-0.3,0.4-0.6,0.6-0.9c0.1-0.1,0.1-0.2,0.1-0.3
						c0-0.4,0-0.7,0-1.1c0,0,0,0,0,0C1228.6,597.5,1228.8,597.6,1228.9,597.6z M1228.2,599.5
						C1228.2,599.5,1228.2,599.5,1228.2,599.5c0.3,0.4,0.6,0.8,0.9,1.1c0.1,0.1,0.2,0.1,0.3-0.1c0.1-0.1,0.1-0.3,0.1-0.4
						c-0.3-0.4-0.6-0.7-0.9-1.1c0,0,0,0,0,0C1228.4,599.1,1228.3,599.3,1228.2,599.5z M1228.4,601.3c0-0.3-0.1-0.6-0.1-0.9
						c-0.1,0.1-0.3,0.2-0.4,0.3c0,0.3-0.1,0.7-0.1,1C1228,601.6,1228.2,601.5,1228.4,601.3z M1230.6,600.1
						C1230.6,600,1230.6,600,1230.6,600.1c-0.2-0.2-0.3-0.4-0.4-0.6c0,0,0,0-0.1,0c-0.1,0.1-0.3,0.1-0.4,0.2
						c0.1,0.3,0.1,0.5,0.2,0.8C1230.1,600.3,1230.4,600.2,1230.6,600.1z M1226.1,601.8C1226,601.8,1226,601.8,1226.1,601.8
						c-0.2,0.4-0.4,0.8-0.5,1.2c0,0,0.1,0,0.1-0.1c0.2-0.1,0.4-0.2,0.6-0.3c0,0,0.1-0.1,0.1-0.1c0.1-0.3,0.1-0.7,0.2-1
						C1226.3,601.6,1226.2,601.7,1226.1,601.8z M1227.7,597.1c0.1,0.1,0.2,0.1,0.3,0c0.2-0.2,0.3-0.4,0.4-0.6c0-0.2,0-0.3-0.2-0.3
						c0,0,0,0-0.1,0c-0.3,0.1-0.4,0.4-0.5,0.7C1227.7,597,1227.7,597.1,1227.7,597.1z M1227.7,598.4c-0.2,0.3-0.4,0.6-0.6,0.9
						c-0.1,0.1-0.1,0.3,0,0.3c0,0,0.2,0,0.2-0.1c0.1-0.2,0.3-0.4,0.4-0.6c0,0,0,0,0-0.1C1227.8,598.7,1227.8,598.5,1227.7,598.4
						C1227.7,598.3,1227.7,598.4,1227.7,598.4z"/>
					<path id="XMLID_898_" d="M1228.5,597.5c0.2,0.1,0.3,0.1,0.5,0.2c0,0,0,0.1,0,0.1c0,0.2,0,0.4,0,0.6c0,0.1,0.1,0.1,0.2,0
						c0.1-0.1,0.1-0.1,0.1-0.2c0-0.3,0-0.5,0-0.8c0-0.1,0-0.2-0.1-0.2c-0.2-0.1-0.5-0.2-0.7-0.2c-0.1,0-0.1,0-0.2,0.1
						c-0.1,0.1-0.3,0.3-0.4,0.5c0,0.1,0,0.1,0,0.2c0,0.4,0,0.8,0,1.2c0,0.1,0,0.1-0.1,0.2c-0.2,0.3-0.4,0.6-0.6,0.9
						c-0.1,0.1-0.1,0.2-0.1,0.3c-0.1,0.4-0.2,0.8-0.3,1.2c0,0.1,0,0.1,0,0.2c0,0.2,0.1,0.2,0.2,0.2c0.1,0,0.2-0.2,0.2-0.3
						c0.1-0.3,0.2-0.7,0.3-1c0.1-0.3,0.2-0.5,0.4-0.8c0.2-0.3,0.4-0.6,0.6-0.9c0.1-0.1,0.1-0.2,0.1-0.3
						C1228.5,598.2,1228.5,597.9,1228.5,597.5C1228.5,597.5,1228.5,597.5,1228.5,597.5z"/>
					<path id="XMLID_897_" d="M1228.5,599c-0.1,0.2-0.2,0.3-0.3,0.5c0,0,0,0,0,0.1c0.3,0.4,0.6,0.7,0.8,1.1c0.1,0.1,0.2,0.1,0.3-0.1
						c0.1-0.1,0.1-0.3,0.1-0.4C1229.1,599.7,1228.8,599.4,1228.5,599C1228.5,599,1228.5,599,1228.5,599z"/>
					<path id="XMLID_896_" d="M1227.7,601.7c0.2-0.1,0.5-0.3,0.7-0.4c0-0.3-0.1-0.6-0.1-0.9c-0.1,0.1-0.3,0.2-0.4,0.3
						C1227.8,601,1227.8,601.4,1227.7,601.7z"/>
					<path id="XMLID_895_" d="M1229.9,600.5c0.2-0.1,0.5-0.3,0.7-0.4c0,0,0,0,0,0c-0.1-0.2-0.3-0.4-0.4-0.6c0,0,0,0-0.1,0
						c-0.1,0.1-0.3,0.1-0.4,0.2C1229.8,599.9,1229.8,600.2,1229.9,600.5z"/>
					<path id="XMLID_894_" d="M1226.5,601.5c-0.1,0.1-0.3,0.2-0.4,0.2c0,0,0,0,0,0.1c-0.2,0.4-0.3,0.8-0.5,1.2c0,0,0.1,0,0.1-0.1
						c0.2-0.1,0.4-0.2,0.6-0.3c0,0,0.1-0.1,0.1-0.1C1226.3,602.2,1226.4,601.9,1226.5,601.5z"/>
					<path id="XMLID_893_" d="M1227.7,597c0,0.1,0,0.1,0,0.2c0.1,0.1,0.2,0.1,0.3,0c0.2-0.2,0.3-0.4,0.4-0.6c0-0.2,0-0.3-0.2-0.3
						c0,0,0,0-0.1,0C1227.9,596.4,1227.7,596.6,1227.7,597z"/>
					<path id="XMLID_892_" d="M1227.8,598.3C1227.7,598.3,1227.7,598.4,1227.8,598.3c-0.2,0.4-0.4,0.7-0.6,1c-0.1,0.1-0.1,0.3,0,0.3
						c0,0,0.2,0,0.2-0.1c0.1-0.2,0.3-0.4,0.4-0.6c0,0,0,0,0-0.1C1227.8,598.7,1227.8,598.5,1227.8,598.3z"/>
				</g>
			</g>
		</g>
	</g>
	<g class="st3">
		<g id="_x33_4_3_">
			<g>
				<path class="st35" d="M1131.9,613.1c0,0-0.2,1.2,1.2,2s2.2,1.2,3.1,0.9c0.8-0.3,4.3-2.5,4.7-2.8c0.9-0.6,1-2.1,1-2.1l-2.3,0.7
					l-5.2,0.8L1131.9,613.1z"/>
				<path class="st36" d="M1142.3,610.9L1142.3,610.9l0-0.7l-2.6-0.9c-0.5-0.3-0.9-0.5-0.9-0.5s-0.6-0.4-1.3,0
					c-0.2,0.1-0.5,0.3-1,0.6l-2,2.2l-3,0.3l0,0.5l0,0c0,0.6,0,0.6,0.3,0.8l2.9,1.7c0,0,0.5,0.5,1.4,0c0.9-0.5,6-3.5,6-3.5
					S1142.3,611.2,1142.3,610.9z"/>
				<path class="st36" d="M1131.7,612.4l2.9,1.7c0,0,0.5,0.5,1.4,0c0.9-0.5,6-3.4,6-3.4s0.6-0.4,0-0.9c-0.6-0.4-3.2-1.8-3.2-1.8
					s-0.6-0.4-1.3,0c-0.7,0.4-5.1,3.1-5.1,3.1S1130.7,611.9,1131.7,612.4z"/>
			</g>
			<path id="XMLID_884_" class="st36" d="M1111.7,635.5l0.2,0.1c-0.3-0.3-0.3-0.7,0-0.9l13.2-16.8c0.3-0.3,0.7-0.3,0.9,0l-0.2-0.1
				c0.3,0.3,0.3,0.7,0,0.9l-13.2,16.8C1112.4,635.8,1112,635.8,1111.7,635.5z"/>
			<g>
				<path class="st36" d="M1114.8,673.5l-4-0.1l-0.3,9.9c0,0.8,1.1,1.6,2.4,1.6s2.2-0.7,2.2-1.5L1114.8,673.5z"/>
				<path class="st36" d="M1114.8,673.5c0,0.7-0.8,1.4-2,1.4c-1.1,0-2-0.6-2-1.4c0-0.7,0.9-1.4,2-1.4
					C1114,672.1,1114.8,672.7,1114.8,673.5z"/>
				<path id="XMLID_883_" class="st36" d="M1112.5,625.4L1112.5,625.4c-0.2-0.3-0.1-0.7,0.2-0.9l19.9-11.5c0.3-0.2,0.7-0.1,0.9,0.2
					l0,0c0.2,0.3,0.1,0.7-0.2,0.9l-19.9,11.5C1113.1,625.9,1112.7,625.8,1112.5,625.4z"/>
				<path id="XMLID_882_" class="st36" d="M1112.9,673.9L1112.9,673.9c-0.5,0-1.1-0.5-1.1-1l0.2-47.4c0-0.5,0.4-1,1-1l0,0
					c0.5,0,1,0.4,1,1l0.2,47.3C1114.1,673.3,1113.6,673.9,1112.9,673.9z"/>
			</g>
			<g>
				<path id="XMLID_881_" class="st36" d="M1112.5,649.9L1112.5,649.9c-0.2,0.1-0.5,0.1-0.7-0.1l-2.9-4.3c-0.1-0.2-0.1-0.5,0.1-0.7
					l0,0c0.2-0.1,0.5-0.1,0.7,0.1l2.9,4.3C1112.7,649.4,1112.7,649.7,1112.5,649.9z"/>
				<polygon class="st37" points="1116.9,638.8 1116.8,639.6 1110.9,646.7 1100.9,640.9 1100.8,640.2 				"/>
				<polygon class="st36" points="1106.9,633.4 1116.9,638.8 1110.9,646 1100.8,640.2 				"/>
				<polygon class="st11" points="1101.9,639.9 1107,634.3 1115.8,639 1110.8,645 				"/>
				<line class="st16" x1="1114.6" y1="638.3" x2="1109.4" y2="644.2"/>
				<line class="st16" x1="1112.9" y1="637.5" x2="1107.8" y2="643.4"/>
			</g>
		</g>
		<line class="st16" x1="1111.2" y1="636.6" x2="1106.2" y2="642.4"/>
		<line class="st16" x1="1108.2" y1="634.9" x2="1103.1" y2="640.7"/>
		<line class="st16" x1="1109.7" y1="635.7" x2="1104.7" y2="641.5"/>
		<line class="st16" x1="1105.3" y1="636.1" x2="1114.1" y2="640.9"/>
		<line class="st16" x1="1112.3" y1="643.1" x2="1103.3" y2="638.2"/>
	</g>
	<g class="st3">
		<g id="_x33_4_2_">
			<g>
				<path class="st35" d="M1307.9,713.4c0,0-0.2,1.2,1.2,2s2.2,1.2,3.1,0.9c0.8-0.3,4.3-2.5,4.7-2.8c0.9-0.6,1-2.1,1-2.1l-2.3,0.7
					l-5.2,0.8L1307.9,713.4z"/>
				<path class="st36" d="M1318.3,711.2L1318.3,711.2l0-0.7l-2.6-0.9c-0.5-0.3-0.9-0.5-0.9-0.5s-0.6-0.4-1.3,0
					c-0.2,0.1-0.5,0.3-1,0.6l-2,2.2l-3,0.3l0,0.5l0,0c0,0.6,0,0.6,0.3,0.8l2.9,1.7c0,0,0.5,0.5,1.4,0c0.9-0.5,6-3.5,6-3.5
					S1318.3,711.5,1318.3,711.2z"/>
				<path class="st36" d="M1307.7,712.8l2.9,1.7c0,0,0.5,0.5,1.4,0c0.9-0.5,6-3.4,6-3.4s0.6-0.4,0-0.9c-0.6-0.4-3.2-1.8-3.2-1.8
					s-0.6-0.4-1.3,0c-0.7,0.4-5.1,3.1-5.1,3.1S1306.7,712.2,1307.7,712.8z"/>
			</g>
			<path id="XMLID_880_" class="st36" d="M1287.7,735.9l0.2,0.1c-0.3-0.3-0.3-0.7,0-0.9l13.2-16.8c0.3-0.3,0.7-0.3,0.9,0l-0.2-0.1
				c0.3,0.3,0.3,0.7,0,0.9l-13.2,16.8C1288.4,736.1,1287.9,736.1,1287.7,735.9z"/>
			<g>
				<path class="st36" d="M1290.8,773.8l-4-0.1l-0.3,9.9c0,0.8,1.1,1.6,2.4,1.6c1.3,0,2.2-0.7,2.2-1.5L1290.8,773.8z"/>
				<path class="st36" d="M1290.8,773.8c0,0.7-0.8,1.4-2,1.4c-1.1,0-2-0.6-2-1.4s0.9-1.4,2-1.4
					C1290,772.4,1290.8,773.1,1290.8,773.8z"/>
				<path id="XMLID_879_" class="st36" d="M1288.5,725.8L1288.5,725.8c-0.2-0.3-0.1-0.7,0.2-0.9l19.9-11.5c0.3-0.2,0.7-0.1,0.9,0.2
					l0,0c0.2,0.3,0.1,0.7-0.2,0.9l-19.9,11.5C1289.1,726.2,1288.7,726.1,1288.5,725.8z"/>
				<path id="XMLID_878_" class="st36" d="M1288.9,774.2L1288.9,774.2c-0.5,0-1.1-0.5-1.1-1l0.2-47.4c0-0.5,0.4-1,1-1l0,0
					c0.5,0,1,0.4,1,1l0.2,47.3C1290,773.7,1289.6,774.2,1288.9,774.2z"/>
			</g>
			<g>
				<path id="XMLID_877_" class="st36" d="M1288.4,750.2L1288.4,750.2c-0.2,0.1-0.5,0.1-0.7-0.1l-2.9-4.3c-0.1-0.2-0.1-0.5,0.1-0.7
					l0,0c0.2-0.1,0.5-0.1,0.7,0.1l2.9,4.3C1288.7,749.7,1288.7,750,1288.4,750.2z"/>
				<polygon class="st37" points="1292.8,739.1 1292.8,740 1286.9,747.1 1276.9,741.2 1276.8,740.5 				"/>
				<polygon class="st36" points="1282.9,733.8 1292.8,739.1 1286.8,746.3 1276.8,740.5 				"/>
				<polygon class="st11" points="1277.8,740.3 1282.9,734.6 1291.8,739.3 1286.7,745.3 				"/>
				<line class="st16" x1="1290.6" y1="738.7" x2="1285.4" y2="744.6"/>
				<line class="st16" x1="1288.9" y1="737.8" x2="1283.8" y2="743.7"/>
			</g>
		</g>
		<line class="st16" x1="1287.2" y1="736.9" x2="1282.1" y2="742.7"/>
		<line class="st16" x1="1284.1" y1="735.2" x2="1279.1" y2="741"/>
		<line class="st16" x1="1285.7" y1="736.1" x2="1280.6" y2="741.9"/>
		<line class="st16" x1="1281.3" y1="736.4" x2="1290.1" y2="741.2"/>
		<line class="st16" x1="1288.2" y1="743.4" x2="1279.3" y2="738.5"/>
	</g>
	<g class="st3">
		<g id="_x33_4_1_">
			<g>
				<path class="st35" d="M1484.6,815.9c0,0-0.2,1.2,1.2,2c1.3,0.8,2.2,1.2,3.1,0.9c0.8-0.3,4.3-2.5,4.7-2.8c0.9-0.6,1-2.1,1-2.1
					l-2.3,0.7l-5.2,0.8L1484.6,815.9z"/>
				<path class="st36" d="M1494.9,813.7L1494.9,813.7l0-0.7l-2.6-0.9c-0.5-0.3-0.9-0.5-0.9-0.5s-0.6-0.4-1.3,0
					c-0.2,0.1-0.5,0.3-1,0.6l-2,2.2l-3,0.3l0,0.5l0,0c0,0.6,0,0.6,0.3,0.8l2.9,1.7c0,0,0.5,0.5,1.4,0c0.9-0.5,6-3.5,6-3.5
					S1494.9,814,1494.9,813.7z"/>
				<path class="st36" d="M1484.4,815.3l2.9,1.7c0,0,0.5,0.5,1.4,0c0.9-0.5,6-3.4,6-3.4s0.6-0.4,0-0.9c-0.6-0.4-3.2-1.8-3.2-1.8
					s-0.6-0.4-1.3,0c-0.7,0.4-5.1,3.1-5.1,3.1S1483.4,814.7,1484.4,815.3z"/>
			</g>
			<path id="XMLID_876_" class="st36" d="M1464.3,838.4l0.2,0.1c-0.3-0.3-0.3-0.7,0-0.9l13.2-16.8c0.3-0.3,0.7-0.3,0.9,0l-0.2-0.1
				c0.3,0.3,0.3,0.7,0,0.9l-13.2,16.8C1465,838.6,1464.6,838.6,1464.3,838.4z"/>
			<g>
				<path class="st36" d="M1467.5,876.3l-4-0.1l-0.3,9.9c0,0.8,1.1,1.6,2.4,1.6c1.3,0,2.2-0.7,2.2-1.5L1467.5,876.3z"/>
				<path class="st36" d="M1467.5,876.3c0,0.7-0.8,1.4-2,1.4c-1.1,0-2-0.6-2-1.4c0-0.7,0.9-1.4,2-1.4
					C1466.6,875,1467.5,875.6,1467.5,876.3z"/>
				<path id="XMLID_875_" class="st36" d="M1465.2,828.3L1465.2,828.3c-0.2-0.3-0.1-0.7,0.2-0.9l19.9-11.5c0.3-0.2,0.7-0.1,0.9,0.2
					l0,0c0.2,0.3,0.1,0.7-0.2,0.9l-19.9,11.5C1465.8,828.7,1465.4,828.6,1465.2,828.3z"/>
				<path id="XMLID_874_" class="st36" d="M1465.5,876.7L1465.5,876.7c-0.5,0-1.1-0.5-1.1-1l0.2-47.4c0-0.5,0.4-1,1-1l0,0
					c0.5,0,1,0.4,1,1l0.2,47.3C1466.7,876.2,1466.2,876.7,1465.5,876.7z"/>
			</g>
			<g>
				<path id="XMLID_873_" class="st36" d="M1465.1,852.7L1465.1,852.7c-0.2,0.1-0.5,0.1-0.7-0.1l-2.9-4.3c-0.1-0.2-0.1-0.5,0.1-0.7
					l0,0c0.2-0.1,0.5-0.1,0.7,0.1l2.9,4.3C1465.4,852.3,1465.3,852.6,1465.1,852.7z"/>
				<polygon class="st37" points="1469.5,841.6 1469.5,842.5 1463.6,849.6 1453.6,843.7 1453.5,843 				"/>
				<polygon class="st36" points="1459.6,836.3 1469.5,841.6 1463.5,848.8 1453.5,843 				"/>
				<polygon class="st11" points="1454.5,842.8 1459.6,837.1 1468.4,841.8 1463.4,847.9 				"/>
				<line class="st16" x1="1467.3" y1="841.2" x2="1462.1" y2="847.1"/>
				<line class="st16" x1="1465.5" y1="840.3" x2="1460.4" y2="846.2"/>
			</g>
		</g>
		<line class="st16" x1="1463.9" y1="839.4" x2="1458.8" y2="845.2"/>
		<line class="st16" x1="1460.8" y1="837.8" x2="1455.8" y2="843.5"/>
		<line class="st16" x1="1462.3" y1="838.6" x2="1457.3" y2="844.4"/>
		<line class="st16" x1="1457.9" y1="838.9" x2="1466.7" y2="843.7"/>
		<line class="st16" x1="1464.9" y1="846" x2="1456" y2="841.1"/>
	</g>
</g>
</svg>
