<?xml version="1.0" encoding="utf-8"?>
<!-- Generator: Adobe Illustrator 23.0.4, SVG Export Plug-In . SVG Version: 6.00 Build 0)  -->
<svg version="1.1" xmlns="http://www.w3.org/2000/svg" xmlns:xlink="http://www.w3.org/1999/xlink" x="0px" y="0px"
	 viewBox="0 0 1920 1080" style="enable-background:new 0 0 1920 1080;" xml:space="preserve">
<style type="text/css">
	.st0{display:none;}
	.st1{display:inline;fill:#CFCAC5;}
	.st2{display:inline;fill:#EBE8E4;}
	.st3{display:inline;}
	.st4{fill:#343437;}
	.st5{fill:#FFFFFF;}
	.st6{fill:#666666;}
	.st7{fill:#3A3A3A;}
	.st8{fill:#4C4C4C;}
	.st9{fill:#C9C9C9;}
	.st10{fill:#F3F3F2;}
	.st11{fill:#ABC1D0;}
	.st12{fill:#E08D7D;}
	.st13{fill:#EED1CE;}
	.st14{fill:none;stroke:#222222;stroke-miterlimit:10;}
	.st15{fill:none;stroke:#3A4451;stroke-miterlimit:10;}
	.st16{fill:#3A4451;}
	.st17{fill:#889FB4;}
	.st18{fill:#7EDEBF;}
	.st19{fill:#CB7F74;}
	.st20{fill:#B46F6A;}
	.st21{display:inline;fill:#EED1CE;}
	.st22{display:inline;fill:#D1B8B8;}
	.st23{display:inline;fill:#F4E5E4;}
	.st24{fill:#E8D89C;}
	.st25{fill:#AAAEB7;}
	.st26{fill:#959A9F;}
	.st27{fill:#B6716D;}
	.st28{fill:#CD817A;}
	.st29{fill:#F4E5E4;}
	.st30{fill:#D1B8B8;}
	.st31{fill:none;stroke:#ABC1D0;stroke-width:4;stroke-linecap:round;stroke-linejoin:round;stroke-miterlimit:10;}
	.st32{fill:none;stroke:#CD817A;stroke-width:4;stroke-linecap:round;stroke-linejoin:round;stroke-miterlimit:10;}
</style>
<g id="isla5" class="st0">
	<path class="st1" d="M1388,186.3c0,0,96.7-28,229.4,14.9s141.4,198.1,159.3,266.2s40.2,250.8-111,286.1s-240.7,47.8-300.1,86.5
		c-59.4,38.7-313.6,26.8-404.8-29.8c-91.2-56.7-111.9-301,101.3-434.2S1388,186.3,1388,186.3z"/>
	<path class="st2" d="M1390.9,180.5c0,0,96.7-28,229.4,14.9s141.4,198.1,159.3,266.2s40.2,250.8-111,286.1
		c-151.2,35.2-240.7,47.8-300.1,86.5S1055,861,963.8,804.3c-91.2-56.7-111.9-301,101.3-434.2S1390.9,180.5,1390.9,180.5z"/>
</g>
<g id="carretera5" class="st0">
	<g class="st3">
		<path class="st4" d="M1598.9,0L1385,126l43.8,24.9L1685.9,0H1598.9z M1408.9,137.2l-1.9-1.1l11.3-6.5l1.9,1.1L1408.9,137.2z
			 M1432.6,123.4l-1.9-1.1l11.3-6.5l1.9,1.1L1432.6,123.4z M1455.6,110.1l-1.9-1.1l11.3-6.5l1.9,1.1L1455.6,110.1z M1483.2,93.8
			l-1.9-1.1l11.3-6.5l1.9,1.1L1483.2,93.8z M1506.2,80.5l-1.9-1.1l11.3-6.5l1.9,1.1L1506.2,80.5z M1534.4,64.2l-1.9-1.1l11.3-6.5
			l1.9,1.1L1534.4,64.2z M1557.4,50.9l-1.9-1.1l11.3-6.5l1.9,1.1L1557.4,50.9z M1589.9,32.1L1588,31l11.3-6.5l1.9,1.1L1589.9,32.1z
			 M1621.2,11.6l11.3-6.5l1.9,1.1l-11.3,6.5L1621.2,11.6z"/>
		<polygon class="st4" points="1590.9,0 1380.6,123.4 1382.5,124.5 1593.9,0 		"/>
		<polygon class="st4" points="1695.2,0 1690.9,0 1431.4,152.3 1433.2,153.3 1433.6,153.1 1433.6,153.1 		"/>
		<polygon class="st5" points="1382.1,124.8 1384.6,126.2 1385,126 1382.5,124.5 		"/>
		<polygon class="st5" points="1593.9,0 1382.5,124.5 1385,126 1598.9,0 		"/>
		<polygon class="st5" points="1427,152 1429.5,153.5 1431.4,152.3 1428.9,150.9 		"/>
		<polygon class="st5" points="1685.9,0 1428.9,150.9 1431.4,152.3 1690.9,0 		"/>
		<polygon class="st6" points="1707.4,0 1695.2,0 1433.6,153.1 1433.6,160.7 		"/>
		<polygon class="st6" points="1695.2,0 1433.6,153.1 1433.6,153.1 1695.2,0 		"/>
		<polygon class="st5" points="1532.6,63.1 1534.4,64.2 1545.7,57.6 1543.9,56.5 		"/>
		<polygon class="st5" points="1555.6,49.8 1557.4,50.9 1568.8,44.3 1566.9,43.3 		"/>
		<polygon class="st5" points="1588,31 1589.9,32.1 1601.2,25.5 1599.3,24.4 		"/>
		<polygon class="st5" points="1632.5,5.1 1621.2,11.6 1623,12.7 1634.3,6.2 		"/>
		<polygon class="st5" points="1481.3,92.7 1483.2,93.8 1494.5,87.3 1492.6,86.2 		"/>
		<polygon class="st5" points="1504.3,79.4 1506.2,80.5 1517.5,74 1515.6,72.9 		"/>
		<polygon class="st5" points="1430.7,122.3 1432.6,123.4 1443.9,116.9 1442,115.8 		"/>
		<polygon class="st5" points="1453.7,109.1 1455.6,110.1 1466.9,103.6 1465,102.5 		"/>
		<polygon class="st5" points="1407.1,136.1 1408.9,137.2 1420.2,130.6 1418.4,129.5 		"/>
		<g id="XMLID_180_">
			<polygon id="XMLID_195_" class="st7" points="1440.7,184 1388.5,214 1388.5,206.5 1440.7,176.3 			"/>
			<g id="XMLID_181_">
				<path id="XMLID_194_" class="st6" d="M1432,156.7c2.6-4.7,7.9-6.9,7.9-6.9l0,7.6c-4.3,2.7-7.1,6-8.2,9.3
					C1431.7,166.7,1429.4,161.4,1432,156.7z"/>
				<path id="XMLID_193_" class="st4" d="M1388.5,214c-20.8-12-31.2-27.5-31.3-43.2l0-7.7l31.3,43.4L1388.5,214z"/>
				<path id="XMLID_192_" class="st8" d="M1438,148.7l1.9,1.1c-12.1,7.5-11.9,19.2,0.7,26.5l-1.9,1.1
					C1425.3,169.6,1425,156.6,1438,148.7z"/>
				<path id="XMLID_191_" class="st8" d="M1390.3,205.4l-1.9,1.1c-41.5-24-41.8-62.6-0.8-86.8l1.9,1.1
					C1349.5,144.3,1349.8,182,1390.3,205.4z"/>
				<path id="XMLID_188_" class="st4" d="M1392.5,204.2l44.4-25.6c-14.7-8.5-15-22.3-0.7-31l-44-25.4
					C1353.4,145,1353.2,181.5,1392.5,204.2z M1394.2,167.8l0.2-10.1l2.8,0l-0.2,10.1L1394.2,167.8z"/>
				<path id="XMLID_187_" class="st5" d="M1435.6,147.3l2.5,1.4c-13,8-12.8,20.9,0.7,28.7l-2.5,1.4
					C1421.6,170.3,1421.4,156,1435.6,147.3z"/>
				<g id="XMLID_183_">
					<polygon id="XMLID_186_" class="st5" points="1402.4,176.8 1411.3,185.3 1408.9,186.2 1400,177.6 					"/>
					<polygon id="XMLID_185_" class="st5" points="1397.1,157.7 1397,167.8 1394.2,167.8 1394.3,157.7 					"/>
					<polygon id="XMLID_184_" class="st5" points="1404.9,139.6 1396.1,148.4 1393.7,147.6 1402.5,138.8 					"/>
				</g>
				<path id="XMLID_182_" class="st5" d="M1392.8,204l-2.5,1.4c-40.5-23.4-40.8-61.1-0.8-84.6l2.6,1.4
					C1353.4,145,1353.6,181.3,1392.8,204z"/>
			</g>
		</g>
		<g>
			<g id="XMLID_802_">
				<g id="XMLID_804_">
					<g id="XMLID_805_">
						<polygon id="XMLID_808_" class="st4" points="1683.3,376.5 1383.9,203.8 1436.5,173.5 1735.8,346.2 						"/>
						<polygon id="XMLID_807_" class="st5" points="1731.4,348.6 1432.1,176 1434.6,174.6 1733.9,347.1 						"/>
						<polygon id="XMLID_806_" class="st5" points="1685.3,375.1 1385.8,202.7 1388.3,201.3 1687.8,373.6 						"/>
					</g>
				</g>
				<polygon id="XMLID_803_" class="st7" points="1383.9,211.4 1684,384.1 1684,376.5 1383.9,203.8 				"/>
			</g>
			<polygon id="XMLID_801_" class="st5" points="1448.9,209.4 1460.2,215.9 1458.3,217 1447,210.5 			"/>
			<polygon id="XMLID_800_" class="st5" points="1425.9,196.1 1437.2,202.6 1435.3,203.7 1424,197.2 			"/>
			<polygon id="XMLID_799_" class="st5" points="1500.1,239 1511.4,245.6 1509.5,246.6 1498.2,240.1 			"/>
			<polygon id="XMLID_798_" class="st5" points="1477.1,225.7 1488.4,232.3 1486.5,233.4 1475.2,226.8 			"/>
			<polygon id="XMLID_797_" class="st5" points="1550.7,268.7 1562,275.2 1560.1,276.3 1548.8,269.7 			"/>
			<polygon id="XMLID_796_" class="st5" points="1527.7,255.4 1539,261.9 1537.1,263 1525.8,256.5 			"/>
			<polygon id="XMLID_795_" class="st5" points="1601.9,298.3 1613.2,304.8 1611.4,305.9 1600,299.4 			"/>
			<polygon id="XMLID_793_" class="st5" points="1627.3,312.8 1638.7,319.3 1636.8,320.4 1625.5,313.9 			"/>
			<polygon id="XMLID_792_" class="st5" points="1655.6,328.8 1667,335.3 1665.1,336.4 1653.8,329.9 			"/>
			<polygon id="XMLID_791_" class="st5" points="1578.9,285 1590.2,291.5 1588.4,292.6 1577,286.1 			"/>
			<polygon id="XMLID_790_" class="st5" points="1681.9,344 1693.2,350.6 1691.3,351.6 1680,345.1 			"/>
		</g>
		<g>
			<g id="XMLID_773_">
				<polygon id="XMLID_789_" class="st7" points="1682.4,410 1734.7,440 1734.7,432.5 1682.4,402.3 				"/>
				<g id="XMLID_774_">
					<path id="XMLID_788_" class="st7" d="M1691.1,382.7c-2.6-4.7-7.9-6.9-7.9-6.9l0,7.6c4.3,2.7,7.1,6,8.2,9.3
						C1691.4,392.7,1693.7,387.4,1691.1,382.7z"/>
					<path id="XMLID_787_" class="st6" d="M1734.7,440c20.8-12,31.2-27.5,31.3-43.2l0-7.7l-31.3,43.4L1734.7,440z"/>
					<path id="XMLID_786_" class="st8" d="M1685.1,374.7l-1.9,1.1c12.1,7.5,11.9,19.2-0.7,26.5l1.9,1.1
						C1697.8,395.6,1698.1,382.7,1685.1,374.7z"/>
					<path id="XMLID_785_" class="st8" d="M1732.8,431.4l1.9,1.1c41.5-24,41.8-62.6,0.8-86.8l-1.9,1.1
						C1773.6,370.3,1773.3,408,1732.8,431.4z"/>
					<path id="XMLID_781_" class="st4" d="M1731,348.2l-44,25.4c14.2,8.7,14,22.4-0.7,31l44.4,25.6
						C1769.9,407.5,1769.7,371,1731,348.2z M1721.4,373.8l-8.8-8.7l2.4-0.8l8.8,8.7L1721.4,373.8z M1726.2,393.8l-0.2-10.1l2.8,0
						l0.2,10.1L1726.2,393.8z"/>
					<path id="XMLID_780_" class="st5" d="M1687.5,373.3l-2.5,1.4c13,8,12.8,20.9-0.7,28.7l2.5,1.4
						C1701.5,396.3,1701.7,382,1687.5,373.3z"/>
					<g id="XMLID_776_">
						<polygon id="XMLID_779_" class="st5" points="1720.8,402.8 1711.8,411.3 1714.2,412.2 1723.2,403.6 						"/>
						<polygon id="XMLID_778_" class="st5" points="1726,383.7 1726.2,393.8 1728.9,393.8 1728.8,383.7 						"/>
						<polygon id="XMLID_777_" class="st5" points="1712.6,365 1721.4,373.8 1723.8,373 1715,364.2 						"/>
					</g>
					<path id="XMLID_775_" class="st5" d="M1730.3,430l2.5,1.4c40.5-23.4,40.8-61.1,0.8-84.6l-2.6,1.4
						C1769.7,371,1769.5,407.3,1730.3,430z"/>
				</g>
			</g>
			<g id="XMLID_766_">
				<g id="XMLID_768_">
					<g id="XMLID_769_">
						<polygon id="XMLID_772_" class="st4" points="928.3,901.1 1736.2,431.6 1684,401.5 876.2,870.9 						"/>
						<polygon id="XMLID_771_" class="st5" points="883,871.5 1688.4,404 1685.9,402.5 880.5,870.1 						"/>
						<polygon id="XMLID_770_" class="st5" points="926.5,899.7 1734.4,430.5 1731.9,429.1 924,898.3 						"/>
					</g>
				</g>
				<polygon id="XMLID_767_" class="st6" points="1736.2,439.1 927.4,908.5 927.4,901 1736.2,431.6 				"/>
			</g>
			<polygon id="XMLID_765_" class="st5" points="1625.4,464.8 1614.1,471.3 1616,472.4 1627.3,465.9 			"/>
			<polygon id="XMLID_764_" class="st5" points="1700.8,419.8 1689.5,426.4 1691.3,427.5 1702.6,420.9 			"/>
			<polygon id="XMLID_763_" class="st5" points="1575.2,493.6 1563.9,500.2 1565.7,501.3 1577.1,494.7 			"/>
			<polygon id="XMLID_762_" class="st5" points="1598.5,480.4 1587.2,486.9 1589.1,488 1600.4,481.4 			"/>
			<polygon id="XMLID_761_" class="st5" points="1547.2,509.9 1535.9,516.4 1537.8,517.5 1549.1,510.9 			"/>
			<polygon id="XMLID_760_" class="st5" points="1520.4,525.4 1509.1,531.9 1510.9,533 1522.3,526.5 			"/>
			<polygon id="XMLID_755_" class="st5" points="1469.1,554.5 1457.8,561 1459.7,562.1 1471,555.6 			"/>
			<polygon id="XMLID_754_" class="st5" points="1492.1,541.2 1480.8,547.8 1482.7,548.8 1494,542.3 			"/>
			<polygon id="XMLID_753_" class="st5" points="1416.4,584.9 1405.1,591.5 1407,592.6 1418.3,586 			"/>
			<polygon id="XMLID_752_" class="st5" points="1440.7,570.8 1429.4,577.4 1431.3,578.5 1442.6,571.9 			"/>
			<polygon id="XMLID_751_" class="st5" points="1366.2,613.8 1354.9,620.3 1356.8,621.4 1368.1,614.9 			"/>
			<polygon id="XMLID_750_" class="st5" points="1389.6,600.5 1378.3,607 1380.1,608.1 1391.4,601.6 			"/>
			<polygon id="XMLID_749_" class="st5" points="1338.3,630 1327,636.5 1328.8,637.6 1340.1,631.1 			"/>
			<polygon id="XMLID_748_" class="st5" points="1311.4,645.5 1300.1,652.1 1302,653.2 1313.3,646.6 			"/>
			<polygon id="XMLID_747_" class="st5" points="1263.4,674.5 1252.1,681.1 1253.9,682.2 1265.3,675.6 			"/>
			<polygon id="XMLID_746_" class="st5" points="1286.4,661.3 1275.1,667.8 1277,668.9 1288.3,662.3 			"/>
			<polygon id="XMLID_745_" class="st5" points="1210.7,705 1199.4,711.5 1201.3,712.6 1212.6,706.1 			"/>
			<polygon id="XMLID_744_" class="st5" points="1235,690.9 1223.7,697.4 1225.6,698.5 1236.9,692 			"/>
			<polygon id="XMLID_743_" class="st5" points="1183.8,720.5 1172.5,727.1 1174.4,728.1 1185.7,721.6 			"/>
			<polygon id="XMLID_742_" class="st5" points="1157.6,735.8 1146.3,742.3 1148.1,743.4 1159.5,736.9 			"/>
			<polygon id="XMLID_741_" class="st5" points="1131.7,750.8 1120.3,757.3 1122.2,758.4 1133.5,751.9 			"/>
			<polygon id="XMLID_740_" class="st5" points="1105.8,765.9 1094.5,772.4 1096.3,773.5 1107.7,767 			"/>
			<polygon id="XMLID_739_" class="st5" points="1078.7,781.4 1067.4,788 1069.3,789 1080.6,782.5 			"/>
			<polygon id="XMLID_738_" class="st5" points="1049.4,798.4 1038.1,805 1040,806 1051.3,799.5 			"/>
			<polygon id="XMLID_737_" class="st5" points="1023.7,813.3 1012.4,819.9 1014.2,820.9 1025.6,814.4 			"/>
			<polygon id="XMLID_736_" class="st5" points="997.4,828.2 986.1,834.8 988,835.9 999.3,829.3 			"/>
			<polygon id="XMLID_735_" class="st5" points="970.3,844.2 959,850.7 960.9,851.8 972.2,845.3 			"/>
			<polygon id="XMLID_734_" class="st5" points="943.4,859.5 932.1,866 934,867.1 945.3,860.5 			"/>
			<polygon id="XMLID_733_" class="st5" points="920.2,872.7 908.9,879.3 910.8,880.4 922.1,873.8 			"/>
			<g>
				<g>
					<polygon class="st5" points="1671.8,436.2 1641.8,453.6 1638.1,451.4 1668.1,434.1 					"/>
					<polygon class="st5" points="1678.7,440.2 1648.7,457.5 1645,455.4 1675,438 					"/>
					<polygon class="st5" points="1685.6,444.2 1655.6,461.5 1651.8,459.3 1681.8,442 					"/>
					<polygon class="st5" points="1692.4,448.1 1662.4,465.5 1658.7,463.3 1688.7,446 					"/>
				</g>
				<g>
					<polygon class="st5" points="1657.7,428.7 1627.7,446 1624,443.9 1654,426.6 					"/>
					<polygon class="st5" points="1664.6,432.7 1634.6,450 1630.8,447.9 1660.8,430.5 					"/>
				</g>
			</g>
		</g>
		<g id="XMLID_224_">
			<polygon id="XMLID_243_" class="st7" points="932.7,932.7 880.5,962.7 880.5,955.1 932.7,925 			"/>
			<g id="XMLID_225_">
				<path id="XMLID_242_" class="st7" d="M924.1,905.4c2.6-4.7,7.9-6.9,7.9-6.9l0,7.6c-4.3,2.7-7.1,6-8.2,9.3
					C923.7,915.3,921.5,910.1,924.1,905.4z"/>
				<path id="XMLID_241_" class="st6" d="M880.5,962.7c-20.8-12-31.2-27.5-31.3-43.2l0-7.7l31.3,43.4L880.5,962.7z"/>
				<path id="XMLID_240_" class="st8" d="M930,897.3l1.9,1.1c-12.1,7.5-11.9,19.2,0.7,26.5l-1.9,1.1
					C917.4,918.3,917.1,905.3,930,897.3z"/>
				<path id="XMLID_239_" class="st8" d="M882.4,954.1l-1.9,1.1c-41.5-24-41.8-62.6-0.8-86.8l1.9,1.1
					C841.6,893,841.9,930.7,882.4,954.1z"/>
				<path id="XMLID_232_" class="st4" d="M884.5,952.8l44.4-25.6c-14.7-8.5-15-22.3-0.7-31l-44-25.4
					C845.4,893.7,845.3,930.2,884.5,952.8z M891.3,895.6l8.8-8.7l2.4,0.8l-8.8,8.7L891.3,895.6z M886.2,916.5l0.2-10.1l2.8,0
					l-0.2,10.1L886.2,916.5z"/>
				<path id="XMLID_231_" class="st5" d="M927.6,896l2.5,1.4c-13,8-12.8,20.9,0.7,28.7l-2.5,1.4C913.6,919,913.4,904.6,927.6,896z"
					/>
				<g id="XMLID_227_">
					<polygon id="XMLID_230_" class="st5" points="894.4,925.4 903.3,934 900.9,934.8 892,926.3 					"/>
					<polygon id="XMLID_229_" class="st5" points="889.2,906.4 889,916.5 886.2,916.5 886.4,906.4 					"/>
					<polygon id="XMLID_228_" class="st5" points="902.5,887.7 893.7,896.4 891.3,895.6 900.1,886.9 					"/>
				</g>
				<path id="XMLID_226_" class="st5" d="M884.8,952.6l-2.5,1.4c-40.5-23.4-40.8-61.1-0.8-84.6l2.6,1.4
					C845.4,893.7,845.6,930,884.8,952.6z"/>
			</g>
		</g>
		<g id="XMLID_207_">
			<polygon id="XMLID_223_" class="st7" points="878.7,988.6 931,1018.5 931,1011 878.7,980.9 			"/>
			<g id="XMLID_208_">
				<path id="XMLID_222_" class="st7" d="M887.4,961.2c-2.6-4.7-7.9-6.9-7.9-6.9l0,7.6c4.3,2.7,7.1,6,8.2,9.3
					C887.7,971.2,890,966,887.4,961.2z"/>
				<path id="XMLID_221_" class="st6" d="M931,1018.5c20.8-12,31.2-27.5,31.3-43.2l0-7.7L931,1011L931,1018.5z"/>
				<path id="XMLID_220_" class="st8" d="M881.4,953.2l-1.9,1.1c12.1,7.5,11.9,19.2-0.7,26.5l1.9,1.1
					C894.1,974.2,894.4,961.2,881.4,953.2z"/>
				<path id="XMLID_219_" class="st8" d="M929.1,1010l1.9,1.1c41.5-24,41.8-62.6,0.8-86.8l-1.9,1.1
					C969.9,948.9,969.6,986.6,929.1,1010z"/>
				<path id="XMLID_215_" class="st4" d="M927.3,926.7l-44,25.4c14.2,8.7,14,22.4-0.7,31l44.4,25.6
					C966.2,986.1,966.1,949.6,927.3,926.7z M917.7,952.3l-8.8-8.7l2.4-0.8l8.8,8.7L917.7,952.3z M922.5,972.4l-0.2-10.1l2.8,0
					l0.2,10.1L922.5,972.4z"/>
				<path id="XMLID_214_" class="st5" d="M883.8,951.8l-2.5,1.4c13,8,12.8,20.9-0.7,28.7l2.5,1.4C897.8,974.9,898,960.5,883.8,951.8
					z"/>
				<g id="XMLID_210_">
					<polygon id="XMLID_213_" class="st5" points="917.1,981.3 908.1,989.9 910.5,990.7 919.5,982.2 					"/>
					<polygon id="XMLID_212_" class="st5" points="922.3,962.3 922.5,972.4 925.3,972.4 925.1,962.3 					"/>
					<polygon id="XMLID_211_" class="st5" points="908.9,943.6 917.7,952.3 920.1,951.5 911.3,942.8 					"/>
				</g>
				<path id="XMLID_209_" class="st5" d="M926.6,1008.5l2.5,1.4c40.5-23.4,40.8-61.1,0.8-84.6l-2.6,1.4
					C966.1,949.6,965.8,985.9,926.6,1008.5z"/>
			</g>
		</g>
		<path class="st4" d="M753.6,1080l3.7-2.1l1.9,1.1l-1.8,1h46.2l123.1-71.4L883,983.4L716.6,1080H753.6z M889,1002.1l1.9,1.1
			l-11.3,6.5l-1.9-1.1L889,1002.1z M853.4,1022.5l1.9,1.1l-11.3,6.5l-1.9-1.1L853.4,1022.5z M818.7,1042.7l1.9,1.1l-11.3,6.5
			l-1.9-1.1L818.7,1042.7z M785.4,1061.5l1.9,1.1l-11.3,6.5l-1.9-1.1L785.4,1061.5z"/>
		<polygon class="st4" points="812.1,1080 930.9,1011 929.2,1010 808.6,1080 		"/>
		<polygon class="st4" points="880.6,981.9 878.7,980.9 707.9,1080 711.6,1080 		"/>
		<polygon class="st5" points="884.8,982.3 882.4,980.9 880.6,981.9 883,983.4 		"/>
		<polygon class="st5" points="716.6,1080 883,983.4 880.6,981.9 711.6,1080 		"/>
		<polygon class="st5" points="932.4,1008.2 929.9,1006.7 926.7,1008.6 929.2,1010 		"/>
		<polygon class="st5" points="808.6,1080 929.2,1010 926.7,1008.6 803.6,1080 		"/>
		<polygon class="st6" points="930.9,1018.6 930.9,1011 812.1,1080 825.1,1080 		"/>
		<polygon class="st5" points="787.2,1062.6 785.4,1061.5 774,1068 775.9,1069.1 		"/>
		<polygon class="st5" points="820.6,1043.8 818.7,1042.7 807.4,1049.3 809.3,1050.3 		"/>
		<polygon class="st5" points="855.2,1023.6 853.4,1022.5 842,1029.1 843.9,1030.2 		"/>
		<polygon class="st5" points="890.9,1003.2 889,1002.1 877.7,1008.7 879.6,1009.7 		"/>
	</g>
</g>
<g id="c3-5" class="st0">
	<g class="st3">
		<polygon class="st9" points="1462.5,793.2 1437.2,792.3 1356.9,746.3 1402.6,719.9 1462.2,722.7 1462.5,793.2 		"/>
		<polygon class="st10" points="1578.1,555.9 1578.1,726.5 1462.5,793.2 1462.5,622.6 1578.1,555.9 		"/>
		<polygon class="st11" points="1392.9,582.4 1392.9,753.1 1462.5,793.2 1462.5,622.6 1392.9,582.4 		"/>
		<g>
			<polygon class="st11" points="1578.1,555.9 1462.5,622.6 1392.9,582.4 1508.5,515.7 			"/>
			<polygon class="st5" points="1462.5,620.4 1396.7,582.4 1508.5,517.9 1574.3,555.9 			"/>
		</g>
		<g>
			<polygon class="st12" points="1562.7,593.9 1556.4,597.5 1556.4,586.6 1562.7,583 			"/>
			<g>
				<polygon class="st12" points="1484.9,638.6 1478.6,642.2 1478.6,631.3 1484.9,627.7 				"/>
				<polygon class="st12" points="1484.9,656.4 1478.6,660 1478.6,649.2 1484.9,645.6 				"/>
				<polygon class="st12" points="1484.9,674.3 1478.6,677.9 1478.6,667.1 1484.9,663.4 				"/>
				<polygon class="st12" points="1484.9,692.2 1478.6,695.8 1478.6,684.9 1484.9,681.3 				"/>
				<polygon class="st12" points="1484.9,710 1478.6,713.7 1478.6,702.8 1484.9,699.2 				"/>
				<polygon class="st12" points="1484.9,727.9 1478.6,731.5 1478.6,720.7 1484.9,717 				"/>
				<polygon class="st12" points="1500.4,629.6 1494.1,633.2 1494.1,622.4 1500.4,618.8 				"/>
				<polygon class="st12" points="1500.4,647.5 1494.1,651.1 1494.1,640.3 1500.4,636.6 				"/>
				<polygon class="st12" points="1500.4,665.4 1494.1,669 1494.1,658.1 1500.4,654.5 				"/>
				<polygon class="st12" points="1500.4,683.2 1494.1,686.9 1494.1,676 1500.4,672.4 				"/>
				<polygon class="st12" points="1500.4,701.1 1494.1,704.7 1494.1,693.9 1500.4,690.2 				"/>
				<polygon class="st12" points="1500.4,719 1494.1,722.6 1494.1,711.7 1500.4,708.1 				"/>
				<polygon class="st12" points="1516,620.7 1509.7,624.3 1509.7,613.4 1516,609.8 				"/>
				<polygon class="st12" points="1516,638.6 1509.7,642.2 1509.7,631.3 1516,627.7 				"/>
				<polygon class="st12" points="1516,656.4 1509.7,660 1509.7,649.2 1516,645.6 				"/>
				<polygon class="st12" points="1516,674.3 1509.7,677.9 1509.7,667 1516,663.4 				"/>
				<polygon class="st12" points="1516,692.2 1509.7,695.8 1509.7,684.9 1516,681.3 				"/>
				<polygon class="st12" points="1516,710 1509.7,713.7 1509.7,702.8 1516,699.2 				"/>
				<polygon class="st12" points="1531.6,611.7 1525.3,615.4 1525.3,604.5 1531.6,600.9 				"/>
				<polygon class="st12" points="1531.6,629.6 1525.3,633.2 1525.3,622.4 1531.6,618.8 				"/>
				<polygon class="st12" points="1531.6,647.5 1525.3,651.1 1525.3,640.2 1531.6,636.6 				"/>
				<polygon class="st12" points="1531.6,665.4 1525.3,669 1525.3,658.1 1531.6,654.5 				"/>
				<polygon class="st12" points="1531.6,683.2 1525.3,686.8 1525.3,676 1531.6,672.4 				"/>
				<polygon class="st12" points="1531.6,701.1 1525.3,704.7 1525.3,693.8 1531.6,690.2 				"/>
				<polygon class="st12" points="1547.1,602.8 1540.9,606.4 1540.9,595.6 1547.1,592 				"/>
				<polygon class="st12" points="1547.1,620.7 1540.9,624.3 1540.9,613.4 1547.1,609.8 				"/>
				<polygon class="st12" points="1547.1,638.5 1540.9,642.2 1540.9,631.3 1547.1,627.7 				"/>
				<polygon class="st12" points="1547.1,656.4 1540.9,660 1540.9,649.2 1547.1,645.6 				"/>
				<polygon class="st12" points="1547.1,674.3 1540.9,677.9 1540.9,667 1547.1,663.4 				"/>
				<polygon class="st12" points="1547.1,692.1 1540.9,695.8 1540.9,684.9 1547.1,681.3 				"/>
				<polygon class="st12" points="1562.7,611.7 1556.4,615.4 1556.4,604.5 1562.7,600.9 				"/>
				<polygon class="st12" points="1562.7,629.6 1556.4,633.2 1556.4,622.4 1562.7,618.7 				"/>
				<polygon class="st12" points="1562.7,647.5 1556.4,651.1 1556.4,640.2 1562.7,636.6 				"/>
				<polygon class="st12" points="1562.7,665.4 1556.4,669 1556.4,658.1 1562.7,654.5 				"/>
				<polygon class="st12" points="1562.7,683.2 1556.4,686.8 1556.4,676 1562.7,672.4 				"/>
			</g>
		</g>
		<polygon class="st5" points="1436.1,636.6 1442.4,640.2 1442.4,629.4 1436.1,625.8 		"/>
		<polygon class="st5" points="1436.1,654.5 1442.4,658.1 1442.4,647.3 1436.1,643.6 		"/>
		<polygon class="st5" points="1436.1,672.4 1442.4,676 1442.4,665.1 1436.1,661.5 		"/>
		<polygon class="st5" points="1436.1,690.2 1442.4,693.9 1442.4,683 1436.1,679.4 		"/>
		<polygon class="st5" points="1436.1,708.1 1442.4,711.7 1442.4,700.9 1436.1,697.2 		"/>
		<polygon class="st5" points="1436.1,726 1442.4,729.6 1442.4,718.7 1436.1,715.1 		"/>
		<polygon class="st5" points="1420.5,627.7 1426.8,631.3 1426.8,620.4 1420.5,616.8 		"/>
		<polygon class="st5" points="1420.5,645.6 1426.8,649.2 1426.8,638.3 1420.5,634.7 		"/>
		<polygon class="st5" points="1420.5,663.4 1426.8,667 1426.8,656.2 1420.5,652.6 		"/>
		<polygon class="st5" points="1420.5,681.3 1426.8,684.9 1426.8,674.1 1420.5,670.4 		"/>
		<polygon class="st5" points="1420.5,699.2 1426.8,702.8 1426.8,691.9 1420.5,688.3 		"/>
		<polygon class="st5" points="1420.5,717 1426.8,720.7 1426.8,709.8 1420.5,706.2 		"/>
		<g>
			<polygon class="st9" points="1518.2,540.3 1496,553.2 1482.3,545.4 1504.5,532.5 			"/>
			<polygon class="st5" points="1490,535.9 1499.3,541.2 1518.5,530.1 1509.3,524.7 			"/>
			<polygon class="st13" points="1490.6,535.9 1509.3,525.1 1518,530.1 1499.3,540.9 			"/>
			<polygon class="st12" points="1518.5,530.1 1518.5,540.2 1499.3,551.3 1499.3,541.2 			"/>
			<polygon class="st11" points="1499.3,541.2 1499.3,551.3 1490,545.9 1490,535.9 			"/>
		</g>
		<g>
			<polygon class="st9" points="1544.5,555.6 1522.3,568.5 1508.6,560.6 1530.9,547.7 			"/>
			<polygon class="st5" points="1516.4,551.1 1525.6,556.4 1544.9,545.3 1535.6,540 			"/>
			<polygon class="st13" points="1516.9,551.1 1535.6,540.3 1544.3,545.3 1525.6,556.1 			"/>
			<polygon class="st12" points="1544.9,545.3 1544.9,555.4 1525.6,566.5 1525.6,556.4 			"/>
			<polygon class="st11" points="1525.6,556.4 1525.6,566.5 1516.4,561.2 1516.4,551.1 			"/>
		</g>
		<g>
			<polygon class="st9" points="1447.8,578.3 1425.5,591.2 1411.9,583.3 1434.1,570.4 			"/>
			<polygon class="st5" points="1419.6,573.8 1428.8,579.2 1448.1,568.1 1438.9,562.7 			"/>
			<polygon class="st13" points="1420.1,573.8 1438.9,563 1447.6,568.1 1428.8,578.9 			"/>
			<polygon class="st12" points="1448.1,568.1 1448.1,578.1 1428.8,589.3 1428.8,579.2 			"/>
			<polygon class="st11" points="1428.8,579.2 1428.8,589.3 1419.6,583.9 1419.6,573.8 			"/>
		</g>
		<g>
			<polygon class="st9" points="1474.1,593.5 1451.8,606.4 1438.2,598.5 1460.4,585.7 			"/>
			<polygon class="st5" points="1445.9,589 1455.2,594.4 1474.4,583.3 1465.2,577.9 			"/>
			<polygon class="st13" points="1446.5,589 1465.2,578.3 1473.9,583.3 1455.2,594.1 			"/>
			<polygon class="st12" points="1474.4,583.3 1474.4,593.3 1455.2,604.5 1455.2,594.4 			"/>
			<polygon class="st11" points="1455.2,594.4 1455.2,604.5 1445.9,599.1 1445.9,589 			"/>
		</g>
		<g>
			<polyline class="st15" points="1485,627.9 1485,638.7 1478.6,642.2 			"/>
			<polyline class="st15" points="1484.9,645.6 1484.9,656.4 1478.6,660 			"/>
			<polyline class="st15" points="1484.9,663.4 1484.9,674.3 1478.6,677.9 			"/>
			<polyline class="st15" points="1500.4,618.8 1500.4,629.6 1494.1,633.2 			"/>
			<polyline class="st15" points="1500.4,636.6 1500.4,647.5 1494.1,651.1 			"/>
			<polyline class="st15" points="1516,609.8 1516,620.7 1509.7,624.3 			"/>
			<polyline class="st15" points="1516,627.7 1516,638.6 1509.7,642.2 			"/>
			<polyline class="st15" points="1531.6,600.9 1531.6,611.7 1525.3,615.4 			"/>
			<polyline class="st15" points="1531.6,618.8 1531.6,629.6 1525.3,633.2 			"/>
			<polyline class="st15" points="1547.1,592 1547.1,602.8 1540.9,606.4 			"/>
			<polyline class="st15" points="1562.7,583 1562.7,593.9 1556.4,597.5 			"/>
			<polyline class="st15" points="1562.7,600.9 1562.7,611.7 1556.4,615.4 			"/>
			<polyline class="st15" points="1547.1,609.8 1547.1,620.7 1540.9,624.3 			"/>
			<polyline class="st15" points="1562.7,618.7 1562.7,629.6 1556.4,633.2 			"/>
			<polyline class="st15" points="1547.1,627.7 1547.1,638.5 1540.9,642.2 			"/>
			<polyline class="st15" points="1531.6,636.6 1531.6,647.5 1525.3,651.1 			"/>
			<polyline class="st15" points="1516,645.6 1516,656.4 1509.7,660 			"/>
			<polyline class="st15" points="1500.4,654.5 1500.4,665.4 1494.1,669 			"/>
			<polyline class="st15" points="1484.9,681.3 1484.9,692.2 1478.6,695.8 			"/>
			<polyline class="st15" points="1484.9,699.2 1484.9,710 1478.6,713.7 			"/>
			<polyline class="st15" points="1484.9,717 1484.9,727.9 1478.6,731.5 			"/>
			<polyline class="st15" points="1494.1,722.6 1500.4,719 1500.4,708.1 			"/>
			<polyline class="st15" points="1494.1,704.7 1500.4,701.1 1500.4,690.2 			"/>
			<polyline class="st15" points="1494.1,686.9 1500.4,683.2 1500.4,672.4 			"/>
			<polyline class="st15" points="1516,663.4 1516,674.3 1509.7,677.9 			"/>
			<polyline class="st15" points="1516,681.3 1516,692.2 1509.7,695.8 			"/>
			<polyline class="st15" points="1516,699.2 1516,710 1509.7,713.7 			"/>
			<polyline class="st15" points="1525.3,704.7 1531.6,701.1 1531.6,690.2 			"/>
			<polyline class="st15" points="1531.6,672.4 1531.6,683.2 1525.3,686.8 			"/>
			<polyline class="st15" points="1531.6,654.5 1531.6,665.4 1525.3,669 			"/>
			<polyline class="st15" points="1547.1,645.6 1547.1,656.4 1540.9,660 			"/>
			<polyline class="st15" points="1547.1,663.4 1547.1,674.3 1540.9,677.9 			"/>
			<polyline class="st15" points="1547.1,681.3 1547.1,692.1 1540.9,695.8 			"/>
			<polyline class="st15" points="1562.7,672.4 1562.7,683.2 1556.4,686.8 			"/>
			<polyline class="st15" points="1562.7,654.5 1562.7,665.4 1556.4,669 			"/>
			<polyline class="st15" points="1562.7,636.6 1562.7,647.5 1556.4,651.1 			"/>
		</g>
		<polyline class="st14" points="1436.1,625.8 1436.1,636.6 1442.4,640.2 		"/>
		<polyline class="st14" points="1436.1,643.6 1436.1,654.5 1442.4,658.1 		"/>
		<polyline class="st14" points="1420.5,634.7 1420.5,645.6 1426.8,649.2 		"/>
		<polyline class="st14" points="1420.5,616.8 1420.5,627.7 1426.8,631.3 		"/>
		<polyline class="st14" points="1420.5,652.6 1420.5,663.4 1426.8,667 		"/>
		<polyline class="st14" points="1420.5,670.4 1420.5,681.3 1426.8,684.9 		"/>
		<polyline class="st14" points="1420.5,688.3 1420.5,699.2 1426.8,702.8 		"/>
		<polyline class="st14" points="1442.4,693.9 1436.1,690.2 1436.1,679.4 		"/>
		<polyline class="st14" points="1442.4,676 1436.1,672.4 1436.1,661.5 		"/>
		<polyline class="st14" points="1436.1,697.2 1436.1,708.1 1442.4,711.7 		"/>
		<polyline class="st14" points="1436.1,715.1 1436.1,726 1442.4,729.6 		"/>
		<polyline class="st14" points="1420.5,706.2 1420.5,717 1426.8,720.7 		"/>
		<polygon class="st5" points="1405.6,621.3 1411.9,624.9 1411.9,614.1 1405.6,610.4 		"/>
		<polygon class="st5" points="1405.6,639.2 1411.9,642.8 1411.9,631.9 1405.6,628.3 		"/>
		<polygon class="st5" points="1405.6,657 1411.9,660.7 1411.9,649.8 1405.6,646.2 		"/>
		<polygon class="st5" points="1405.6,674.9 1411.9,678.5 1411.9,667.7 1405.6,664 		"/>
		<polygon class="st5" points="1405.6,692.8 1411.9,696.4 1411.9,685.5 1405.6,681.9 		"/>
		<polygon class="st5" points="1405.6,710.6 1411.9,714.3 1411.9,703.4 1405.6,699.8 		"/>
		<polyline class="st14" points="1405.6,628.3 1405.6,639.2 1411.9,642.8 		"/>
		<polyline class="st14" points="1405.6,610.4 1405.6,621.3 1411.9,624.9 		"/>
		<polyline class="st14" points="1405.6,646.2 1405.6,657 1411.9,660.7 		"/>
		<polyline class="st14" points="1405.6,664 1405.6,674.9 1411.9,678.5 		"/>
		<polyline class="st14" points="1405.6,681.9 1405.6,692.8 1411.9,696.4 		"/>
		<polyline class="st14" points="1405.6,699.8 1405.6,710.6 1411.9,714.3 		"/>
	</g>
</g>
<g id="c2-5" class="st0">
	<g class="st3">
		<path class="st16" d="M1294.4,573.8V591c0,1-0.8,1.8-1.8,1.8c-1,0-1.8-0.8-1.8-1.8v-17.2H1294.4z"/>
		<path class="st17" d="M1294.4,573.8v6.9c-0.6,0-1.2,0.1-1.8,0.1c-0.6,0-1.2,0-1.8-0.1v-6.9H1294.4z"/>
		
			<ellipse transform="matrix(0.9144 -0.4049 0.4049 0.9144 -114.3535 571.0004)" class="st11" cx="1292.7" cy="555.8" rx="21.5" ry="21.5"/>
		<path class="st17" d="M1294.4,571.1c-11.9,0-21.5-9.6-21.5-21.5c0-0.9,0.1-1.8,0.2-2.7c-1.2,2.7-1.9,5.7-1.9,8.9
			c0,11.9,9.6,21.5,21.5,21.5c10.9,0,19.9-8.2,21.3-18.7C1310.6,566,1303.1,571.1,1294.4,571.1z"/>
	</g>
	<g class="st3">
		<path id="XMLID_732_" class="st18" d="M1339.8,547.9c-0.1,0-0.2,0.2-0.2,0.3s0.1,0.1,0.2,0.1c0.1,0,0.2-0.2,0.2-0.3
			C1340,547.8,1339.9,547.8,1339.8,547.9z"/>
		<path id="XMLID_731_" class="st19" d="M1338.2,561c-0.1,0-0.1,0-0.2-0.1l-4.5-2.6c-0.5-0.3-0.8-0.8-0.8-1.4v-5.1
			c0-0.2,0.2-0.4,0.4-0.4c0.2,0,0.4,0.2,0.4,0.4v5.1c0,0.3,0.1,0.5,0.4,0.7l4.5,2.6c0.2,0.1,0.3,0.4,0.2,0.6
			C1338.4,561,1338.3,561,1338.2,561z"/>
		<path id="XMLID_730_" class="st19" d="M1331.4,564.9c-0.1,0-0.1,0-0.2-0.1l-4.5-2.6c-0.5-0.3-0.8-0.8-0.8-1.4v-5.1
			c0-0.2,0.2-0.4,0.4-0.4c0.2,0,0.4,0.2,0.4,0.4v5.1c0,0.3,0.1,0.5,0.4,0.7l4.5,2.6c0.2,0.1,0.3,0.4,0.2,0.6
			C1331.7,564.8,1331.6,564.9,1331.4,564.9z"/>
		<path id="XMLID_729_" class="st19" d="M1344.9,557.2c-0.1,0-0.1,0-0.2-0.1l-4.5-2.6c-0.5-0.3-0.8-0.8-0.8-1.4V548
			c0-0.2,0.2-0.4,0.4-0.4c0.2,0,0.4,0.2,0.4,0.4v5.1c0,0.3,0.1,0.5,0.4,0.7l4.5,2.6c0.2,0.1,0.3,0.4,0.2,0.6
			C1345.1,557.1,1345,557.2,1344.9,557.2z"/>
		<path id="XMLID_728_" class="st12" d="M1332.2,564.4v4.8c0,0.1,0,0.1-0.1,0.2c-0.2,0.1-0.5,0.1-0.7,0c-0.1-0.1-0.1-0.1-0.1-0.2
			v-4.8H1332.2z"/>
		<path id="XMLID_727_" class="st12" d="M1328.3,562.2v4.8c0,0.1,0,0.1-0.1,0.2c-0.2,0.1-0.5,0.1-0.7,0c-0.1-0.1-0.1-0.1-0.1-0.2
			v-4.8H1328.3z"/>
		<path id="XMLID_726_" class="st12" d="M1345.6,556.7v4.8c0,0.1,0,0.1-0.1,0.2c-0.2,0.1-0.5,0.1-0.7,0c-0.1-0.1-0.1-0.1-0.1-0.2
			v-4.8H1345.6z"/>
		<path id="XMLID_725_" class="st12" d="M1341.7,554.4v4.8c0,0.1,0,0.1-0.1,0.2c-0.2,0.1-0.5,0.1-0.7,0c-0.1-0.1-0.1-0.1-0.1-0.2
			v-4.8H1341.7z"/>
		<path id="XMLID_724_" class="st19" d="M1325,556.9L1325,556.9c-0.2-0.1-0.3-0.3-0.3-0.5v-0.7c0-0.2,0.1-0.3,0.2-0.4l15.2-8.8
			c0.1-0.1,0.3-0.1,0.5,0l0.1,0c0.1,0.1,0.2,0.3,0.2,0.4v0.7c0,0.2-0.1,0.3-0.2,0.4l-15.2,8.8C1325.4,557,1325.2,557,1325,556.9z"/>
		<path id="XMLID_723_" class="st20" d="M1325.8,556.1l-1.1-0.6c0,0.1-0.1,0.2-0.1,0.2v0.7c0,0.2,0.1,0.3,0.2,0.4l0.1,0
			c0.1,0.1,0.3,0.1,0.5,0l0.3-0.2V556.1z"/>
		<path id="XMLID_722_" class="st19" d="M1325,559.2L1325,559.2c-0.2-0.1-0.3-0.3-0.3-0.5V558c0-0.2,0.1-0.3,0.2-0.4l15.2-8.8
			c0.1-0.1,0.3-0.1,0.5,0l0.1,0c0.1,0.1,0.2,0.3,0.2,0.4v0.7c0,0.2-0.1,0.3-0.2,0.4l-15.2,8.8C1325.4,559.3,1325.2,559.3,1325,559.2
			z"/>
		<path id="XMLID_721_" class="st20" d="M1325.8,558.4l-1.1-0.6c0,0.1-0.1,0.2-0.1,0.2v0.7c0,0.2,0.1,0.3,0.2,0.4l0.1,0
			c0.1,0.1,0.3,0.1,0.5,0l0.3-0.2V558.4z"/>
		<path id="XMLID_720_" class="st19" d="M1325,561.5L1325,561.5c-0.2-0.1-0.3-0.3-0.3-0.5v-0.7c0-0.2,0.1-0.3,0.2-0.4l15.2-8.8
			c0.1-0.1,0.3-0.1,0.5,0l0.1,0c0.1,0.1,0.2,0.3,0.2,0.4v0.7c0,0.2-0.1,0.3-0.2,0.4l-15.2,8.8C1325.4,561.6,1325.2,561.6,1325,561.5
			z"/>
		<path id="XMLID_719_" class="st20" d="M1325.8,560.6l-1.1-0.6c0,0.1-0.1,0.2-0.1,0.2v0.7c0,0.2,0.1,0.3,0.2,0.4l0.1,0
			c0.1,0.1,0.3,0.1,0.5,0l0.3-0.2V560.6z"/>
		<path id="XMLID_718_" class="st19" d="M1325.8,562.9L1325.8,562.9c0,0.2,0.1,0.4,0.2,0.5l0.6,0.4c0.1,0.1,0.3,0.1,0.5,0l15.2-8.8
			c0.1-0.1,0.2-0.3,0.2-0.4v-0.1c0-0.2-0.1-0.3-0.2-0.4l-0.6-0.4c-0.1-0.1-0.3-0.1-0.5,0l-15.2,8.8
			C1326,562.5,1325.8,562.7,1325.8,562.9z"/>
		<path id="XMLID_717_" class="st20" d="M1327,562.6v1.2c-0.1,0-0.2,0-0.2-0.1l-0.6-0.4c-0.1-0.1-0.2-0.3-0.2-0.4v-0.1
			c0-0.2,0.1-0.3,0.2-0.4l0.3-0.2L1327,562.6z"/>
		<path id="XMLID_716_" class="st19" d="M1327.8,564L1327.8,564c0,0.2,0.1,0.4,0.2,0.5l0.6,0.4c0.1,0.1,0.3,0.1,0.5,0l15.2-8.8
			c0.1-0.1,0.2-0.3,0.2-0.4v-0.1c0-0.2-0.1-0.3-0.2-0.4l-0.6-0.4c-0.1-0.1-0.3-0.1-0.5,0l-15.2,8.8
			C1327.9,563.6,1327.8,563.8,1327.8,564z"/>
		<path id="XMLID_715_" class="st20" d="M1328.9,563.7l0,1.2c-0.1,0-0.2,0-0.2-0.1l-0.6-0.4c-0.1-0.1-0.2-0.3-0.2-0.4l0-0.1
			c0-0.2,0.1-0.3,0.2-0.4l0.3-0.2L1328.9,563.7z"/>
		<path id="XMLID_714_" class="st19" d="M1329.8,565.1L1329.8,565.1c0,0.2,0.1,0.4,0.2,0.5l0.6,0.4c0.1,0.1,0.3,0.1,0.5,0l15.2-8.8
			c0.1-0.1,0.2-0.3,0.2-0.4v-0.1c0-0.2-0.1-0.3-0.2-0.4l-0.6-0.4c-0.1-0.1-0.3-0.1-0.5,0l-15.2,8.8
			C1329.9,564.8,1329.8,565,1329.8,565.1z"/>
		<path id="XMLID_713_" class="st20" d="M1330.9,564.8v1.2c-0.1,0-0.2,0-0.2-0.1l-0.6-0.4c-0.1-0.1-0.2-0.3-0.2-0.4v-0.1
			c0-0.2,0.1-0.3,0.2-0.4l0.3-0.2L1330.9,564.8z"/>
		<path id="XMLID_712_" class="st12" d="M1325.5,555.6l15.2-8.8c0.1-0.1,0.2,0,0.2,0.1v0.7c0,0.2-0.1,0.3-0.2,0.4l-15.2,8.8
			c-0.1,0.1-0.2,0-0.2-0.1v-0.7C1325.3,555.9,1325.4,555.7,1325.5,555.6z"/>
		<path id="XMLID_711_" class="st12" d="M1325.5,557.9l15.2-8.8c0.1-0.1,0.2,0,0.2,0.1v0.7c0,0.2-0.1,0.3-0.2,0.4l-15.2,8.8
			c-0.1,0.1-0.2,0-0.2-0.1v-0.7C1325.3,558.2,1325.4,558,1325.5,557.9z"/>
		<path id="XMLID_710_" class="st12" d="M1325.5,560.2l15.2-8.8c0.1-0.1,0.2,0,0.2,0.1v0.7c0,0.2-0.1,0.3-0.2,0.4l-15.2,8.8
			c-0.1,0.1-0.2,0-0.2-0.1v-0.7C1325.3,560.4,1325.4,560.3,1325.5,560.2z"/>
		<path id="XMLID_709_" class="st12" d="M1327.2,563.1l15.2-8.8c0.1-0.1,0.1-0.2,0-0.3l-0.6-0.4c-0.1-0.1-0.3-0.1-0.5,0l-15.2,8.8
			c-0.1,0.1-0.1,0.2,0,0.3l0.6,0.4C1326.9,563.2,1327.1,563.2,1327.2,563.1z"/>
		<path id="XMLID_708_" class="st12" d="M1329.2,564.2l15.2-8.8c0.1-0.1,0.1-0.2,0-0.3l-0.6-0.4c-0.1-0.1-0.3-0.1-0.5,0l-15.2,8.8
			c-0.1,0.1-0.1,0.2,0,0.3l0.6,0.4C1328.8,564.3,1329,564.3,1329.2,564.2z"/>
		<path id="XMLID_707_" class="st12" d="M1331.1,565.3l15.2-8.8c0.1-0.1,0.1-0.2,0-0.3l-0.6-0.4c-0.1-0.1-0.3-0.1-0.5,0l-15.2,8.8
			c-0.1,0.1-0.1,0.2,0,0.3l0.6,0.4C1330.8,565.4,1331,565.4,1331.1,565.3z"/>
		<path id="XMLID_706_" class="st20" d="M1326.4,555.6c-0.1,0-0.2,0.2-0.2,0.3s0.1,0.1,0.2,0.1c0.1,0,0.2-0.2,0.2-0.3
			S1326.5,555.5,1326.4,555.6z"/>
		<path id="XMLID_705_" class="st20" d="M1326.4,557.9c-0.1,0-0.2,0.2-0.2,0.3c0,0.1,0.1,0.1,0.2,0.1c0.1,0,0.2-0.2,0.2-0.3
			S1326.5,557.8,1326.4,557.9z"/>
		<path id="XMLID_704_" class="st20" d="M1326.4,560.1c-0.1,0-0.2,0.2-0.2,0.3s0.1,0.1,0.2,0.1c0.1,0,0.2-0.2,0.2-0.3
			C1326.5,560.1,1326.5,560.1,1326.4,560.1z"/>
		<path id="XMLID_703_" class="st20" d="M1339.8,550.1c-0.1,0-0.2,0.2-0.2,0.3s0.1,0.1,0.2,0.1c0.1,0,0.2-0.2,0.2-0.3
			S1339.9,550.1,1339.8,550.1z"/>
		<path id="XMLID_702_" class="st20" d="M1339.8,547.9c-0.1,0-0.2,0.2-0.2,0.3s0.1,0.1,0.2,0.1c0.1,0,0.2-0.2,0.2-0.3
			S1339.9,547.9,1339.8,547.9z"/>
		<path id="XMLID_701_" class="st20" d="M1339.8,552.4c-0.1,0-0.2,0.2-0.2,0.3s0.1,0.1,0.2,0.1c0.1,0,0.2-0.2,0.2-0.3
			C1340,552.4,1339.9,552.3,1339.8,552.4z"/>
		<path id="XMLID_700_" class="st20" d="M1327.7,562c-0.1,0-0.1,0.1,0,0.2c0.1,0,0.2,0,0.3,0c0.1,0,0.1-0.1,0-0.2
			S1327.7,561.9,1327.7,562z"/>
		<path id="XMLID_699_" class="st20" d="M1329.6,563.1c-0.1,0-0.1,0.1,0,0.2s0.2,0,0.3,0s0.1-0.1,0-0.2
			C1329.8,563.1,1329.7,563.1,1329.6,563.1z"/>
		<path id="XMLID_698_" class="st20" d="M1331.6,564.3c-0.1,0-0.1,0.1,0,0.2c0.1,0,0.2,0,0.3,0c0.1,0,0.1-0.1,0-0.2
			C1331.8,564.2,1331.7,564.2,1331.6,564.3z"/>
		<path id="XMLID_697_" class="st20" d="M1341.1,554.2c-0.1,0-0.1,0.1,0,0.2c0.1,0,0.2,0,0.3,0c0.1,0,0.1-0.1,0-0.2
			C1341.3,554.2,1341.2,554.2,1341.1,554.2z"/>
		<path id="XMLID_696_" class="st20" d="M1343,555.4c-0.1,0-0.1,0.1,0,0.2c0.1,0,0.2,0,0.3,0c0.1,0,0.1-0.1,0-0.2
			C1343.2,555.3,1343.1,555.3,1343,555.4z"/>
		<path id="XMLID_695_" class="st20" d="M1345,556.5c-0.1,0-0.1,0.1,0,0.2c0.1,0,0.2,0,0.3,0s0.1-0.1,0-0.2
			C1345.2,556.5,1345.1,556.5,1345,556.5z"/>
		<path id="XMLID_694_" class="st20" d="M1333.1,551.7c-0.1,0-0.2,0.2-0.2,0.3s0.1,0.1,0.2,0.1c0.1,0,0.2-0.2,0.2-0.3
			S1333.2,551.7,1333.1,551.7z"/>
		<path id="XMLID_693_" class="st20" d="M1333.1,554c-0.1,0-0.2,0.2-0.2,0.3s0.1,0.1,0.2,0.1c0.1,0,0.2-0.2,0.2-0.3
			C1333.3,554,1333.2,553.9,1333.1,554z"/>
		<path id="XMLID_692_" class="st20" d="M1333.1,556.3c-0.1,0-0.2,0.2-0.2,0.3s0.1,0.1,0.2,0.1c0.1,0,0.2-0.2,0.2-0.3
			S1333.2,556.2,1333.1,556.3z"/>
		<path id="XMLID_691_" class="st20" d="M1334.4,558.1c-0.1,0-0.1,0.1,0,0.2c0.1,0,0.2,0,0.3,0c0.1,0,0.1-0.1,0-0.2
			C1334.6,558.1,1334.4,558.1,1334.4,558.1z"/>
		<path id="XMLID_690_" class="st20" d="M1336.3,559.3c-0.1,0-0.1,0.1,0,0.2c0.1,0,0.2,0,0.3,0c0.1,0,0.1-0.1,0-0.2
			C1336.5,559.2,1336.4,559.2,1336.3,559.3z"/>
		<path id="XMLID_689_" class="st20" d="M1338.3,560.4c-0.1,0-0.1,0.1,0,0.2c0.1,0,0.2,0,0.3,0c0.1,0,0.1-0.1,0-0.2
			S1338.4,560.4,1338.3,560.4z"/>
	</g>
	<g class="st3">
		<path class="st16" d="M1372.5,528.8V546c0,1-0.8,1.8-1.8,1.8c-1,0-1.8-0.8-1.8-1.8v-17.2H1372.5z"/>
		<path class="st17" d="M1372.5,528.8v6.9c-0.6,0-1.2,0.1-1.8,0.1c-0.6,0-1.2,0-1.8-0.1v-6.9H1372.5z"/>
		
			<ellipse transform="matrix(0.9144 -0.4049 0.4049 0.9144 -89.4454 598.7543)" class="st11" cx="1370.7" cy="510.8" rx="21.5" ry="21.5"/>
		<path class="st17" d="M1372.5,526.1c-11.9,0-21.5-9.6-21.5-21.5c0-0.9,0.1-1.8,0.2-2.7c-1.2,2.7-1.9,5.7-1.9,8.9
			c0,11.9,9.6,21.5,21.5,21.5c10.9,0,19.9-8.2,21.3-18.7C1388.6,521,1381.2,526.1,1372.5,526.1z"/>
	</g>
	<g class="st3">
		<path id="XMLID_688_" class="st18" d="M1417.9,502.9c-0.1,0-0.2,0.2-0.2,0.3c0,0.1,0.1,0.1,0.2,0.1c0.1,0,0.2-0.2,0.2-0.3
			C1418,502.8,1418,502.8,1417.9,502.9z"/>
		<path id="XMLID_687_" class="st19" d="M1416.2,516c-0.1,0-0.1,0-0.2-0.1l-4.5-2.6c-0.5-0.3-0.8-0.8-0.8-1.4v-5.1
			c0-0.2,0.2-0.4,0.4-0.4c0.2,0,0.4,0.2,0.4,0.4v5.1c0,0.3,0.1,0.5,0.4,0.7l4.5,2.6c0.2,0.1,0.3,0.4,0.2,0.6
			C1416.5,516,1416.4,516,1416.2,516z"/>
		<path id="XMLID_686_" class="st19" d="M1409.5,519.9c-0.1,0-0.1,0-0.2-0.1l-4.5-2.6c-0.5-0.3-0.8-0.8-0.8-1.4v-5.1
			c0-0.2,0.2-0.4,0.4-0.4c0.2,0,0.4,0.2,0.4,0.4v5.1c0,0.3,0.1,0.5,0.4,0.7l4.5,2.6c0.2,0.1,0.3,0.4,0.2,0.6
			C1409.8,519.8,1409.6,519.9,1409.5,519.9z"/>
		<path id="XMLID_685_" class="st19" d="M1422.9,512.2c-0.1,0-0.1,0-0.2-0.1l-4.5-2.6c-0.5-0.3-0.8-0.8-0.8-1.4V503
			c0-0.2,0.2-0.4,0.4-0.4c0.2,0,0.4,0.2,0.4,0.4v5.1c0,0.3,0.1,0.5,0.4,0.7l4.5,2.6c0.2,0.1,0.3,0.4,0.2,0.6
			C1423.2,512.1,1423.1,512.2,1422.9,512.2z"/>
		<path id="XMLID_684_" class="st12" d="M1410.3,519.4v4.8c0,0.1,0,0.1-0.1,0.2c-0.2,0.1-0.5,0.1-0.7,0c-0.1-0.1-0.1-0.1-0.1-0.2
			v-4.8H1410.3z"/>
		<path id="XMLID_683_" class="st12" d="M1406.3,517.2v4.8c0,0.1,0,0.1-0.1,0.2c-0.2,0.1-0.5,0.1-0.7,0c-0.1-0.1-0.1-0.1-0.1-0.2
			v-4.8H1406.3z"/>
		<path id="XMLID_682_" class="st12" d="M1423.7,511.6v4.8c0,0.1,0,0.1-0.1,0.2c-0.2,0.1-0.5,0.1-0.7,0c-0.1-0.1-0.1-0.1-0.1-0.2
			v-4.8H1423.7z"/>
		<path id="XMLID_681_" class="st12" d="M1419.8,509.4v4.8c0,0.1,0,0.1-0.1,0.2c-0.2,0.1-0.5,0.1-0.7,0c-0.1-0.1-0.1-0.1-0.1-0.2
			v-4.8H1419.8z"/>
		<path id="XMLID_680_" class="st19" d="M1403.1,511.9L1403.1,511.9c-0.2-0.1-0.3-0.3-0.3-0.5v-0.7c0-0.2,0.1-0.3,0.2-0.4l15.2-8.8
			c0.1-0.1,0.3-0.1,0.5,0l0.1,0c0.1,0.1,0.2,0.3,0.2,0.4v0.7c0,0.2-0.1,0.3-0.2,0.4l-15.2,8.8C1403.5,512,1403.2,512,1403.1,511.9z"
			/>
		<path id="XMLID_679_" class="st20" d="M1403.9,511.1l-1.1-0.6c0,0.1-0.1,0.2-0.1,0.2v0.7c0,0.2,0.1,0.3,0.2,0.4l0.1,0
			c0.1,0.1,0.3,0.1,0.5,0l0.3-0.2V511.1z"/>
		<path id="XMLID_678_" class="st19" d="M1403.1,514.2L1403.1,514.2c-0.2-0.1-0.3-0.3-0.3-0.5V513c0-0.2,0.1-0.3,0.2-0.4l15.2-8.8
			c0.1-0.1,0.3-0.1,0.5,0l0.1,0c0.1,0.1,0.2,0.3,0.2,0.4v0.7c0,0.2-0.1,0.3-0.2,0.4l-15.2,8.8
			C1403.5,514.3,1403.2,514.3,1403.1,514.2z"/>
		<path id="XMLID_677_" class="st20" d="M1403.9,513.4l-1.1-0.6c0,0.1-0.1,0.2-0.1,0.2v0.7c0,0.2,0.1,0.3,0.2,0.4l0.1,0
			c0.1,0.1,0.3,0.1,0.5,0l0.3-0.2V513.4z"/>
		<path id="XMLID_676_" class="st19" d="M1403.1,516.5L1403.1,516.5c-0.2-0.1-0.3-0.3-0.3-0.5v-0.7c0-0.2,0.1-0.3,0.2-0.4l15.2-8.8
			c0.1-0.1,0.3-0.1,0.5,0l0.1,0c0.1,0.1,0.2,0.3,0.2,0.4v0.7c0,0.2-0.1,0.3-0.2,0.4l-15.2,8.8
			C1403.5,516.5,1403.2,516.5,1403.1,516.5z"/>
		<path id="XMLID_675_" class="st20" d="M1403.9,515.6l-1.1-0.6c0,0.1-0.1,0.2-0.1,0.2v0.7c0,0.2,0.1,0.3,0.2,0.4l0.1,0
			c0.1,0.1,0.3,0.1,0.5,0l0.3-0.2V515.6z"/>
		<path id="XMLID_674_" class="st19" d="M1403.9,517.8L1403.9,517.8c0,0.2,0.1,0.4,0.2,0.5l0.6,0.4c0.1,0.1,0.3,0.1,0.5,0l15.2-8.8
			c0.1-0.1,0.2-0.3,0.2-0.4v-0.1c0-0.2-0.1-0.3-0.2-0.4l-0.6-0.4c-0.1-0.1-0.3-0.1-0.5,0l-15.2,8.8
			C1404,517.5,1403.9,517.7,1403.9,517.8z"/>
		<path id="XMLID_673_" class="st20" d="M1405,517.6v1.2c-0.1,0-0.2,0-0.2-0.1l-0.6-0.4c-0.1-0.1-0.2-0.3-0.2-0.4v-0.1
			c0-0.2,0.1-0.3,0.2-0.4l0.3-0.2L1405,517.6z"/>
		<path id="XMLID_672_" class="st19" d="M1405.9,519L1405.9,519c0,0.2,0.1,0.4,0.2,0.5l0.6,0.4c0.1,0.1,0.3,0.1,0.5,0l15.2-8.8
			c0.1-0.1,0.2-0.3,0.2-0.4v-0.1c0-0.2-0.1-0.3-0.2-0.4l-0.6-0.4c-0.1-0.1-0.3-0.1-0.5,0l-15.2,8.8
			C1406,518.6,1405.9,518.8,1405.9,519z"/>
		<path id="XMLID_671_" class="st20" d="M1407,518.7l0,1.2c-0.1,0-0.2,0-0.2-0.1l-0.6-0.4c-0.1-0.1-0.2-0.3-0.2-0.4V519
			c0-0.2,0.1-0.3,0.2-0.4l0.3-0.2L1407,518.7z"/>
		<path id="XMLID_670_" class="st19" d="M1407.8,520.1L1407.8,520.1c0,0.2,0.1,0.4,0.2,0.5l0.6,0.4c0.1,0.1,0.3,0.1,0.5,0l15.2-8.8
			c0.1-0.1,0.2-0.3,0.2-0.4v-0.1c0-0.2-0.1-0.3-0.2-0.4l-0.6-0.4c-0.1-0.1-0.3-0.1-0.5,0l-15.2,8.8
			C1407.9,519.8,1407.8,520,1407.8,520.1z"/>
		<path id="XMLID_669_" class="st20" d="M1409,519.8v1.2c-0.1,0-0.2,0-0.2-0.1l-0.6-0.4c-0.1-0.1-0.2-0.3-0.2-0.4v-0.1
			c0-0.2,0.1-0.3,0.2-0.4l0.3-0.2L1409,519.8z"/>
		<path id="XMLID_668_" class="st12" d="M1403.6,510.6l15.2-8.8c0.1-0.1,0.2,0,0.2,0.1v0.7c0,0.2-0.1,0.3-0.2,0.4l-15.2,8.8
			c-0.1,0.1-0.2,0-0.2-0.1v-0.7C1403.4,510.9,1403.5,510.7,1403.6,510.6z"/>
		<path id="XMLID_667_" class="st12" d="M1403.6,512.9l15.2-8.8c0.1-0.1,0.2,0,0.2,0.1v0.7c0,0.2-0.1,0.3-0.2,0.4l-15.2,8.8
			c-0.1,0.1-0.2,0-0.2-0.1v-0.7C1403.4,513.2,1403.5,513,1403.6,512.9z"/>
		<path id="XMLID_666_" class="st12" d="M1403.6,515.2l15.2-8.8c0.1-0.1,0.2,0,0.2,0.1v0.7c0,0.2-0.1,0.3-0.2,0.4l-15.2,8.8
			c-0.1,0.1-0.2,0-0.2-0.1v-0.7C1403.4,515.4,1403.5,515.3,1403.6,515.2z"/>
		<path id="XMLID_665_" class="st12" d="M1405.3,518.1l15.2-8.8c0.1-0.1,0.1-0.2,0-0.3l-0.6-0.4c-0.1-0.1-0.3-0.1-0.5,0l-15.2,8.8
			c-0.1,0.1-0.1,0.2,0,0.3l0.6,0.4C1404.9,518.2,1405.1,518.2,1405.3,518.1z"/>
		<path id="XMLID_664_" class="st12" d="M1407.2,519.2l15.2-8.8c0.1-0.1,0.1-0.2,0-0.3l-0.6-0.4c-0.1-0.1-0.3-0.1-0.5,0l-15.2,8.8
			c-0.1,0.1-0.1,0.2,0,0.3l0.6,0.4C1406.9,519.3,1407.1,519.3,1407.2,519.2z"/>
		<path id="XMLID_663_" class="st12" d="M1409.2,520.3l15.2-8.8c0.1-0.1,0.1-0.2,0-0.3l-0.6-0.4c-0.1-0.1-0.3-0.1-0.5,0l-15.2,8.8
			c-0.1,0.1-0.1,0.2,0,0.3l0.6,0.4C1408.8,520.4,1409.1,520.4,1409.2,520.3z"/>
		<path id="XMLID_662_" class="st20" d="M1404.4,510.6c-0.1,0-0.2,0.2-0.2,0.3c0,0.1,0.1,0.1,0.2,0.1c0.1,0,0.2-0.2,0.2-0.3
			S1404.5,510.5,1404.4,510.6z"/>
		<path id="XMLID_661_" class="st20" d="M1404.4,512.9c-0.1,0-0.2,0.2-0.2,0.3s0.1,0.1,0.2,0.1c0.1,0,0.2-0.2,0.2-0.3
			S1404.5,512.8,1404.4,512.9z"/>
		<path id="XMLID_660_" class="st20" d="M1404.4,515.1c-0.1,0-0.2,0.2-0.2,0.3s0.1,0.1,0.2,0.1c0.1,0,0.2-0.2,0.2-0.3
			S1404.5,515.1,1404.4,515.1z"/>
		<path id="XMLID_659_" class="st20" d="M1417.9,505.1c-0.1,0-0.2,0.2-0.2,0.3s0.1,0.1,0.2,0.1c0.1,0,0.2-0.2,0.2-0.3
			S1418,505.1,1417.9,505.1z"/>
		<path id="XMLID_658_" class="st20" d="M1417.9,502.9c-0.1,0-0.2,0.2-0.2,0.3s0.1,0.1,0.2,0.1c0.1,0,0.2-0.2,0.2-0.3
			S1418,502.9,1417.9,502.9z"/>
		<path id="XMLID_657_" class="st20" d="M1417.9,507.4c-0.1,0-0.2,0.2-0.2,0.3c0,0.1,0.1,0.1,0.2,0.1c0.1,0,0.2-0.2,0.2-0.3
			S1418,507.3,1417.9,507.4z"/>
		<path id="XMLID_656_" class="st20" d="M1405.7,517c-0.1,0-0.1,0.1,0,0.2c0.1,0,0.2,0,0.3,0c0.1,0,0.1-0.1,0-0.2
			S1405.8,516.9,1405.7,517z"/>
		<path id="XMLID_655_" class="st20" d="M1407.7,518.1c-0.1,0-0.1,0.1,0,0.2c0.1,0,0.2,0,0.3,0s0.1-0.1,0-0.2
			C1407.9,518.1,1407.8,518.1,1407.7,518.1z"/>
		<path id="XMLID_654_" class="st20" d="M1409.7,519.3c-0.1,0-0.1,0.1,0,0.2c0.1,0,0.2,0,0.3,0c0.1,0,0.1-0.1,0-0.2
			C1409.8,519.2,1409.7,519.2,1409.7,519.3z"/>
		<path id="XMLID_653_" class="st20" d="M1419.1,509.2c-0.1,0-0.1,0.1,0,0.2c0.1,0,0.2,0,0.3,0c0.1,0,0.1-0.1,0-0.2
			S1419.2,509.2,1419.1,509.2z"/>
		<path id="XMLID_652_" class="st20" d="M1421.1,510.4c-0.1,0-0.1,0.1,0,0.2s0.2,0,0.3,0s0.1-0.1,0-0.2S1421.2,510.3,1421.1,510.4z"
			/>
		<path id="XMLID_651_" class="st20" d="M1423.1,511.5c-0.1,0-0.1,0.1,0,0.2c0.1,0,0.2,0,0.3,0c0.1,0,0.1-0.1,0-0.2
			C1423.3,511.5,1423.2,511.5,1423.1,511.5z"/>
		<path id="XMLID_650_" class="st20" d="M1411.2,506.7c-0.1,0-0.2,0.2-0.2,0.3s0.1,0.1,0.2,0.1c0.1,0,0.2-0.2,0.2-0.3
			S1411.3,506.7,1411.2,506.7z"/>
		<path id="XMLID_649_" class="st20" d="M1411.2,509c-0.1,0-0.2,0.2-0.2,0.3s0.1,0.1,0.2,0.1c0.1,0,0.2-0.2,0.2-0.3
			C1411.3,509,1411.3,508.9,1411.2,509z"/>
		<path id="XMLID_648_" class="st20" d="M1411.2,511.3c-0.1,0-0.2,0.2-0.2,0.3s0.1,0.1,0.2,0.1c0.1,0,0.2-0.2,0.2-0.3
			S1411.3,511.2,1411.2,511.3z"/>
		<path id="XMLID_647_" class="st20" d="M1412.4,513.1c-0.1,0-0.1,0.1,0,0.2c0.1,0,0.2,0,0.3,0c0.1,0,0.1-0.1,0-0.2
			C1412.6,513.1,1412.5,513.1,1412.4,513.1z"/>
		<path id="XMLID_646_" class="st20" d="M1414.4,514.3c-0.1,0-0.1,0.1,0,0.2c0.1,0,0.2,0,0.3,0c0.1,0,0.1-0.1,0-0.2
			S1414.5,514.2,1414.4,514.3z"/>
		<path id="XMLID_645_" class="st20" d="M1416.4,515.4c-0.1,0-0.1,0.1,0,0.2c0.1,0,0.2,0,0.3,0c0.1,0,0.1-0.1,0-0.2
			C1416.6,515.4,1416.4,515.4,1416.4,515.4z"/>
	</g>
	<g class="st3">
		<path class="st16" d="M1448,485.7v17.2c0,1-0.8,1.8-1.8,1.8s-1.8-0.8-1.8-1.8v-17.2H1448z"/>
		<path class="st17" d="M1448,485.7v6.9c-0.6,0-1.2,0.1-1.8,0.1s-1.2,0-1.8-0.1v-6.9H1448z"/>
		
			<ellipse transform="matrix(0.9144 -0.4049 0.4049 0.9144 -65.5226 625.6173)" class="st11" cx="1446.2" cy="467.7" rx="21.5" ry="21.5"/>
		<path class="st17" d="M1448,483c-11.9,0-21.5-9.6-21.5-21.5c0-0.9,0.1-1.8,0.2-2.7c-1.2,2.7-1.9,5.7-1.9,8.9
			c0,11.9,9.6,21.5,21.5,21.5c10.9,0,19.9-8.2,21.3-18.7C1464.1,477.9,1456.6,483,1448,483z"/>
	</g>
	<g class="st3">
		<path class="st16" d="M1522.3,441.6v17.2c0,1-0.8,1.8-1.8,1.8c-1,0-1.8-0.8-1.8-1.8v-17.2H1522.3z"/>
		<path class="st17" d="M1522.3,441.6v6.9c-0.6,0-1.2,0.1-1.8,0.1c-0.6,0-1.2,0-1.8-0.1v-6.9H1522.3z"/>
		
			<ellipse transform="matrix(0.9144 -0.4049 0.4049 0.9144 -41.3072 651.9389)" class="st11" cx="1520.5" cy="423.6" rx="21.5" ry="21.5"/>
		<path class="st17" d="M1522.3,438.9c-11.9,0-21.5-9.6-21.5-21.5c0-0.9,0.1-1.8,0.2-2.7c-1.2,2.7-1.9,5.7-1.9,8.9
			c0,11.9,9.6,21.5,21.5,21.5c10.9,0,19.9-8.2,21.3-18.7C1538.4,433.8,1531,438.9,1522.3,438.9z"/>
	</g>
	<g class="st3">
		<path id="XMLID_644_" class="st18" d="M1493.4,459.7c-0.1,0-0.2,0.2-0.2,0.3s0.1,0.1,0.2,0.1c0.1,0,0.2-0.2,0.2-0.3
			S1493.4,459.7,1493.4,459.7z"/>
		<path id="XMLID_643_" class="st19" d="M1491.7,472.9c-0.1,0-0.1,0-0.2-0.1l-4.5-2.6c-0.5-0.3-0.8-0.8-0.8-1.4v-5.1
			c0-0.2,0.2-0.4,0.4-0.4s0.4,0.2,0.4,0.4v5.1c0,0.3,0.1,0.5,0.4,0.7l4.5,2.6c0.2,0.1,0.3,0.4,0.2,0.6
			C1492,472.8,1491.8,472.9,1491.7,472.9z"/>
		<path id="XMLID_642_" class="st19" d="M1485,476.8c-0.1,0-0.1,0-0.2-0.1l-4.5-2.6c-0.5-0.3-0.8-0.8-0.8-1.4v-5.1
			c0-0.2,0.2-0.4,0.4-0.4s0.4,0.2,0.4,0.4v5.1c0,0.3,0.1,0.5,0.4,0.7l4.5,2.6c0.2,0.1,0.3,0.4,0.2,0.6
			C1485.2,476.7,1485.1,476.8,1485,476.8z"/>
		<path id="XMLID_641_" class="st19" d="M1498.4,469c-0.1,0-0.1,0-0.2-0.1l-4.5-2.6c-0.5-0.3-0.8-0.8-0.8-1.4v-5.1
			c0-0.2,0.2-0.4,0.4-0.4c0.2,0,0.4,0.2,0.4,0.4v5.1c0,0.3,0.1,0.5,0.4,0.7l4.5,2.6c0.2,0.1,0.3,0.4,0.2,0.6
			C1498.7,469,1498.5,469,1498.4,469z"/>
		<path id="XMLID_640_" class="st12" d="M1485.7,476.3v4.8c0,0.1,0,0.1-0.1,0.2c-0.2,0.1-0.5,0.1-0.7,0c-0.1-0.1-0.1-0.1-0.1-0.2
			v-4.8H1485.7z"/>
		<path id="XMLID_639_" class="st12" d="M1481.8,474v4.8c0,0.1,0,0.1-0.1,0.2c-0.2,0.1-0.5,0.1-0.7,0c-0.1-0.1-0.1-0.1-0.1-0.2V474
			H1481.8z"/>
		<path id="XMLID_638_" class="st12" d="M1499.1,468.5v4.8c0,0.1,0,0.1-0.1,0.2c-0.2,0.1-0.5,0.1-0.7,0c-0.1-0.1-0.1-0.1-0.1-0.2
			v-4.8H1499.1z"/>
		<path id="XMLID_637_" class="st12" d="M1495.2,466.3v4.8c0,0.1,0,0.1-0.1,0.2c-0.2,0.1-0.5,0.1-0.7,0c-0.1-0.1-0.1-0.1-0.1-0.2
			v-4.8H1495.2z"/>
		<path id="XMLID_636_" class="st19" d="M1478.6,468.8L1478.6,468.8c-0.2-0.1-0.3-0.3-0.3-0.5v-0.7c0-0.2,0.1-0.3,0.2-0.4l15.2-8.8
			c0.1-0.1,0.3-0.1,0.5,0l0.1,0c0.1,0.1,0.2,0.3,0.2,0.4v0.7c0,0.2-0.1,0.3-0.2,0.4l-15.2,8.8
			C1478.9,468.9,1478.7,468.9,1478.6,468.8z"/>
		<path id="XMLID_635_" class="st20" d="M1479.4,468l-1-0.6c0,0.1-0.1,0.2-0.1,0.2v0.7c0,0.2,0.1,0.3,0.2,0.4l0.1,0
			c0.1,0.1,0.3,0.1,0.5,0l0.3-0.2V468z"/>
		<path id="XMLID_634_" class="st19" d="M1478.6,471.1L1478.6,471.1c-0.2-0.1-0.3-0.3-0.3-0.5v-0.7c0-0.2,0.1-0.3,0.2-0.4l15.2-8.8
			c0.1-0.1,0.3-0.1,0.5,0l0.1,0c0.1,0.1,0.2,0.3,0.2,0.4v0.7c0,0.2-0.1,0.3-0.2,0.4l-15.2,8.8
			C1478.9,471.2,1478.7,471.2,1478.6,471.1z"/>
		<path id="XMLID_633_" class="st20" d="M1479.4,470.2l-1-0.6c0,0.1-0.1,0.2-0.1,0.2v0.7c0,0.2,0.1,0.3,0.2,0.4l0.1,0
			c0.1,0.1,0.3,0.1,0.5,0l0.3-0.2V470.2z"/>
		<path id="XMLID_632_" class="st19" d="M1478.6,473.3L1478.6,473.3c-0.2-0.1-0.3-0.3-0.3-0.5v-0.7c0-0.2,0.1-0.3,0.2-0.4l15.2-8.8
			c0.1-0.1,0.3-0.1,0.5,0l0.1,0c0.1,0.1,0.2,0.3,0.2,0.4v0.7c0,0.2-0.1,0.3-0.2,0.4l-15.2,8.8
			C1478.9,473.4,1478.7,473.4,1478.6,473.3z"/>
		<path id="XMLID_631_" class="st20" d="M1479.4,472.5l-1-0.6c0,0.1-0.1,0.2-0.1,0.2v0.7c0,0.2,0.1,0.3,0.2,0.4l0.1,0
			c0.1,0.1,0.3,0.1,0.5,0l0.3-0.2V472.5z"/>
		<path id="XMLID_630_" class="st19" d="M1479.4,474.7L1479.4,474.7c0,0.2,0.1,0.4,0.2,0.5l0.6,0.4c0.1,0.1,0.3,0.1,0.5,0l15.2-8.8
			c0.1-0.1,0.2-0.3,0.2-0.4v-0.1c0-0.2-0.1-0.3-0.2-0.4l-0.6-0.4c-0.1-0.1-0.3-0.1-0.5,0l-15.2,8.8
			C1479.5,474.4,1479.4,474.6,1479.4,474.7z"/>
		<path id="XMLID_629_" class="st20" d="M1480.5,474.4v1.2c-0.1,0-0.2,0-0.2-0.1l-0.6-0.4c-0.1-0.1-0.2-0.3-0.2-0.4v-0.1
			c0-0.2,0.1-0.3,0.2-0.4l0.3-0.2L1480.5,474.4z"/>
		<path id="XMLID_628_" class="st19" d="M1481.3,475.9L1481.3,475.9c0,0.2,0.1,0.4,0.2,0.5l0.6,0.4c0.1,0.1,0.3,0.1,0.5,0l15.2-8.8
			c0.1-0.1,0.2-0.3,0.2-0.4v-0.1c0-0.2-0.1-0.3-0.2-0.4l-0.6-0.4c-0.1-0.1-0.3-0.1-0.5,0l-15.2,8.8
			C1481.4,475.5,1481.3,475.7,1481.3,475.9z"/>
		<path id="XMLID_627_" class="st20" d="M1482.5,475.6v1.2c-0.1,0-0.2,0-0.2-0.1l-0.6-0.4c-0.1-0.1-0.2-0.3-0.2-0.4v-0.1
			c0-0.2,0.1-0.3,0.2-0.4l0.3-0.2L1482.5,475.6z"/>
		<path id="XMLID_626_" class="st19" d="M1483.3,477L1483.3,477c0,0.2,0.1,0.4,0.2,0.5l0.6,0.4c0.1,0.1,0.3,0.1,0.5,0l15.2-8.8
			c0.1-0.1,0.2-0.3,0.2-0.4v-0.1c0-0.2-0.1-0.3-0.2-0.4l-0.6-0.4c-0.1-0.1-0.3-0.1-0.5,0l-15.2,8.8
			C1483.4,476.6,1483.3,476.8,1483.3,477z"/>
		<path id="XMLID_625_" class="st20" d="M1484.4,476.7l0,1.2c-0.1,0-0.2,0-0.2-0.1l-0.6-0.4c-0.1-0.1-0.2-0.3-0.2-0.4V477
			c0-0.2,0.1-0.3,0.2-0.4l0.3-0.2L1484.4,476.7z"/>
		<path id="XMLID_624_" class="st12" d="M1479.1,467.5l15.2-8.8c0.1-0.1,0.2,0,0.2,0.1v0.7c0,0.2-0.1,0.3-0.2,0.4l-15.2,8.8
			c-0.1,0.1-0.2,0-0.2-0.1v-0.7C1478.8,467.8,1478.9,467.6,1479.1,467.5z"/>
		<path id="XMLID_623_" class="st12" d="M1479.1,469.8l15.2-8.8c0.1-0.1,0.2,0,0.2,0.1v0.7c0,0.2-0.1,0.3-0.2,0.4l-15.2,8.8
			c-0.1,0.1-0.2,0-0.2-0.1v-0.7C1478.8,470.1,1478.9,469.9,1479.1,469.8z"/>
		<path id="XMLID_622_" class="st12" d="M1479.1,472.1l15.2-8.8c0.1-0.1,0.2,0,0.2,0.1v0.7c0,0.2-0.1,0.3-0.2,0.4l-15.2,8.8
			c-0.1,0.1-0.2,0-0.2-0.1v-0.7C1478.8,472.3,1478.9,472.1,1479.1,472.1z"/>
		<path id="XMLID_621_" class="st12" d="M1480.7,475l15.2-8.8c0.1-0.1,0.1-0.2,0-0.3l-0.6-0.4c-0.1-0.1-0.3-0.1-0.5,0l-15.2,8.8
			c-0.1,0.1-0.1,0.2,0,0.3l0.6,0.4C1480.4,475,1480.6,475,1480.7,475z"/>
		<path id="XMLID_620_" class="st12" d="M1482.7,476.1l15.2-8.8c0.1-0.1,0.1-0.2,0-0.3l-0.6-0.4c-0.1-0.1-0.3-0.1-0.5,0l-15.2,8.8
			c-0.1,0.1-0.1,0.2,0,0.3l0.6,0.4C1482.3,476.2,1482.6,476.2,1482.7,476.1z"/>
		<path id="XMLID_619_" class="st12" d="M1484.7,477.2l15.2-8.8c0.1-0.1,0.1-0.2,0-0.3l-0.6-0.4c-0.1-0.1-0.3-0.1-0.5,0l-15.2,8.8
			c-0.1,0.1-0.1,0.2,0,0.3l0.6,0.4C1484.3,477.3,1484.5,477.3,1484.7,477.2z"/>
		<path id="XMLID_618_" class="st20" d="M1479.9,467.5c-0.1,0-0.2,0.2-0.2,0.3c0,0.1,0.1,0.1,0.2,0.1c0.1,0,0.2-0.2,0.2-0.3
			C1480.1,467.5,1480,467.4,1479.9,467.5z"/>
		<path id="XMLID_617_" class="st20" d="M1479.9,469.7c-0.1,0-0.2,0.2-0.2,0.3s0.1,0.1,0.2,0.1s0.2-0.2,0.2-0.3
			S1480,469.7,1479.9,469.7z"/>
		<path id="XMLID_616_" class="st20" d="M1479.9,472c-0.1,0-0.2,0.2-0.2,0.3c0,0.1,0.1,0.1,0.2,0.1c0.1,0,0.2-0.2,0.2-0.3
			C1480.1,472,1480,471.9,1479.9,472z"/>
		<path id="XMLID_615_" class="st20" d="M1493.4,462c-0.1,0-0.2,0.2-0.2,0.3c0,0.1,0.1,0.1,0.2,0.1c0.1,0,0.2-0.2,0.2-0.3
			C1493.5,462,1493.4,461.9,1493.4,462z"/>
		<path id="XMLID_614_" class="st20" d="M1493.4,459.8c-0.1,0-0.2,0.2-0.2,0.3c0,0.1,0.1,0.1,0.2,0.1c0.1,0,0.2-0.2,0.2-0.3
			C1493.5,459.8,1493.4,459.7,1493.4,459.8z"/>
		<path id="XMLID_613_" class="st20" d="M1493.4,464.3c-0.1,0-0.2,0.2-0.2,0.3s0.1,0.1,0.2,0.1c0.1,0,0.2-0.2,0.2-0.3
			C1493.5,464.2,1493.4,464.2,1493.4,464.3z"/>
		<path id="XMLID_612_" class="st20" d="M1481.2,473.9c-0.1,0-0.1,0.1,0,0.2c0.1,0,0.2,0,0.3,0s0.1-0.1,0-0.2
			C1481.4,473.8,1481.3,473.8,1481.2,473.9z"/>
		<path id="XMLID_611_" class="st20" d="M1483.2,475c-0.1,0-0.1,0.1,0,0.2c0.1,0,0.2,0,0.3,0c0.1,0,0.1-0.1,0-0.2
			C1483.3,475,1483.2,475,1483.2,475z"/>
		<path id="XMLID_610_" class="st20" d="M1485.1,476.1c-0.1,0-0.1,0.1,0,0.2s0.2,0,0.3,0s0.1-0.1,0-0.2S1485.2,476.1,1485.1,476.1z"
			/>
		<path id="XMLID_609_" class="st20" d="M1494.6,466.1c-0.1,0-0.1,0.1,0,0.2c0.1,0,0.2,0,0.3,0c0.1,0,0.1-0.1,0-0.2
			C1494.8,466.1,1494.7,466.1,1494.6,466.1z"/>
		<path id="XMLID_607_" class="st20" d="M1496.6,467.3c-0.1,0-0.1,0.1,0,0.2c0.1,0,0.2,0,0.3,0c0.1,0,0.1-0.1,0-0.2
			C1496.8,467.2,1496.7,467.2,1496.6,467.3z"/>
		<path id="XMLID_606_" class="st20" d="M1498.5,468.4c-0.1,0-0.1,0.1,0,0.2s0.2,0,0.3,0c0.1,0,0.1-0.1,0-0.2
			C1498.7,468.4,1498.6,468.4,1498.5,468.4z"/>
		<path id="XMLID_605_" class="st20" d="M1486.6,463.6c-0.1,0-0.2,0.2-0.2,0.3c0,0.1,0.1,0.1,0.2,0.1c0.1,0,0.2-0.2,0.2-0.3
			S1486.7,463.6,1486.6,463.6z"/>
		<path id="XMLID_604_" class="st20" d="M1486.6,465.9c-0.1,0-0.2,0.2-0.2,0.3c0,0.1,0.1,0.1,0.2,0.1c0.1,0,0.2-0.2,0.2-0.3
			C1486.8,465.9,1486.7,465.8,1486.6,465.9z"/>
		<path id="XMLID_603_" class="st20" d="M1486.6,468.1c-0.1,0-0.2,0.2-0.2,0.3s0.1,0.1,0.2,0.1c0.1,0,0.2-0.2,0.2-0.3
			S1486.7,468.1,1486.6,468.1z"/>
		<path id="XMLID_602_" class="st20" d="M1487.9,470c-0.1,0-0.1,0.1,0,0.2c0.1,0,0.2,0,0.3,0c0.1,0,0.1-0.1,0-0.2
			C1488.1,470,1488,470,1487.9,470z"/>
		<path id="XMLID_601_" class="st20" d="M1489.9,471.1c-0.1,0-0.1,0.1,0,0.2s0.2,0,0.3,0s0.1-0.1,0-0.2S1489.9,471.1,1489.9,471.1z"
			/>
		<path id="XMLID_600_" class="st20" d="M1491.8,472.3c-0.1,0-0.1,0.1,0,0.2s0.2,0,0.3,0c0.1,0,0.1-0.1,0-0.2
			C1492,472.2,1491.9,472.2,1491.8,472.3z"/>
	</g>
	<polygon class="st21" points="1568.4,631.6 1707.8,550.7 1768.9,586 1629.5,666.8 	"/>
	<polygon class="st22" points="1568.4,631.6 1568.4,634.5 1629.5,670 1629.5,666.8 	"/>
	<polygon class="st23" points="1629.5,670 1629.5,666.8 1768.5,585.6 1768.5,589 	"/>
	<g class="st3">
		<path class="st16" d="M1719.9,567.8V585c0,1-0.8,1.8-1.8,1.8c-1,0-1.8-0.8-1.8-1.8v-17.2H1719.9z"/>
		<path class="st17" d="M1719.9,567.8v6.9c-0.6,0-1.2,0.1-1.8,0.1c-0.6,0-1.2,0-1.8-0.1v-6.9H1719.9z"/>
		
			<ellipse transform="matrix(0.9144 -0.4049 0.4049 0.9144 -75.5017 742.7623)" class="st11" cx="1718.1" cy="549.9" rx="21.5" ry="21.5"/>
		<path class="st17" d="M1719.9,565.2c-11.9,0-21.5-9.6-21.5-21.5c0-0.9,0.1-1.8,0.2-2.7c-1.2,2.7-1.9,5.7-1.9,8.9
			c0,11.9,9.6,21.5,21.5,21.5c10.9,0,19.9-8.2,21.3-18.7C1736.1,560,1728.6,565.2,1719.9,565.2z"/>
	</g>
	<g class="st3">
		<path class="st16" d="M1668.9,596.6v17.2c0,1-0.8,1.8-1.8,1.8c-1,0-1.8-0.8-1.8-1.8v-17.2H1668.9z"/>
		<path class="st17" d="M1668.9,596.6v6.9c-0.6,0-1.2,0.1-1.8,0.1c-0.6,0-1.2,0-1.8-0.1v-6.9H1668.9z"/>
		
			<ellipse transform="matrix(0.9144 -0.4049 0.4049 0.9144 -91.5409 724.5945)" class="st11" cx="1667.2" cy="578.7" rx="21.5" ry="21.5"/>
		<path class="st17" d="M1668.9,594c-11.9,0-21.5-9.6-21.5-21.5c0-0.9,0.1-1.8,0.2-2.7c-1.2,2.7-1.9,5.7-1.9,8.9
			c0,11.9,9.6,21.5,21.5,21.5c10.9,0,19.9-8.2,21.3-18.7C1685.1,588.8,1677.6,594,1668.9,594z"/>
	</g>
	<g class="st3">
		<path class="st16" d="M1619.2,625.8V643c0,1-0.8,1.8-1.8,1.8s-1.8-0.8-1.8-1.8v-17.2H1619.2z"/>
		<path class="st17" d="M1619.2,625.8v6.9c-0.6,0-1.2,0.1-1.8,0.1s-1.2,0-1.8-0.1v-6.9H1619.2z"/>
		
			<ellipse transform="matrix(0.9144 -0.4049 0.4049 0.9144 -107.6188 706.971)" class="st11" cx="1617.5" cy="607.9" rx="21.5" ry="21.5"/>
		<path class="st17" d="M1619.2,623.2c-11.9,0-21.5-9.6-21.5-21.5c0-0.9,0.1-1.8,0.2-2.7c-1.2,2.7-1.9,5.7-1.9,8.9
			c0,11.9,9.6,21.5,21.5,21.5c10.9,0,19.9-8.2,21.3-18.7C1635.4,618,1627.9,623.2,1619.2,623.2z"/>
	</g>
</g>
<g id="senales5" class="st0">
	<g class="st3">
		<g id="_x33_4_27_">
			<g>
				<path class="st24" d="M1418.7,182.7c0,0-0.2,1.2,1.2,2c1.3,0.8,2.2,1.2,3.1,0.9c0.8-0.3,4.3-2.5,4.7-2.8c0.9-0.6,1-2.1,1-2.1
					l-2.3,0.7l-5.2,0.8L1418.7,182.7z"/>
				<path class="st25" d="M1429.1,180.5L1429.1,180.5l0-0.7l-2.6-0.9c-0.5-0.3-0.9-0.5-0.9-0.5s-0.6-0.4-1.3,0
					c-0.2,0.1-0.5,0.3-1,0.6l-2,2.2l-3,0.3l0,0.5l0,0c0,0.6,0,0.6,0.3,0.8l2.9,1.7c0,0,0.5,0.5,1.4,0c0.9-0.5,6-3.5,6-3.5
					S1429.1,180.8,1429.1,180.5z"/>
				<path class="st25" d="M1418.5,182.1l2.9,1.7c0,0,0.5,0.5,1.4,0c0.9-0.5,6-3.4,6-3.4s0.6-0.4,0-0.9c-0.6-0.4-3.2-1.8-3.2-1.8
					s-0.6-0.4-1.3,0c-0.7,0.4-5.1,3.1-5.1,3.1S1417.5,181.5,1418.5,182.1z"/>
			</g>
			<path id="XMLID_1492_" class="st25" d="M1398.5,205.2l0.2,0.1c-0.3-0.3-0.3-0.7,0-0.9l13.2-16.8c0.3-0.3,0.7-0.3,0.9,0l-0.2-0.1
				c0.3,0.3,0.3,0.7,0,0.9l-13.2,16.8C1399.2,205.4,1398.8,205.4,1398.5,205.2z"/>
			<g>
				<path class="st25" d="M1401.6,243.1l-4-0.1l-0.3,9.9c0,0.8,1.1,1.6,2.4,1.6s2.2-0.7,2.2-1.5L1401.6,243.1z"/>
				<path class="st25" d="M1401.6,243.1c0,0.7-0.8,1.4-2,1.4s-2-0.6-2-1.4c0-0.7,0.9-1.4,2-1.4S1401.6,242.4,1401.6,243.1z"/>
				<path id="XMLID_1490_" class="st25" d="M1399.3,195.1L1399.3,195.1c-0.2-0.3-0.1-0.7,0.2-0.9l19.9-11.5c0.3-0.2,0.7-0.1,0.9,0.2
					l0,0c0.2,0.3,0.1,0.7-0.2,0.9l-19.9,11.5C1399.9,195.5,1399.5,195.4,1399.3,195.1z"/>
				<path id="XMLID_1489_" class="st25" d="M1399.7,243.5L1399.7,243.5c-0.5,0-1.1-0.5-1.1-1l0.2-47.4c0-0.5,0.4-1,1-1l0,0
					c0.5,0,1,0.4,1,1l0.2,47.3C1400.8,243,1400.4,243.5,1399.7,243.5z"/>
			</g>
			<g>
				<path id="XMLID_1486_" class="st25" d="M1399.3,219.5L1399.3,219.5c-0.2,0.1-0.5,0.1-0.7-0.1l-2.9-4.3c-0.1-0.2-0.1-0.5,0.1-0.7
					l0,0c0.2-0.1,0.5-0.1,0.7,0.1l2.9,4.3C1399.5,219.1,1399.5,219.3,1399.3,219.5z"/>
				<polygon class="st26" points="1403.7,208.4 1403.6,209.3 1397.7,216.4 1387.7,210.5 1387.6,209.8 				"/>
				<polygon class="st25" points="1393.7,203.1 1403.7,208.4 1397.7,215.6 1387.6,209.8 				"/>
				<polygon class="st16" points="1388.7,209.6 1393.8,203.9 1402.6,208.6 1397.5,214.6 				"/>
				<line class="st11" x1="1401.4" y1="208" x2="1396.2" y2="213.9"/>
				<line class="st11" x1="1399.7" y1="207.1" x2="1394.6" y2="213"/>
			</g>
		</g>
		<line class="st11" x1="1398" y1="206.2" x2="1393" y2="212"/>
		<line class="st11" x1="1394.9" y1="204.5" x2="1389.9" y2="210.3"/>
		<line class="st11" x1="1396.5" y1="205.4" x2="1391.5" y2="211.2"/>
		<line class="st11" x1="1392.1" y1="205.7" x2="1400.9" y2="210.5"/>
		<line class="st11" x1="1399.1" y1="212.8" x2="1390.1" y2="207.8"/>
	</g>
	<g class="st3">
		<g id="_x33_4_18_">
			<g>
				<path class="st24" d="M1595.4,285.2c0,0-0.2,1.2,1.2,2c1.3,0.8,2.2,1.2,3.1,0.9c0.8-0.3,4.3-2.5,4.7-2.8c0.9-0.6,1-2.1,1-2.1
					l-2.3,0.7l-5.2,0.8L1595.4,285.2z"/>
				<path class="st25" d="M1605.8,283L1605.8,283l0-0.7l-2.6-0.9c-0.5-0.3-0.9-0.5-0.9-0.5s-0.6-0.4-1.3,0c-0.2,0.1-0.5,0.3-1,0.6
					l-2,2.2l-3,0.3l0,0.5l0,0c0,0.6,0,0.6,0.3,0.8l2.9,1.7c0,0,0.5,0.5,1.4,0s6-3.5,6-3.5S1605.8,283.3,1605.8,283z"/>
				<path class="st25" d="M1595.2,284.6l2.9,1.7c0,0,0.5,0.5,1.4,0s6-3.4,6-3.4s0.6-0.4,0-0.9c-0.6-0.4-3.2-1.8-3.2-1.8
					s-0.6-0.4-1.3,0c-0.7,0.4-5.1,3.1-5.1,3.1S1594.2,284,1595.2,284.6z"/>
			</g>
			<path id="XMLID_1485_" class="st25" d="M1575.2,307.7l0.2,0.1c-0.3-0.3-0.3-0.7,0-0.9l13.2-16.8c0.3-0.3,0.7-0.3,0.9,0l-0.2-0.1
				c0.3,0.3,0.3,0.7,0,0.9l-13.2,16.8C1575.9,307.9,1575.4,307.9,1575.2,307.7z"/>
			<g>
				<path class="st25" d="M1578.3,345.6l-4-0.1l-0.3,9.9c0,0.8,1.1,1.6,2.4,1.6c1.3,0,2.2-0.7,2.2-1.5L1578.3,345.6z"/>
				<path class="st25" d="M1578.3,345.6c0,0.7-0.8,1.4-2,1.4c-1.1,0-2-0.6-2-1.4c0-0.7,0.9-1.4,2-1.4
					C1577.5,344.3,1578.3,344.9,1578.3,345.6z"/>
				<path id="XMLID_1484_" class="st25" d="M1576,297.6L1576,297.6c-0.2-0.3-0.1-0.7,0.2-0.9l19.9-11.5c0.3-0.2,0.7-0.1,0.9,0.2l0,0
					c0.2,0.3,0.1,0.7-0.2,0.9l-19.9,11.5C1576.6,298,1576.2,297.9,1576,297.6z"/>
				<path id="XMLID_1483_" class="st25" d="M1576.4,346L1576.4,346c-0.5,0-1.1-0.5-1.1-1l0.2-47.4c0-0.5,0.4-1,1-1l0,0
					c0.5,0,1,0.4,1,1l0.2,47.3C1577.5,345.5,1577.1,346,1576.4,346z"/>
			</g>
			<g>
				<path id="XMLID_1482_" class="st25" d="M1576,322L1576,322c-0.2,0.1-0.5,0.1-0.7-0.1l-2.9-4.3c-0.1-0.2-0.1-0.5,0.1-0.7l0,0
					c0.2-0.1,0.5-0.1,0.7,0.1l2.9,4.3C1576.2,321.6,1576.2,321.9,1576,322z"/>
				<polygon class="st26" points="1580.3,310.9 1580.3,311.8 1574.4,318.9 1564.4,313 1564.3,312.3 				"/>
				<polygon class="st25" points="1570.4,305.6 1580.3,310.9 1574.3,318.1 1564.3,312.3 				"/>
				<polygon class="st16" points="1565.4,312.1 1570.5,306.4 1579.3,311.1 1574.2,317.2 				"/>
				<line class="st11" x1="1578.1" y1="310.5" x2="1572.9" y2="316.4"/>
				<line class="st11" x1="1576.4" y1="309.6" x2="1571.3" y2="315.5"/>
			</g>
		</g>
		<line class="st11" x1="1574.7" y1="308.7" x2="1569.6" y2="314.6"/>
		<line class="st11" x1="1571.6" y1="307.1" x2="1566.6" y2="312.8"/>
		<line class="st11" x1="1573.2" y1="307.9" x2="1568.1" y2="313.7"/>
		<line class="st11" x1="1568.8" y1="308.2" x2="1577.6" y2="313"/>
		<line class="st11" x1="1575.7" y1="315.3" x2="1566.8" y2="310.4"/>
	</g>
</g>
<g id="c1-5">
	<g>
		<polygon class="st27" points="1184.2,383.3 1361.5,485.6 1538.6,383.3 1538.6,375.1 1361.5,281.1 1184.2,375.1 		"/>
		<polygon class="st13" points="1361.5,485.6 1538.6,383.9 1538.6,375.1 1361.5,281.1 		"/>
		<path class="st28" d="M1361.5,281.1l177.1,94l-177,101.5l-177.3-101.5c0,0,0-21.6,0-30C1208,351.1,1361.5,281.1,1361.5,281.1z"/>
		<path class="st29" d="M1184.2,345.1c1.9,1.7,29.6,19.1,55.6,38.4c16.8,12.5,34.3,27.6,51,41.9c8.9,7.6,17.5,14.9,25.7,21.5
			c24.7,19.7,45.1,32.4,45.1,32.4l100.3-57.5l76.6-46.7l-136.9-101.6l-38.5-33.6c-12.2,0.4-42.4,23.3-53.6,30
			c-23.7,15.4-35.5,31.4-62.6,46.5c-16.1,9-24.5,19.5-39.3,24.9C1199.5,344.4,1191.6,343.9,1184.2,345.1z"/>
	</g>
	<g>
		<polygon class="st30" points="1007,485.2 1184.3,585.6 1361.4,485.2 1361.4,477.1 1184.3,384.7 1007,477.1 		"/>
		<polygon class="st13" points="1184.3,585.6 1361.4,485.8 1361.7,479.3 1184.3,384.7 		"/>
		<path class="st13" d="M1184.3,384.7l168.8,96l-168.7,96L1007,477.1c0,0,0-21.3,0-29.5C1030.8,453.5,1184.3,384.7,1184.3,384.7z"/>
		<path class="st29" d="M1007,447.6c1.9,1.7,29.6,18.8,55.6,37.7c16.8,12.2,34.3,27.1,51,41.2c8.9,7.5,17.5,14.7,25.7,21.1
			c24.7,19.3,45.1,31.8,45.1,31.8l100.3-56.5l76.9-43.6V470l-123.3-94.4l-53.6-30.6c-12.2,0.4-41.3,22.3-52.5,28.9
			c-23.7,15.1-35.5,30.8-62.6,45.7c-16.1,8.9-24.5,19.2-39.3,24.5C1022.3,446.9,1014.4,446.4,1007,447.6z"/>
	</g>
	<polyline class="st31" points="1144.8,465.7 1083.3,501.3 1083.3,520 1008.2,477.7 	"/>
	<polyline class="st32" points="1150.7,469.8 1089.2,505.3 1089.2,523.3 1089.2,531.1 1008.4,484.4 	"/>
	<polyline class="st32" points="1316.4,373.7 1287,390.4 1382.1,445.3 1168.3,568.4 1168.3,576.5 1085.5,529 	"/>
	<polyline class="st31" points="1315.1,368.2 1276.2,390.2 1370.1,444.8 1163.6,560 1163.5,565.3 1074.7,515 	"/>
	<g>
		<polygon class="st10" points="1428.5,376.3 1356.4,417.4 1356.5,299.6 1395,237.1 1428.6,260.5 		"/>
		<g>
			<polygon class="st12" points="1356.5,299.6 1284.6,259.9 1284.5,376.1 1356.4,417.4 			"/>
		</g>
		<polygon class="st4" points="1395.8,235.7 1431.4,262 1428.6,261.5 1395,237.1 		"/>
		<g>
			<polygon class="st16" points="1281.4,264.4 1353.9,304.6 1353.9,299 1281.4,258.8 			"/>
			<polygon class="st16" points="1353.9,299 1281.4,258.8 1320.2,193.1 1394.6,230.1 			"/>
			<polygon class="st16" points="1351.2,297.5 1353.9,299 1394.4,230.5 1391.8,228.7 			"/>
			<polygon class="st16" points="1345.8,294.5 1348.5,296 1389.1,227.4 1386.3,226 			"/>
			<polygon class="st16" points="1340.4,291.5 1343.1,293 1383.5,224.6 1380.7,223.2 			"/>
			<polygon class="st16" points="1335,288.5 1337.7,290 1378,221.9 1375.2,220.5 			"/>
			<polygon class="st16" points="1329.5,285.5 1332.2,287 1372.4,219.1 1369.6,217.7 			"/>
			<polygon class="st16" points="1324.1,282.6 1326.8,284.1 1366.9,216.3 1364.1,215 			"/>
			<polygon class="st16" points="1318.7,279.5 1321.4,281 1361.3,213.6 1358.5,212.2 			"/>
			<polygon class="st16" points="1313.3,276.6 1316,278.1 1355.8,210.8 1353,209.4 			"/>
			<polygon class="st16" points="1307.9,273.6 1310.6,275.1 1350.2,208.1 1347.4,206.7 			"/>
			<polygon class="st16" points="1302.5,270.6 1305.2,272.1 1344.7,205.3 1341.9,203.9 			"/>
			<polygon class="st16" points="1297.1,267.6 1299.8,269.1 1339.1,202.5 1336.3,201.2 			"/>
			<polygon class="st16" points="1291.6,264.6 1294.3,266.1 1333.6,199.8 1330.8,198.4 			"/>
			<polygon class="st16" points="1286.2,261.6 1288.9,263.1 1328,197 1325.2,195.6 			"/>
			<polygon class="st16" points="1281.4,258.8 1283.7,260.2 1322.6,194.4 1320.2,193.1 			"/>
		</g>
		<polygon class="st11" points="1317.3,198 1391.8,235 1394.8,229.9 1320.3,193 		"/>
		<polygon class="st4" points="1431.4,257.9 1394.8,229.9 1353.9,299 1353.9,304.6 1395.8,235.7 1431.4,262 		"/>
		<polygon class="st13" points="1377.9,328 1364.9,335.6 1364.9,313 1377.9,305.5 		"/>
		<polyline class="st15" points="1377.9,305.5 1377.9,328 1364.9,335.6 		"/>
		<polygon class="st13" points="1401.2,314.2 1388.1,321.8 1388.1,299.2 1401.2,291.7 		"/>
		<polyline class="st15" points="1401.2,291.7 1401.2,314.2 1388.1,321.8 		"/>
		<polygon class="st13" points="1397.9,279.8 1388.1,285.5 1388.1,268.6 1397.9,262.9 		"/>
		<polyline class="st15" points="1397.9,262.9 1397.9,279.8 1388.1,285.5 		"/>
		<polygon class="st13" points="1424.4,301.2 1411.4,308.7 1411.4,286.1 1424.4,278.6 		"/>
		<polyline class="st15" points="1424.4,278.6 1424.4,301.2 1411.4,308.7 		"/>
		<polygon class="st13" points="1377.9,356.4 1364.9,363.9 1364.9,341.3 1377.9,333.8 		"/>
		<polyline class="st15" points="1377.9,333.8 1377.9,356.4 1364.9,363.9 		"/>
		<polygon class="st13" points="1401.2,342.6 1388.1,350.1 1388.1,327.5 1401.2,320 		"/>
		<polyline class="st15" points="1401.2,320 1401.2,342.6 1388.1,350.1 		"/>
		<polygon class="st13" points="1424.4,329.5 1411.4,337 1411.4,314.5 1424.4,306.9 		"/>
		<polyline class="st15" points="1424.4,306.9 1424.4,329.5 1411.4,337 		"/>
		<polygon class="st13" points="1377.9,385.4 1364.9,392.9 1364.9,370.4 1377.9,362.8 		"/>
		<polyline class="st15" points="1377.9,362.8 1377.9,385.4 1364.9,392.9 		"/>
		<polygon class="st13" points="1401.2,371.6 1388.1,379.1 1388.1,356.6 1401.2,349 		"/>
		<polyline class="st15" points="1401.2,349 1401.2,371.6 1388.1,379.1 		"/>
		<polygon class="st13" points="1424.4,358.5 1411.4,366.1 1411.4,343.5 1424.4,335.9 		"/>
		<polyline class="st15" points="1424.4,335.9 1424.4,358.5 1411.4,366.1 		"/>
		<polygon class="st5" points="1291.3,305.7 1304,313.1 1304,291.1 1291.3,283.8 		"/>
		<polyline class="st15" points="1304,313.1 1291.3,305.7 1291.3,283.8 		"/>
		<polygon class="st5" points="1313.4,318.1 1326.1,325.4 1326.1,303.4 1313.4,296.1 		"/>
		<polyline class="st15" points="1326.1,325.4 1313.4,318.1 1313.4,296.1 		"/>
		<polygon class="st5" points="1291.3,335.9 1304,343.2 1304,321.2 1291.3,313.9 		"/>
		<polyline class="st15" points="1304,343.2 1291.3,335.9 1291.3,313.9 		"/>
		<polygon class="st5" points="1313.4,348.2 1326.1,355.6 1326.1,333.6 1313.4,326.2 		"/>
		<polyline class="st15" points="1326.1,355.6 1313.4,348.2 1313.4,326.2 		"/>
		<polygon class="st5" points="1337.4,331 1350.1,338.4 1350.1,316.4 1337.4,309 		"/>
		<polyline class="st15" points="1350.1,338.4 1337.4,331 1337.4,309 		"/>
		<polygon class="st5" points="1337.4,361.2 1350.1,368.6 1350.1,346.6 1337.4,339.2 		"/>
		<polyline class="st15" points="1350.1,368.6 1337.4,361.2 1337.4,339.2 		"/>
		<polygon class="st5" points="1291.3,364.2 1304,371.6 1304,349.6 1291.3,342.2 		"/>
		<polyline class="st15" points="1304,371.6 1291.3,364.2 1291.3,342.2 		"/>
		<polygon class="st5" points="1313.4,376.6 1326.1,383.9 1326.1,361.9 1313.4,354.6 		"/>
		<polyline class="st15" points="1326.1,383.9 1313.4,376.6 1313.4,354.6 		"/>
		<polygon class="st5" points="1337.4,389.6 1350.1,396.9 1350.1,374.9 1337.4,367.6 		"/>
		<polyline class="st15" points="1350.1,396.9 1337.4,389.6 1337.4,367.6 		"/>
	</g>
	<g>
		<polygon class="st10" points="1278,463.8 1206,504.9 1206.1,387.2 1244.5,324.6 1278.2,348 		"/>
		<g>
			<polygon class="st12" points="1206.1,387.2 1134.1,347.4 1134,463.7 1206,504.9 			"/>
		</g>
		<polygon class="st4" points="1245.4,323.2 1281,349.6 1278.2,349 1244.5,324.6 		"/>
		<g>
			<polygon class="st16" points="1130.9,351.9 1203.5,392.1 1203.5,386.5 1130.9,346.3 			"/>
			<polygon class="st16" points="1203.5,386.5 1130.9,346.3 1169.7,280.7 1244.2,317.7 			"/>
			<polygon class="st16" points="1200.8,385 1203.5,386.5 1244,318 1241.4,316.3 			"/>
			<polygon class="st16" points="1195.3,382.1 1198,383.6 1238.7,314.9 1235.8,313.5 			"/>
			<polygon class="st16" points="1190,379 1192.7,380.5 1233.1,312.1 1230.3,310.8 			"/>
			<polygon class="st16" points="1184.5,376.1 1187.2,377.6 1227.6,309.4 1224.8,308 			"/>
			<polygon class="st16" points="1179.1,373 1181.8,374.5 1222,306.6 1219.2,305.2 			"/>
			<polygon class="st16" points="1173.7,370.1 1176.4,371.6 1216.4,303.9 1213.6,302.5 			"/>
			<polygon class="st16" points="1168.3,367.1 1171,368.5 1210.9,301.1 1208.1,299.7 			"/>
			<polygon class="st16" points="1162.9,364.1 1165.6,365.6 1205.3,298.4 1202.5,297 			"/>
			<polygon class="st16" points="1157.4,361.1 1160.1,362.6 1199.8,295.6 1197,294.2 			"/>
			<polygon class="st16" points="1152,358.2 1154.7,359.6 1194.2,292.8 1191.4,291.4 			"/>
			<polygon class="st16" points="1146.6,355.1 1149.3,356.6 1188.7,290.1 1185.9,288.7 			"/>
			<polygon class="st16" points="1141.2,352.2 1143.9,353.7 1183.1,287.3 1180.3,285.9 			"/>
			<polygon class="st16" points="1135.8,349.1 1138.5,350.6 1177.5,284.6 1174.7,283.2 			"/>
			<polygon class="st16" points="1130.9,346.3 1133.3,347.7 1172.2,281.9 1169.7,280.7 			"/>
		</g>
		<polygon class="st11" points="1166.9,285.5 1241.3,322.5 1244.3,317.5 1169.8,280.5 		"/>
		<polygon class="st4" points="1281,345.4 1244.3,317.5 1203.5,386.5 1203.5,392.1 1245.4,323.2 1281,349.6 		"/>
		<polygon class="st13" points="1227.5,415.6 1214.5,423.1 1214.5,400.5 1227.5,393 		"/>
		<polyline class="st15" points="1227.5,393 1227.5,415.6 1214.5,423.1 		"/>
		<polygon class="st13" points="1250.7,401.8 1237.7,409.3 1237.7,386.7 1250.7,379.2 		"/>
		<polyline class="st15" points="1250.7,379.2 1250.7,401.8 1237.7,409.3 		"/>
		<polygon class="st13" points="1247.5,367.4 1237.7,373 1237.7,356.1 1247.5,350.4 		"/>
		<polyline class="st15" points="1247.5,350.4 1247.5,367.4 1237.7,373 		"/>
		<polygon class="st13" points="1274,388.7 1260.9,396.2 1260.9,373.7 1274,366.1 		"/>
		<polyline class="st15" points="1274,366.1 1274,388.7 1260.9,396.2 		"/>
		<polygon class="st13" points="1227.5,443.9 1214.5,451.4 1214.5,428.8 1227.5,421.3 		"/>
		<polyline class="st15" points="1227.5,421.3 1227.5,443.9 1214.5,451.4 		"/>
		<polygon class="st13" points="1250.7,430.1 1237.7,437.6 1237.7,415.1 1250.7,407.5 		"/>
		<polyline class="st15" points="1250.7,407.5 1250.7,430.1 1237.7,437.6 		"/>
		<polygon class="st13" points="1274,417 1260.9,424.6 1260.9,402 1274,394.4 		"/>
		<polyline class="st15" points="1274,394.4 1274,417 1260.9,424.6 		"/>
		<polygon class="st13" points="1227.5,472.9 1214.5,480.5 1214.5,457.9 1227.5,450.3 		"/>
		<polyline class="st15" points="1227.5,450.3 1227.5,472.9 1214.5,480.5 		"/>
		<polygon class="st13" points="1250.7,459.1 1237.7,466.7 1237.7,444.1 1250.7,436.5 		"/>
		<polyline class="st15" points="1250.7,436.5 1250.7,459.1 1237.7,466.7 		"/>
		<polygon class="st13" points="1274,446.1 1260.9,453.6 1260.9,431 1274,423.5 		"/>
		<polyline class="st15" points="1274,423.5 1274,446.1 1260.9,453.6 		"/>
		<polygon class="st5" points="1140.8,393.3 1153.5,400.6 1153.5,378.6 1140.8,371.3 		"/>
		<polyline class="st15" points="1153.5,400.6 1140.8,393.3 1140.8,371.3 		"/>
		<polygon class="st5" points="1162.9,405.6 1175.6,413 1175.6,391 1162.9,383.6 		"/>
		<polyline class="st15" points="1175.6,413 1162.9,405.6 1162.9,383.6 		"/>
		<polygon class="st5" points="1140.8,423.4 1153.5,430.8 1153.5,408.8 1140.8,401.4 		"/>
		<polyline class="st15" points="1153.5,430.8 1140.8,423.4 1140.8,401.4 		"/>
		<polygon class="st5" points="1162.9,435.8 1175.6,443.1 1175.6,421.1 1162.9,413.8 		"/>
		<polyline class="st15" points="1175.6,443.1 1162.9,435.8 1162.9,413.8 		"/>
		<polygon class="st5" points="1186.9,418.6 1199.6,425.9 1199.6,403.9 1186.9,396.6 		"/>
		<polyline class="st15" points="1199.6,425.9 1186.9,418.6 1186.9,396.6 		"/>
		<polygon class="st5" points="1186.9,448.8 1199.6,456.1 1199.6,434.1 1186.9,426.8 		"/>
		<polyline class="st15" points="1199.6,456.1 1186.9,448.8 1186.9,426.8 		"/>
		<polygon class="st5" points="1140.8,451.8 1153.5,459.1 1153.5,437.1 1140.8,429.8 		"/>
		<polyline class="st15" points="1153.5,459.1 1140.8,451.8 1140.8,429.8 		"/>
		<polygon class="st5" points="1162.9,464.1 1175.6,471.5 1175.6,449.4 1162.9,442.1 		"/>
		<polyline class="st15" points="1175.6,471.5 1162.9,464.1 1162.9,442.1 		"/>
		<polygon class="st5" points="1186.9,477.1 1199.6,484.4 1199.6,462.4 1186.9,455.1 		"/>
		<polyline class="st15" points="1199.6,484.4 1186.9,477.1 1186.9,455.1 		"/>
	</g>
</g>
</svg>
